%TF.GenerationSoftware,KiCad,Pcbnew,9.0.5*%
%TF.CreationDate,2025-10-20T11:02:32-07:00*%
%TF.ProjectId,infnoise_goldfingers,696e666e-6f69-4736-955f-676f6c646669,rev?*%
%TF.SameCoordinates,Original*%
%TF.FileFunction,Soldermask,Top*%
%TF.FilePolarity,Negative*%
%FSLAX46Y46*%
G04 Gerber Fmt 4.6, Leading zero omitted, Abs format (unit mm)*
G04 Created by KiCad (PCBNEW 9.0.5) date 2025-10-20 11:02:32*
%MOMM*%
%LPD*%
G01*
G04 APERTURE LIST*
G04 Aperture macros list*
%AMRoundRect*
0 Rectangle with rounded corners*
0 $1 Rounding radius*
0 $2 $3 $4 $5 $6 $7 $8 $9 X,Y pos of 4 corners*
0 Add a 4 corners polygon primitive as box body*
4,1,4,$2,$3,$4,$5,$6,$7,$8,$9,$2,$3,0*
0 Add four circle primitives for the rounded corners*
1,1,$1+$1,$2,$3*
1,1,$1+$1,$4,$5*
1,1,$1+$1,$6,$7*
1,1,$1+$1,$8,$9*
0 Add four rect primitives between the rounded corners*
20,1,$1+$1,$2,$3,$4,$5,0*
20,1,$1+$1,$4,$5,$6,$7,0*
20,1,$1+$1,$6,$7,$8,$9,0*
20,1,$1+$1,$8,$9,$2,$3,0*%
G04 Aperture macros list end*
%ADD10R,7.500000X1.360000*%
%ADD11R,6.500000X1.360000*%
%ADD12RoundRect,0.200000X-0.200000X-0.275000X0.200000X-0.275000X0.200000X0.275000X-0.200000X0.275000X0*%
%ADD13RoundRect,0.225000X-0.225000X-0.250000X0.225000X-0.250000X0.225000X0.250000X-0.225000X0.250000X0*%
%ADD14C,1.000000*%
%ADD15RoundRect,0.200000X0.275000X-0.200000X0.275000X0.200000X-0.275000X0.200000X-0.275000X-0.200000X0*%
%ADD16RoundRect,0.200000X-0.275000X0.200000X-0.275000X-0.200000X0.275000X-0.200000X0.275000X0.200000X0*%
%ADD17RoundRect,0.225000X0.250000X-0.225000X0.250000X0.225000X-0.250000X0.225000X-0.250000X-0.225000X0*%
%ADD18RoundRect,0.100000X0.225000X0.100000X-0.225000X0.100000X-0.225000X-0.100000X0.225000X-0.100000X0*%
%ADD19R,0.300000X0.500000*%
%ADD20R,1.750000X1.050000*%
%ADD21RoundRect,0.062500X-0.062500X0.350000X-0.062500X-0.350000X0.062500X-0.350000X0.062500X0.350000X0*%
%ADD22RoundRect,0.062500X-0.350000X0.062500X-0.350000X-0.062500X0.350000X-0.062500X0.350000X0.062500X0*%
%ADD23R,2.600000X2.600000*%
%ADD24RoundRect,0.200000X0.200000X0.275000X-0.200000X0.275000X-0.200000X-0.275000X0.200000X-0.275000X0*%
%ADD25RoundRect,0.225000X0.225000X0.250000X-0.225000X0.250000X-0.225000X-0.250000X0.225000X-0.250000X0*%
%ADD26RoundRect,0.087500X0.087500X-0.537500X0.087500X0.537500X-0.087500X0.537500X-0.087500X-0.537500X0*%
%ADD27RoundRect,0.218750X0.256250X-0.218750X0.256250X0.218750X-0.256250X0.218750X-0.256250X-0.218750X0*%
G04 APERTURE END LIST*
D10*
%TO.C,X1*%
X4880000Y-9596000D03*
D11*
X5380000Y-7096000D03*
X5380000Y-5096000D03*
D10*
X4880000Y-2596000D03*
%TD*%
D12*
%TO.C,R2*%
X11398800Y-7019800D03*
X13048800Y-7019800D03*
%TD*%
D13*
%TO.C,C5*%
X11448800Y-9519800D03*
X12998800Y-9519800D03*
%TD*%
D14*
%TO.C,FID3*%
X34086800Y-762000D03*
%TD*%
%TO.C,FID2*%
X9652000Y-762000D03*
%TD*%
D15*
%TO.C,R4*%
X21348800Y-3094800D03*
X21348800Y-1444800D03*
%TD*%
D12*
%TO.C,R1*%
X11398800Y-5019800D03*
X13048800Y-5019800D03*
%TD*%
D16*
%TO.C,R5*%
X23348800Y-8944800D03*
X23348800Y-10594800D03*
%TD*%
D13*
%TO.C,C4*%
X11448800Y-2519800D03*
X12998800Y-2519800D03*
%TD*%
D17*
%TO.C,C8*%
X23348800Y-6794800D03*
X23348800Y-5244800D03*
%TD*%
D18*
%TO.C,SW2*%
X28798800Y-10169800D03*
X28798800Y-9519800D03*
X28798800Y-8869800D03*
X26898800Y-8869800D03*
X26898800Y-10169800D03*
%TD*%
D17*
%TO.C,C7*%
X21348800Y-6794800D03*
X21348800Y-5244800D03*
%TD*%
%TO.C,C1*%
X14648800Y-11169800D03*
X14648800Y-9619800D03*
%TD*%
D19*
%TO.C,AMP1*%
X29348800Y-6919800D03*
X29848800Y-6919800D03*
X30348800Y-6919800D03*
X30848800Y-6919800D03*
X30848800Y-5119800D03*
X30348800Y-5119800D03*
X29848800Y-5119800D03*
X29348800Y-5119800D03*
D20*
X30098800Y-6019800D03*
%TD*%
D21*
%TO.C,USB1*%
X18098800Y-4158500D03*
X17598800Y-4158500D03*
X17098800Y-4158500D03*
X16598800Y-4158500D03*
X16098800Y-4158500D03*
X15598800Y-4158500D03*
D22*
X14911300Y-4846000D03*
X14911300Y-5346000D03*
X14911300Y-5846000D03*
X14911300Y-6346000D03*
X14911300Y-6846000D03*
X14911300Y-7346000D03*
D21*
X15598800Y-8033500D03*
X16098800Y-8033500D03*
X16598800Y-8033500D03*
X17098800Y-8033500D03*
X17598800Y-8033500D03*
X18098800Y-8033500D03*
D22*
X18786300Y-7346000D03*
X18786300Y-6846000D03*
X18786300Y-6346000D03*
X18786300Y-5846000D03*
X18786300Y-5346000D03*
X18786300Y-4846000D03*
D23*
X16848800Y-6096000D03*
%TD*%
D15*
%TO.C,R3*%
X21348800Y-10594800D03*
X21348800Y-8944800D03*
%TD*%
D17*
%TO.C,C9*%
X32598800Y-6794800D03*
X32598800Y-5244800D03*
%TD*%
D13*
%TO.C,C3*%
X18073800Y-9292000D03*
X19623800Y-9292000D03*
%TD*%
D24*
%TO.C,R9*%
X17673800Y-896800D03*
X16023800Y-896800D03*
%TD*%
D25*
%TO.C,C6*%
X17623800Y-2671400D03*
X16073800Y-2671400D03*
%TD*%
D18*
%TO.C,SW1*%
X28798800Y-3169800D03*
X28798800Y-2519800D03*
X28798800Y-1869800D03*
X26898800Y-1869800D03*
X26898800Y-3169800D03*
%TD*%
D26*
%TO.C,COMP1*%
X25348800Y-7419800D03*
X25848800Y-7419800D03*
X26348800Y-7419800D03*
X26848800Y-7419800D03*
X26848800Y-4619800D03*
X26348800Y-4619800D03*
X25848800Y-4619800D03*
X25348800Y-4619800D03*
%TD*%
D27*
%TO.C,L1*%
X16423800Y-11182300D03*
X16423800Y-9607300D03*
%TD*%
D13*
%TO.C,C2*%
X18073800Y-11269800D03*
X19623800Y-11269800D03*
%TD*%
D16*
%TO.C,R8*%
X32598800Y-8944800D03*
X32598800Y-10594800D03*
%TD*%
D15*
%TO.C,R6*%
X23348800Y-3094800D03*
X23348800Y-1444800D03*
%TD*%
D16*
%TO.C,R7*%
X32598800Y-1444800D03*
X32598800Y-3094800D03*
%TD*%
D14*
%TO.C,FID1*%
X9652000Y-11430000D03*
%TD*%
M02*
