%TF.GenerationSoftware,KiCad,Pcbnew,9.0.5*%
%TF.CreationDate,2025-10-20T11:02:32-07:00*%
%TF.ProjectId,infnoise_goldfingers,696e666e-6f69-4736-955f-676f6c646669,rev?*%
%TF.SameCoordinates,Original*%
%TF.FileFunction,Legend,Top*%
%TF.FilePolarity,Positive*%
%FSLAX46Y46*%
G04 Gerber Fmt 4.6, Leading zero omitted, Abs format (unit mm)*
G04 Created by KiCad (PCBNEW 9.0.5) date 2025-10-20 11:02:32*
%MOMM*%
%LPD*%
G01*
G04 APERTURE LIST*
G04 Aperture macros list*
%AMRoundRect*
0 Rectangle with rounded corners*
0 $1 Rounding radius*
0 $2 $3 $4 $5 $6 $7 $8 $9 X,Y pos of 4 corners*
0 Add a 4 corners polygon primitive as box body*
4,1,4,$2,$3,$4,$5,$6,$7,$8,$9,$2,$3,0*
0 Add four circle primitives for the rounded corners*
1,1,$1+$1,$2,$3*
1,1,$1+$1,$4,$5*
1,1,$1+$1,$6,$7*
1,1,$1+$1,$8,$9*
0 Add four rect primitives between the rounded corners*
20,1,$1+$1,$2,$3,$4,$5,0*
20,1,$1+$1,$4,$5,$6,$7,0*
20,1,$1+$1,$6,$7,$8,$9,0*
20,1,$1+$1,$8,$9,$2,$3,0*%
G04 Aperture macros list end*
%ADD10C,0.064000*%
%ADD11C,0.120000*%
%ADD12R,7.500000X1.360000*%
%ADD13R,6.500000X1.360000*%
%ADD14RoundRect,0.200000X-0.200000X-0.275000X0.200000X-0.275000X0.200000X0.275000X-0.200000X0.275000X0*%
%ADD15RoundRect,0.225000X-0.225000X-0.250000X0.225000X-0.250000X0.225000X0.250000X-0.225000X0.250000X0*%
%ADD16C,1.000000*%
%ADD17RoundRect,0.200000X0.275000X-0.200000X0.275000X0.200000X-0.275000X0.200000X-0.275000X-0.200000X0*%
%ADD18RoundRect,0.200000X-0.275000X0.200000X-0.275000X-0.200000X0.275000X-0.200000X0.275000X0.200000X0*%
%ADD19RoundRect,0.225000X0.250000X-0.225000X0.250000X0.225000X-0.250000X0.225000X-0.250000X-0.225000X0*%
%ADD20RoundRect,0.100000X0.225000X0.100000X-0.225000X0.100000X-0.225000X-0.100000X0.225000X-0.100000X0*%
%ADD21R,0.300000X0.500000*%
%ADD22R,1.750000X1.050000*%
%ADD23RoundRect,0.062500X-0.062500X0.350000X-0.062500X-0.350000X0.062500X-0.350000X0.062500X0.350000X0*%
%ADD24RoundRect,0.062500X-0.350000X0.062500X-0.350000X-0.062500X0.350000X-0.062500X0.350000X0.062500X0*%
%ADD25R,2.600000X2.600000*%
%ADD26RoundRect,0.200000X0.200000X0.275000X-0.200000X0.275000X-0.200000X-0.275000X0.200000X-0.275000X0*%
%ADD27RoundRect,0.225000X0.225000X0.250000X-0.225000X0.250000X-0.225000X-0.250000X0.225000X-0.250000X0*%
%ADD28RoundRect,0.087500X0.087500X-0.537500X0.087500X0.537500X-0.087500X0.537500X-0.087500X-0.537500X0*%
%ADD29RoundRect,0.218750X0.256250X-0.218750X0.256250X0.218750X-0.256250X0.218750X-0.256250X-0.218750X0*%
G04 APERTURE END LIST*
D10*
X10153719Y-10108952D02*
X9417719Y-10108952D01*
X10153719Y-9758476D02*
X9417719Y-9758476D01*
X9417719Y-9758476D02*
X10153719Y-9337905D01*
X10153719Y-9337905D02*
X9417719Y-9337905D01*
X9768195Y-8742095D02*
X9768195Y-8987428D01*
X10153719Y-8987428D02*
X9417719Y-8987428D01*
X9417719Y-8987428D02*
X9417719Y-8636952D01*
X10153719Y-8356571D02*
X9417719Y-8356571D01*
X9417719Y-8356571D02*
X10153719Y-7936000D01*
X10153719Y-7936000D02*
X9417719Y-7936000D01*
X9417719Y-7445333D02*
X9417719Y-7305142D01*
X9417719Y-7305142D02*
X9452767Y-7235047D01*
X9452767Y-7235047D02*
X9522862Y-7164952D01*
X9522862Y-7164952D02*
X9663052Y-7129904D01*
X9663052Y-7129904D02*
X9908386Y-7129904D01*
X9908386Y-7129904D02*
X10048576Y-7164952D01*
X10048576Y-7164952D02*
X10118672Y-7235047D01*
X10118672Y-7235047D02*
X10153719Y-7305142D01*
X10153719Y-7305142D02*
X10153719Y-7445333D01*
X10153719Y-7445333D02*
X10118672Y-7515428D01*
X10118672Y-7515428D02*
X10048576Y-7585523D01*
X10048576Y-7585523D02*
X9908386Y-7620571D01*
X9908386Y-7620571D02*
X9663052Y-7620571D01*
X9663052Y-7620571D02*
X9522862Y-7585523D01*
X9522862Y-7585523D02*
X9452767Y-7515428D01*
X9452767Y-7515428D02*
X9417719Y-7445333D01*
X10153719Y-6814475D02*
X9417719Y-6814475D01*
X10118672Y-6499047D02*
X10153719Y-6393904D01*
X10153719Y-6393904D02*
X10153719Y-6218666D01*
X10153719Y-6218666D02*
X10118672Y-6148571D01*
X10118672Y-6148571D02*
X10083624Y-6113523D01*
X10083624Y-6113523D02*
X10013529Y-6078476D01*
X10013529Y-6078476D02*
X9943433Y-6078476D01*
X9943433Y-6078476D02*
X9873338Y-6113523D01*
X9873338Y-6113523D02*
X9838291Y-6148571D01*
X9838291Y-6148571D02*
X9803243Y-6218666D01*
X9803243Y-6218666D02*
X9768195Y-6358857D01*
X9768195Y-6358857D02*
X9733148Y-6428952D01*
X9733148Y-6428952D02*
X9698100Y-6463999D01*
X9698100Y-6463999D02*
X9628005Y-6499047D01*
X9628005Y-6499047D02*
X9557910Y-6499047D01*
X9557910Y-6499047D02*
X9487814Y-6463999D01*
X9487814Y-6463999D02*
X9452767Y-6428952D01*
X9452767Y-6428952D02*
X9417719Y-6358857D01*
X9417719Y-6358857D02*
X9417719Y-6183618D01*
X9417719Y-6183618D02*
X9452767Y-6078476D01*
X9768195Y-5763047D02*
X9768195Y-5517714D01*
X10153719Y-5412571D02*
X10153719Y-5763047D01*
X10153719Y-5763047D02*
X9417719Y-5763047D01*
X9417719Y-5763047D02*
X9417719Y-5412571D01*
X9417719Y-4641523D02*
X9417719Y-4220952D01*
X10153719Y-4431238D02*
X9417719Y-4431238D01*
X10153719Y-3555047D02*
X9803243Y-3800380D01*
X10153719Y-3975618D02*
X9417719Y-3975618D01*
X9417719Y-3975618D02*
X9417719Y-3695237D01*
X9417719Y-3695237D02*
X9452767Y-3625142D01*
X9452767Y-3625142D02*
X9487814Y-3590095D01*
X9487814Y-3590095D02*
X9557910Y-3555047D01*
X9557910Y-3555047D02*
X9663052Y-3555047D01*
X9663052Y-3555047D02*
X9733148Y-3590095D01*
X9733148Y-3590095D02*
X9768195Y-3625142D01*
X9768195Y-3625142D02*
X9803243Y-3695237D01*
X9803243Y-3695237D02*
X9803243Y-3975618D01*
X10153719Y-3239618D02*
X9417719Y-3239618D01*
X9417719Y-3239618D02*
X10153719Y-2819047D01*
X10153719Y-2819047D02*
X9417719Y-2819047D01*
X9452767Y-2083047D02*
X9417719Y-2153142D01*
X9417719Y-2153142D02*
X9417719Y-2258285D01*
X9417719Y-2258285D02*
X9452767Y-2363428D01*
X9452767Y-2363428D02*
X9522862Y-2433523D01*
X9522862Y-2433523D02*
X9592957Y-2468570D01*
X9592957Y-2468570D02*
X9733148Y-2503618D01*
X9733148Y-2503618D02*
X9838291Y-2503618D01*
X9838291Y-2503618D02*
X9978481Y-2468570D01*
X9978481Y-2468570D02*
X10048576Y-2433523D01*
X10048576Y-2433523D02*
X10118672Y-2363428D01*
X10118672Y-2363428D02*
X10153719Y-2258285D01*
X10153719Y-2258285D02*
X10153719Y-2188189D01*
X10153719Y-2188189D02*
X10118672Y-2083047D01*
X10118672Y-2083047D02*
X10083624Y-2047999D01*
X10083624Y-2047999D02*
X9838291Y-2047999D01*
X9838291Y-2047999D02*
X9838291Y-2188189D01*
D11*
%TO.C,R2*%
X11986542Y-6497300D02*
X12461058Y-6497300D01*
X11986542Y-7542300D02*
X12461058Y-7542300D01*
%TO.C,C5*%
X12083220Y-9009800D02*
X12364380Y-9009800D01*
X12083220Y-10029800D02*
X12364380Y-10029800D01*
%TO.C,R4*%
X20826300Y-2507058D02*
X20826300Y-2032542D01*
X21871300Y-2507058D02*
X21871300Y-2032542D01*
%TO.C,R1*%
X11986542Y-4497300D02*
X12461058Y-4497300D01*
X11986542Y-5542300D02*
X12461058Y-5542300D01*
%TO.C,R5*%
X22826300Y-9532542D02*
X22826300Y-10007058D01*
X23871300Y-9532542D02*
X23871300Y-10007058D01*
%TO.C,C4*%
X12083220Y-2009800D02*
X12364380Y-2009800D01*
X12083220Y-3029800D02*
X12364380Y-3029800D01*
%TO.C,C8*%
X22838800Y-6160380D02*
X22838800Y-5879220D01*
X23858800Y-6160380D02*
X23858800Y-5879220D01*
%TO.C,SW2*%
X28548800Y-8359800D02*
X27148800Y-8359800D01*
X28558800Y-10679800D02*
X27148800Y-10679800D01*
X29168800Y-10959800D02*
X28688800Y-10959800D01*
X28928800Y-10629800D01*
X29168800Y-10959800D01*
G36*
X29168800Y-10959800D02*
G01*
X28688800Y-10959800D01*
X28928800Y-10629800D01*
X29168800Y-10959800D01*
G37*
%TO.C,C7*%
X20838800Y-6160380D02*
X20838800Y-5879220D01*
X21858800Y-6160380D02*
X21858800Y-5879220D01*
%TO.C,C1*%
X14138800Y-10535380D02*
X14138800Y-10254220D01*
X15158800Y-10535380D02*
X15158800Y-10254220D01*
%TO.C,AMP1*%
X28998800Y-7019800D02*
X28998800Y-5019800D01*
X31198800Y-7019800D02*
X31198800Y-5019800D01*
X29008800Y-7639800D02*
X28728800Y-7359800D01*
X29008800Y-7359800D01*
X29008800Y-7639800D01*
G36*
X29008800Y-7639800D02*
G01*
X28728800Y-7359800D01*
X29008800Y-7359800D01*
X29008800Y-7639800D01*
G37*
%TO.C,USB1*%
X14738800Y-3986000D02*
X15213800Y-3986000D01*
X14738800Y-4461000D02*
X14738800Y-3986000D01*
X14738800Y-8206000D02*
X14738800Y-7731000D01*
X15213800Y-8206000D02*
X14738800Y-8206000D01*
X18483800Y-3986000D02*
X18958800Y-3986000D01*
X18958800Y-3986000D02*
X18958800Y-4461000D01*
X18958800Y-7731000D02*
X18958800Y-8206000D01*
X18958800Y-8206000D02*
X18483800Y-8206000D01*
X18098800Y-3486000D02*
X17858800Y-3156000D01*
X18338800Y-3156000D01*
X18098800Y-3486000D01*
G36*
X18098800Y-3486000D02*
G01*
X17858800Y-3156000D01*
X18338800Y-3156000D01*
X18098800Y-3486000D01*
G37*
%TO.C,R3*%
X20826300Y-10007058D02*
X20826300Y-9532542D01*
X21871300Y-10007058D02*
X21871300Y-9532542D01*
%TO.C,C9*%
X32088800Y-6160380D02*
X32088800Y-5879220D01*
X33108800Y-6160380D02*
X33108800Y-5879220D01*
%TO.C,C3*%
X18708220Y-8782000D02*
X18989380Y-8782000D01*
X18708220Y-9802000D02*
X18989380Y-9802000D01*
%TO.C,R9*%
X17086058Y-374300D02*
X16611542Y-374300D01*
X17086058Y-1419300D02*
X16611542Y-1419300D01*
%TO.C,C6*%
X16989380Y-2161400D02*
X16708220Y-2161400D01*
X16989380Y-3181400D02*
X16708220Y-3181400D01*
%TO.C,SW1*%
X28548800Y-1359800D02*
X27148800Y-1359800D01*
X28558800Y-3679800D02*
X27148800Y-3679800D01*
X29168800Y-3959800D02*
X28688800Y-3959800D01*
X28928800Y-3629800D01*
X29168800Y-3959800D01*
G36*
X29168800Y-3959800D02*
G01*
X28688800Y-3959800D01*
X28928800Y-3629800D01*
X29168800Y-3959800D01*
G37*
%TO.C,COMP1*%
X24913800Y-7125368D02*
X24913800Y-4759800D01*
X27283800Y-4759800D02*
X27283800Y-7279800D01*
X24908800Y-7419800D02*
X24718800Y-7559800D01*
X24718800Y-7279800D01*
X24908800Y-7419800D01*
G36*
X24908800Y-7419800D02*
G01*
X24718800Y-7559800D01*
X24718800Y-7279800D01*
X24908800Y-7419800D01*
G37*
%TO.C,L1*%
X15913800Y-10557579D02*
X15913800Y-10232021D01*
X16933800Y-10557579D02*
X16933800Y-10232021D01*
%TO.C,C2*%
X18708220Y-10759800D02*
X18989380Y-10759800D01*
X18708220Y-11779800D02*
X18989380Y-11779800D01*
%TO.C,R8*%
X32076300Y-9532542D02*
X32076300Y-10007058D01*
X33121300Y-9532542D02*
X33121300Y-10007058D01*
%TO.C,R6*%
X22826300Y-2507058D02*
X22826300Y-2032542D01*
X23871300Y-2507058D02*
X23871300Y-2032542D01*
%TO.C,R7*%
X32076300Y-2032542D02*
X32076300Y-2507058D01*
X33121300Y-2032542D02*
X33121300Y-2507058D01*
%TD*%
%LPC*%
D12*
%TO.C,X1*%
X4880000Y-9596000D03*
D13*
X5380000Y-7096000D03*
X5380000Y-5096000D03*
D12*
X4880000Y-2596000D03*
%TD*%
D14*
%TO.C,R2*%
X11398800Y-7019800D03*
X13048800Y-7019800D03*
%TD*%
D15*
%TO.C,C5*%
X11448800Y-9519800D03*
X12998800Y-9519800D03*
%TD*%
D16*
%TO.C,FID3*%
X34086800Y-762000D03*
%TD*%
%TO.C,FID2*%
X9652000Y-762000D03*
%TD*%
D17*
%TO.C,R4*%
X21348800Y-3094800D03*
X21348800Y-1444800D03*
%TD*%
D14*
%TO.C,R1*%
X11398800Y-5019800D03*
X13048800Y-5019800D03*
%TD*%
D18*
%TO.C,R5*%
X23348800Y-8944800D03*
X23348800Y-10594800D03*
%TD*%
D15*
%TO.C,C4*%
X11448800Y-2519800D03*
X12998800Y-2519800D03*
%TD*%
D19*
%TO.C,C8*%
X23348800Y-6794800D03*
X23348800Y-5244800D03*
%TD*%
D20*
%TO.C,SW2*%
X28798800Y-10169800D03*
X28798800Y-9519800D03*
X28798800Y-8869800D03*
X26898800Y-8869800D03*
X26898800Y-10169800D03*
%TD*%
D19*
%TO.C,C7*%
X21348800Y-6794800D03*
X21348800Y-5244800D03*
%TD*%
%TO.C,C1*%
X14648800Y-11169800D03*
X14648800Y-9619800D03*
%TD*%
D21*
%TO.C,AMP1*%
X29348800Y-6919800D03*
X29848800Y-6919800D03*
X30348800Y-6919800D03*
X30848800Y-6919800D03*
X30848800Y-5119800D03*
X30348800Y-5119800D03*
X29848800Y-5119800D03*
X29348800Y-5119800D03*
D22*
X30098800Y-6019800D03*
%TD*%
D23*
%TO.C,USB1*%
X18098800Y-4158500D03*
X17598800Y-4158500D03*
X17098800Y-4158500D03*
X16598800Y-4158500D03*
X16098800Y-4158500D03*
X15598800Y-4158500D03*
D24*
X14911300Y-4846000D03*
X14911300Y-5346000D03*
X14911300Y-5846000D03*
X14911300Y-6346000D03*
X14911300Y-6846000D03*
X14911300Y-7346000D03*
D23*
X15598800Y-8033500D03*
X16098800Y-8033500D03*
X16598800Y-8033500D03*
X17098800Y-8033500D03*
X17598800Y-8033500D03*
X18098800Y-8033500D03*
D24*
X18786300Y-7346000D03*
X18786300Y-6846000D03*
X18786300Y-6346000D03*
X18786300Y-5846000D03*
X18786300Y-5346000D03*
X18786300Y-4846000D03*
D25*
X16848800Y-6096000D03*
%TD*%
D17*
%TO.C,R3*%
X21348800Y-10594800D03*
X21348800Y-8944800D03*
%TD*%
D19*
%TO.C,C9*%
X32598800Y-6794800D03*
X32598800Y-5244800D03*
%TD*%
D15*
%TO.C,C3*%
X18073800Y-9292000D03*
X19623800Y-9292000D03*
%TD*%
D26*
%TO.C,R9*%
X17673800Y-896800D03*
X16023800Y-896800D03*
%TD*%
D27*
%TO.C,C6*%
X17623800Y-2671400D03*
X16073800Y-2671400D03*
%TD*%
D20*
%TO.C,SW1*%
X28798800Y-3169800D03*
X28798800Y-2519800D03*
X28798800Y-1869800D03*
X26898800Y-1869800D03*
X26898800Y-3169800D03*
%TD*%
D28*
%TO.C,COMP1*%
X25348800Y-7419800D03*
X25848800Y-7419800D03*
X26348800Y-7419800D03*
X26848800Y-7419800D03*
X26848800Y-4619800D03*
X26348800Y-4619800D03*
X25848800Y-4619800D03*
X25348800Y-4619800D03*
%TD*%
D29*
%TO.C,L1*%
X16423800Y-11182300D03*
X16423800Y-9607300D03*
%TD*%
D15*
%TO.C,C2*%
X18073800Y-11269800D03*
X19623800Y-11269800D03*
%TD*%
D18*
%TO.C,R8*%
X32598800Y-8944800D03*
X32598800Y-10594800D03*
%TD*%
D17*
%TO.C,R6*%
X23348800Y-3094800D03*
X23348800Y-1444800D03*
%TD*%
D18*
%TO.C,R7*%
X32598800Y-1444800D03*
X32598800Y-3094800D03*
%TD*%
D16*
%TO.C,FID1*%
X9652000Y-11430000D03*
%TD*%
%LPD*%
M02*
