M48
; DRILL file {KiCad 9.0.5} date 2025-10-20T11:02:32-0700
; FORMAT={-:-/ absolute / inch / decimal}
; #@! TF.CreationDate,2025-10-20T11:02:32-07:00
; #@! TF.GenerationSoftware,Kicad,Pcbnew,9.0.5
; #@! TF.FileFunction,Plated,1,2,PTH
FMAT,2
INCH
; #@! TA.AperFunction,Plated,PTH,ViaDrill
T1C0.0130
%
G90
G05
T1
X0.4154Y-0.3256
X0.4161Y-0.1484
X0.4813Y-0.3256
X0.5846Y-0.3157
X0.5868Y-0.1638
X0.742Y-0.405
X0.7431Y-0.1454
X0.7519Y-0.0598
X0.7913Y-0.237
X0.7913Y-0.2764
X0.7913Y-0.3157
X0.8011Y-0.0894
X0.8011Y-0.1583
X0.8799Y-0.1632
X0.8799Y-0.3846
X0.8799Y-0.4486
X0.961Y-0.047
X0.9635Y-0.3108
X0.9635Y-0.424
X0.9685Y-0.2075
X0.9685Y-0.2468
X0.9745Y-0.0805
X0.9881Y-0.3945
X1.0078Y-0.1287
X1.0178Y-0.0717
X1.0295Y-0.331
X1.0334Y-0.4515
X1.0669Y-0.237
X1.0964Y-0.1779
X1.0964Y-0.424
X1.1259Y-0.2384
X1.168Y-0.358
X1.1702Y-0.0992
X1.2096Y-0.0795
X1.2244Y-0.3157
X1.2342Y-0.4191
X1.249Y-0.1632
X1.332Y-0.069
M30
