%TF.GenerationSoftware,KiCad,Pcbnew,9.0.5*%
%TF.CreationDate,2025-10-20T11:02:32-07:00*%
%TF.ProjectId,infnoise_goldfingers,696e666e-6f69-4736-955f-676f6c646669,rev?*%
%TF.SameCoordinates,Original*%
%TF.FileFunction,Copper,L1,Top*%
%TF.FilePolarity,Positive*%
%FSLAX46Y46*%
G04 Gerber Fmt 4.6, Leading zero omitted, Abs format (unit mm)*
G04 Created by KiCad (PCBNEW 9.0.5) date 2025-10-20 11:02:32*
%MOMM*%
%LPD*%
G01*
G04 APERTURE LIST*
G04 Aperture macros list*
%AMRoundRect*
0 Rectangle with rounded corners*
0 $1 Rounding radius*
0 $2 $3 $4 $5 $6 $7 $8 $9 X,Y pos of 4 corners*
0 Add a 4 corners polygon primitive as box body*
4,1,4,$2,$3,$4,$5,$6,$7,$8,$9,$2,$3,0*
0 Add four circle primitives for the rounded corners*
1,1,$1+$1,$2,$3*
1,1,$1+$1,$4,$5*
1,1,$1+$1,$6,$7*
1,1,$1+$1,$8,$9*
0 Add four rect primitives between the rounded corners*
20,1,$1+$1,$2,$3,$4,$5,0*
20,1,$1+$1,$4,$5,$6,$7,0*
20,1,$1+$1,$6,$7,$8,$9,0*
20,1,$1+$1,$8,$9,$2,$3,0*%
G04 Aperture macros list end*
%TA.AperFunction,SMDPad,CuDef*%
%ADD10R,7.500000X1.360000*%
%TD*%
%TA.AperFunction,SMDPad,CuDef*%
%ADD11R,6.500000X1.360000*%
%TD*%
%TA.AperFunction,SMDPad,CuDef*%
%ADD12RoundRect,0.200000X-0.200000X-0.275000X0.200000X-0.275000X0.200000X0.275000X-0.200000X0.275000X0*%
%TD*%
%TA.AperFunction,SMDPad,CuDef*%
%ADD13RoundRect,0.225000X-0.225000X-0.250000X0.225000X-0.250000X0.225000X0.250000X-0.225000X0.250000X0*%
%TD*%
%TA.AperFunction,SMDPad,CuDef*%
%ADD14C,0.500000*%
%TD*%
%TA.AperFunction,SMDPad,CuDef*%
%ADD15RoundRect,0.200000X0.275000X-0.200000X0.275000X0.200000X-0.275000X0.200000X-0.275000X-0.200000X0*%
%TD*%
%TA.AperFunction,SMDPad,CuDef*%
%ADD16RoundRect,0.200000X-0.275000X0.200000X-0.275000X-0.200000X0.275000X-0.200000X0.275000X0.200000X0*%
%TD*%
%TA.AperFunction,SMDPad,CuDef*%
%ADD17RoundRect,0.225000X0.250000X-0.225000X0.250000X0.225000X-0.250000X0.225000X-0.250000X-0.225000X0*%
%TD*%
%TA.AperFunction,SMDPad,CuDef*%
%ADD18RoundRect,0.100000X0.225000X0.100000X-0.225000X0.100000X-0.225000X-0.100000X0.225000X-0.100000X0*%
%TD*%
%TA.AperFunction,SMDPad,CuDef*%
%ADD19R,0.300000X0.500000*%
%TD*%
%TA.AperFunction,SMDPad,CuDef*%
%ADD20R,1.750000X1.050000*%
%TD*%
%TA.AperFunction,SMDPad,CuDef*%
%ADD21RoundRect,0.062500X-0.062500X0.350000X-0.062500X-0.350000X0.062500X-0.350000X0.062500X0.350000X0*%
%TD*%
%TA.AperFunction,SMDPad,CuDef*%
%ADD22RoundRect,0.062500X-0.350000X0.062500X-0.350000X-0.062500X0.350000X-0.062500X0.350000X0.062500X0*%
%TD*%
%TA.AperFunction,HeatsinkPad*%
%ADD23R,2.600000X2.600000*%
%TD*%
%TA.AperFunction,SMDPad,CuDef*%
%ADD24RoundRect,0.200000X0.200000X0.275000X-0.200000X0.275000X-0.200000X-0.275000X0.200000X-0.275000X0*%
%TD*%
%TA.AperFunction,SMDPad,CuDef*%
%ADD25RoundRect,0.225000X0.225000X0.250000X-0.225000X0.250000X-0.225000X-0.250000X0.225000X-0.250000X0*%
%TD*%
%TA.AperFunction,SMDPad,CuDef*%
%ADD26RoundRect,0.087500X0.087500X-0.537500X0.087500X0.537500X-0.087500X0.537500X-0.087500X-0.537500X0*%
%TD*%
%TA.AperFunction,SMDPad,CuDef*%
%ADD27RoundRect,0.218750X0.256250X-0.218750X0.256250X0.218750X-0.256250X0.218750X-0.256250X-0.218750X0*%
%TD*%
%TA.AperFunction,ViaPad*%
%ADD28C,0.685800*%
%TD*%
%TA.AperFunction,Conductor*%
%ADD29C,0.254000*%
%TD*%
%TA.AperFunction,Conductor*%
%ADD30C,0.609600*%
%TD*%
%TA.AperFunction,Conductor*%
%ADD31C,0.200000*%
%TD*%
%TA.AperFunction,Conductor*%
%ADD32C,0.406400*%
%TD*%
%TA.AperFunction,Conductor*%
%ADD33C,0.304800*%
%TD*%
%TA.AperFunction,Conductor*%
%ADD34C,0.762000*%
%TD*%
G04 APERTURE END LIST*
D10*
%TO.P,X1,1,VBUS*%
%TO.N,Net-(X1-VBUS)*%
X4880000Y-9596000D03*
D11*
%TO.P,X1,2,D-*%
%TO.N,Net-(X1-D-)*%
X5380000Y-7096000D03*
%TO.P,X1,3,D+*%
%TO.N,Net-(X1-D+)*%
X5380000Y-5096000D03*
D10*
%TO.P,X1,4,GND*%
%TO.N,GND*%
X4880000Y-2596000D03*
%TD*%
D12*
%TO.P,R2,1*%
%TO.N,Net-(X1-D-)*%
X11398800Y-7019800D03*
%TO.P,R2,2*%
%TO.N,Net-(USB1-USBDM)*%
X13048800Y-7019800D03*
%TD*%
D13*
%TO.P,C5,1*%
%TO.N,Net-(X1-D-)*%
X11448800Y-9519800D03*
%TO.P,C5,2*%
%TO.N,GND*%
X12998800Y-9519800D03*
%TD*%
D14*
%TO.P,FID3,*%
%TO.N,*%
X34086800Y-762000D03*
%TD*%
%TO.P,FID2,*%
%TO.N,*%
X9652000Y-762000D03*
%TD*%
D15*
%TO.P,R4,1*%
%TO.N,GND*%
X21348800Y-3094800D03*
%TO.P,R4,2*%
%TO.N,/VREF*%
X21348800Y-1444800D03*
%TD*%
D12*
%TO.P,R1,1*%
%TO.N,Net-(X1-D+)*%
X11398800Y-5019800D03*
%TO.P,R1,2*%
%TO.N,Net-(USB1-USBDP)*%
X13048800Y-5019800D03*
%TD*%
D16*
%TO.P,R5,1*%
%TO.N,/COMP1*%
X23348800Y-8944800D03*
%TO.P,R5,2*%
%TO.N,Net-(AMP1A--)*%
X23348800Y-10594800D03*
%TD*%
D13*
%TO.P,C4,1*%
%TO.N,Net-(X1-D+)*%
X11448800Y-2519800D03*
%TO.P,C4,2*%
%TO.N,GND*%
X12998800Y-2519800D03*
%TD*%
D17*
%TO.P,C8,1*%
%TO.N,GND*%
X23348800Y-6794800D03*
%TO.P,C8,2*%
%TO.N,/A*%
X23348800Y-5244800D03*
%TD*%
D18*
%TO.P,SW2,1*%
%TO.N,Net-(AMP1-Pad1)*%
X28798800Y-10169800D03*
%TO.P,SW2,2*%
%TO.N,/B*%
X28798800Y-9519800D03*
%TO.P,SW2,3,GND*%
%TO.N,GND*%
X28798800Y-8869800D03*
%TO.P,SW2,4*%
%TO.N,/SW2EN*%
X26898800Y-8869800D03*
%TO.P,SW2,5,VCC*%
%TO.N,+3.3V*%
X26898800Y-10169800D03*
%TD*%
D17*
%TO.P,C7,1*%
%TO.N,/VREF*%
X21348800Y-6794800D03*
%TO.P,C7,2*%
%TO.N,GND*%
X21348800Y-5244800D03*
%TD*%
%TO.P,C1,1*%
%TO.N,Net-(X1-VBUS)*%
X14648800Y-11169800D03*
%TO.P,C1,2*%
%TO.N,GND*%
X14648800Y-9619800D03*
%TD*%
D19*
%TO.P,AMP1,1*%
%TO.N,Net-(AMP1-Pad1)*%
X29348800Y-6919800D03*
%TO.P,AMP1,2,-*%
%TO.N,Net-(AMP1A--)*%
X29848800Y-6919800D03*
%TO.P,AMP1,3,+*%
%TO.N,/A*%
X30348800Y-6919800D03*
%TO.P,AMP1,4,V-*%
%TO.N,GND*%
X30848800Y-6919800D03*
%TO.P,AMP1,5,+*%
%TO.N,/B*%
X30848800Y-5119800D03*
%TO.P,AMP1,6,-*%
%TO.N,Net-(AMP1B--)*%
X30348800Y-5119800D03*
%TO.P,AMP1,7*%
%TO.N,Net-(AMP1-Pad7)*%
X29848800Y-5119800D03*
%TO.P,AMP1,8,V+*%
%TO.N,+3.3V*%
X29348800Y-5119800D03*
D20*
%TO.P,AMP1,9,PAD*%
%TO.N,GND*%
X30098800Y-6019800D03*
%TD*%
D21*
%TO.P,USB1,1,DATA1*%
%TO.N,/COMP1*%
X18098800Y-4158500D03*
%TO.P,USB1,2,DATA7*%
%TO.N,unconnected-(USB1-DATA7-Pad2)*%
X17598800Y-4158500D03*
%TO.P,USB1,3,GND*%
%TO.N,GND*%
X17098800Y-4158500D03*
%TO.P,USB1,4,DATA5*%
%TO.N,unconnected-(USB1-DATA5-Pad4)*%
X16598800Y-4158500D03*
%TO.P,USB1,5,DATA6*%
%TO.N,unconnected-(USB1-DATA6-Pad5)*%
X16098800Y-4158500D03*
%TO.P,USB1,6,DATA3*%
%TO.N,unconnected-(USB1-DATA3-Pad6)*%
X15598800Y-4158500D03*
D22*
%TO.P,USB1,7,~{SI/WU}*%
%TO.N,GND*%
X14911300Y-4846000D03*
%TO.P,USB1,8,~{RD}*%
X14911300Y-5346000D03*
%TO.P,USB1,9,~{WR}*%
X14911300Y-5846000D03*
%TO.P,USB1,10,USBDP*%
%TO.N,Net-(USB1-USBDP)*%
X14911300Y-6346000D03*
%TO.P,USB1,11,USBDM*%
%TO.N,Net-(USB1-USBDM)*%
X14911300Y-6846000D03*
%TO.P,USB1,12,3V3OUT*%
%TO.N,+3.3V*%
X14911300Y-7346000D03*
D21*
%TO.P,USB1,13,~{RESET}*%
X15598800Y-8033500D03*
%TO.P,USB1,14,VCORE*%
%TO.N,unconnected-(USB1-VCORE-Pad14)*%
X16098800Y-8033500D03*
%TO.P,USB1,15,VCC*%
%TO.N,+5V*%
X16598800Y-8033500D03*
%TO.P,USB1,16,GND*%
%TO.N,GND*%
X17098800Y-8033500D03*
%TO.P,USB1,17,~{TXE}*%
%TO.N,unconnected-(USB1-~{TXE}-Pad17)*%
X17598800Y-8033500D03*
%TO.P,USB1,18,~{RXF}*%
%TO.N,unconnected-(USB1-~{RXF}-Pad18)*%
X18098800Y-8033500D03*
D22*
%TO.P,USB1,19,CBUS6*%
%TO.N,unconnected-(USB1-CBUS6-Pad19)*%
X18786300Y-7346000D03*
%TO.P,USB1,20,CBUS5*%
%TO.N,unconnected-(USB1-CBUS5-Pad20)*%
X18786300Y-6846000D03*
%TO.P,USB1,21,DATA0*%
%TO.N,/SW2EN*%
X18786300Y-6346000D03*
%TO.P,USB1,22,DATA4*%
%TO.N,/COMP2*%
X18786300Y-5846000D03*
%TO.P,USB1,23,DATA2*%
%TO.N,/SW1EN*%
X18786300Y-5346000D03*
%TO.P,USB1,24,VCCIO*%
%TO.N,+3.3V*%
X18786300Y-4846000D03*
D23*
%TO.P,USB1,25,GND*%
%TO.N,GND*%
X16848800Y-6096000D03*
%TD*%
D15*
%TO.P,R3,1*%
%TO.N,+3.3V*%
X21348800Y-10594800D03*
%TO.P,R3,2*%
%TO.N,/VREF*%
X21348800Y-8944800D03*
%TD*%
D17*
%TO.P,C9,1*%
%TO.N,GND*%
X32598800Y-6794800D03*
%TO.P,C9,2*%
%TO.N,/B*%
X32598800Y-5244800D03*
%TD*%
D13*
%TO.P,C3,1*%
%TO.N,+5V*%
X18073800Y-9292000D03*
%TO.P,C3,2*%
%TO.N,GND*%
X19623800Y-9292000D03*
%TD*%
D24*
%TO.P,R9,1*%
%TO.N,Net-(AMP1-Pad1)*%
X17673800Y-896800D03*
%TO.P,R9,2*%
%TO.N,+3.3V*%
X16023800Y-896800D03*
%TD*%
D25*
%TO.P,C6,1*%
%TO.N,+3.3V*%
X17623800Y-2671400D03*
%TO.P,C6,2*%
%TO.N,GND*%
X16073800Y-2671400D03*
%TD*%
D18*
%TO.P,SW1,1*%
%TO.N,Net-(AMP1-Pad7)*%
X28798800Y-3169800D03*
%TO.P,SW1,2*%
%TO.N,/A*%
X28798800Y-2519800D03*
%TO.P,SW1,3,GND*%
%TO.N,GND*%
X28798800Y-1869800D03*
%TO.P,SW1,4*%
%TO.N,/SW1EN*%
X26898800Y-1869800D03*
%TO.P,SW1,5,VCC*%
%TO.N,+3.3V*%
X26898800Y-3169800D03*
%TD*%
D26*
%TO.P,COMP1,1*%
%TO.N,/COMP1*%
X25348800Y-7419800D03*
%TO.P,COMP1,2,-*%
%TO.N,/VREF*%
X25848800Y-7419800D03*
%TO.P,COMP1,3,+*%
%TO.N,/A*%
X26348800Y-7419800D03*
%TO.P,COMP1,4,V-*%
%TO.N,GND*%
X26848800Y-7419800D03*
%TO.P,COMP1,5,+*%
%TO.N,/B*%
X26848800Y-4619800D03*
%TO.P,COMP1,6,-*%
%TO.N,/VREF*%
X26348800Y-4619800D03*
%TO.P,COMP1,7*%
%TO.N,/COMP2*%
X25848800Y-4619800D03*
%TO.P,COMP1,8,V+*%
%TO.N,+3.3V*%
X25348800Y-4619800D03*
%TD*%
D27*
%TO.P,L1,1,1*%
%TO.N,Net-(X1-VBUS)*%
X16423800Y-11182300D03*
%TO.P,L1,2,2*%
%TO.N,+5V*%
X16423800Y-9607300D03*
%TD*%
D13*
%TO.P,C2,1*%
%TO.N,+5V*%
X18073800Y-11269800D03*
%TO.P,C2,2*%
%TO.N,GND*%
X19623800Y-11269800D03*
%TD*%
D16*
%TO.P,R8,1*%
%TO.N,Net-(AMP1B--)*%
X32598800Y-8944800D03*
%TO.P,R8,2*%
%TO.N,/COMP2*%
X32598800Y-10594800D03*
%TD*%
D15*
%TO.P,R6,1*%
%TO.N,Net-(AMP1A--)*%
X23348800Y-3094800D03*
%TO.P,R6,2*%
%TO.N,Net-(AMP1-Pad1)*%
X23348800Y-1444800D03*
%TD*%
D16*
%TO.P,R7,1*%
%TO.N,Net-(AMP1-Pad7)*%
X32598800Y-1444800D03*
%TO.P,R7,2*%
%TO.N,Net-(AMP1B--)*%
X32598800Y-3094800D03*
%TD*%
D14*
%TO.P,FID1,*%
%TO.N,*%
X9652000Y-11430000D03*
%TD*%
D28*
%TO.N,/B*%
X31723800Y-4144800D03*
X27848800Y-4519800D03*
%TO.N,GND*%
X28598800Y-6054600D03*
X12223800Y-8269800D03*
X10568000Y-3769800D03*
X26249200Y-11467000D03*
X33832800Y-1752600D03*
X18846800Y-10287000D03*
X30723800Y-2019800D03*
X14905600Y-4159400D03*
X27098800Y-6019800D03*
X24473800Y-7894800D03*
X10550600Y-8269800D03*
%TO.N,+3.3V*%
X24753200Y-2045200D03*
X22348800Y-11394800D03*
X14848800Y-8019800D03*
X19098800Y-1519800D03*
%TO.N,/A*%
X29723800Y-2519800D03*
X31098800Y-8019800D03*
X26149300Y-8407400D03*
X24598800Y-5269800D03*
%TO.N,/VREF*%
X20348800Y-2269800D03*
X25598800Y-3269800D03*
X20098800Y-8019800D03*
%TO.N,/COMP1*%
X18874200Y-3693600D03*
X22348800Y-9769800D03*
%TO.N,/COMP2*%
X24598800Y-6269800D03*
X20098800Y-6019800D03*
X31348800Y-10644800D03*
%TO.N,/SW1EN*%
X25852800Y-1820600D03*
X20348800Y-4019800D03*
%TO.N,/SW2EN*%
X20098800Y-7019800D03*
X25098800Y-10019800D03*
%TO.N,Net-(AMP1-Pad1)*%
X29667200Y-9093200D03*
X24409400Y-1193800D03*
%TO.N,Net-(AMP1A--)*%
X27848800Y-10769800D03*
X22348800Y-4144800D03*
X24473800Y-10769800D03*
%TD*%
D29*
%TO.N,/B*%
X26848800Y-4669800D02*
X27698800Y-4669800D01*
X30848800Y-4994800D02*
X31723800Y-4994800D01*
X28698800Y-9519800D02*
X28098800Y-9519800D01*
X27698800Y-4669800D02*
X27848800Y-4519800D01*
X28098800Y-9519800D02*
X27848800Y-9269800D01*
X31723800Y-4994800D02*
X32423800Y-4994800D01*
X27848800Y-9269800D02*
X27848800Y-4519800D01*
X32423800Y-4994800D02*
X32598800Y-5169800D01*
X31723800Y-4144800D02*
X31723800Y-4994800D01*
%TO.N,GND*%
X14960600Y-5740400D02*
X14948800Y-5846000D01*
X17098800Y-7996000D02*
X17098800Y-6269800D01*
X16700400Y-5846000D02*
X16848800Y-6096000D01*
X17098800Y-5769800D02*
X16848800Y-6096000D01*
X14448800Y-9519800D02*
X13073800Y-9519800D01*
D30*
X4880000Y-2596000D02*
X9394200Y-2596000D01*
X9394200Y-2596000D02*
X10568000Y-3769800D01*
D29*
X14960600Y-5359400D02*
X14948800Y-5346000D01*
X17094200Y-3937000D02*
X17094200Y-3683000D01*
D30*
X9931400Y-2590800D02*
X9931400Y-2616200D01*
D29*
X14960600Y-5740400D02*
X14960600Y-5359400D01*
X17098800Y-4196000D02*
X17098800Y-5769800D01*
D30*
X8559800Y-2590800D02*
X9931400Y-2590800D01*
D29*
X17098800Y-6269800D02*
X16848800Y-6096000D01*
X21348800Y-5169800D02*
X21348800Y-3119800D01*
X17098800Y-3937000D02*
X17098800Y-4196000D01*
X14948800Y-5846000D02*
X16700400Y-5846000D01*
X17094200Y-3937000D02*
X17098800Y-3937000D01*
X14648800Y-9544800D02*
X14448800Y-9519800D01*
X17094200Y-3683000D02*
X16408400Y-2997200D01*
%TO.N,+3.3V*%
X17698800Y-2671400D02*
X18089200Y-2358000D01*
X26998800Y-3169800D02*
X27498800Y-3169800D01*
X19598800Y-2019800D02*
X19098800Y-1519800D01*
X25348800Y-2519800D02*
X24772600Y-2502400D01*
X22348800Y-11394800D02*
X22598800Y-11644800D01*
X15998800Y-896800D02*
X17698800Y-2671400D01*
X24772600Y-2502400D02*
X24753200Y-2045200D01*
X29348800Y-4994800D02*
X29348800Y-4019800D01*
X29098800Y-3769800D02*
X28098800Y-3769800D01*
X19598800Y-4519800D02*
X19598800Y-2019800D01*
X24804000Y-3551200D02*
X24753200Y-2045200D01*
X25348800Y-4669800D02*
X25348800Y-4019800D01*
X26723800Y-2519800D02*
X25348800Y-2519800D01*
X26998800Y-2794800D02*
X26723800Y-2519800D01*
X21348800Y-10619800D02*
X22200000Y-11293200D01*
X27498800Y-3169800D02*
X28098800Y-3769800D01*
X18748800Y-4846000D02*
X19221800Y-4846000D01*
X29348800Y-4019800D02*
X29098800Y-3769800D01*
X26448800Y-10169800D02*
X24973800Y-11644800D01*
X22200000Y-11293200D02*
X22348800Y-11394800D01*
X26998800Y-10169800D02*
X26448800Y-10169800D01*
X19221800Y-4846000D02*
X19598800Y-4519800D01*
X14948800Y-7346000D02*
X14948800Y-7996000D01*
X26998800Y-3169800D02*
X26998800Y-2794800D01*
X18089200Y-2358000D02*
X19098800Y-1519800D01*
X15598800Y-7996000D02*
X14948800Y-7996000D01*
X22598800Y-11644800D02*
X24973800Y-11644800D01*
X25348800Y-4019800D02*
X24804000Y-3551200D01*
X14948800Y-7996000D02*
X14848800Y-8019800D01*
D31*
%TO.N,/A*%
X26149300Y-8407400D02*
X26348800Y-8207900D01*
D29*
X23348800Y-5169800D02*
X23448800Y-5269800D01*
X23448800Y-5269800D02*
X24598800Y-5269800D01*
X30348800Y-7769800D02*
X30598800Y-8019800D01*
D31*
X26348800Y-8207900D02*
X26348800Y-7419800D01*
D29*
X28698800Y-2519800D02*
X29723800Y-2519800D01*
X30348800Y-7044800D02*
X30348800Y-7769800D01*
X30598800Y-8019800D02*
X31098800Y-8019800D01*
D32*
%TO.N,Net-(X1-VBUS)*%
X14648800Y-11244800D02*
X14580000Y-11176000D01*
X14580000Y-11176000D02*
X10668000Y-11176000D01*
X10668000Y-11176000D02*
X9088000Y-9596000D01*
X9088000Y-9596000D02*
X4880000Y-9596000D01*
D29*
X16423800Y-11244800D02*
X14648800Y-11244800D01*
%TO.N,+5V*%
X17998800Y-9292000D02*
X17648800Y-9419800D01*
X16598800Y-7996000D02*
X16598800Y-9419800D01*
X17648800Y-9419800D02*
X16598800Y-9419800D01*
X17998800Y-11269800D02*
X17998800Y-9292000D01*
X16598800Y-9419800D02*
X16423800Y-9544800D01*
D33*
%TO.N,Net-(X1-D+)*%
X5456200Y-5019800D02*
X11373800Y-5019800D01*
D34*
X11471800Y-4992800D02*
X11373800Y-5019800D01*
D29*
X11373800Y-5019800D02*
X11373800Y-2519800D01*
X5380000Y-5096000D02*
X5456200Y-5096000D01*
X5456200Y-5096000D02*
X5456200Y-5019800D01*
D33*
%TO.N,Net-(X1-D-)*%
X5456200Y-7019800D02*
X11373800Y-7019800D01*
D29*
X5456200Y-7096000D02*
X5456200Y-7019800D01*
X5380000Y-7096000D02*
X5456200Y-7096000D01*
X11373800Y-7019800D02*
X11373800Y-9519800D01*
%TO.N,/VREF*%
X20498800Y-2269800D02*
X20348800Y-2269800D01*
X21348800Y-1419800D02*
X20498800Y-2269800D01*
X21348800Y-8919800D02*
X20448800Y-8019800D01*
X21348800Y-8919800D02*
X21348800Y-6869800D01*
X26348800Y-5769800D02*
X25848800Y-6269800D01*
X20448800Y-8019800D02*
X20098800Y-8019800D01*
X26348800Y-4019800D02*
X25598800Y-3269800D01*
X26348800Y-4669800D02*
X26348800Y-4019800D01*
X25848800Y-7369800D02*
X25848800Y-6269800D01*
X26348800Y-4669800D02*
X26348800Y-5769800D01*
%TO.N,/COMP1*%
X25348800Y-8519800D02*
X24948800Y-8919800D01*
X23348800Y-8919800D02*
X24948800Y-8919800D01*
X23198800Y-8919800D02*
X22348800Y-9769800D01*
X18098800Y-4196000D02*
X18092400Y-3688000D01*
X25348800Y-7369800D02*
X25348800Y-8519800D01*
X23348800Y-8919800D02*
X23198800Y-8919800D01*
X18092400Y-3688000D02*
X18874200Y-3693600D01*
%TO.N,/COMP2*%
X18748800Y-5846000D02*
X19848800Y-5846000D01*
X24848800Y-6269800D02*
X24598800Y-6269800D01*
X25848800Y-4669800D02*
X25848800Y-5269800D01*
X25848800Y-5269800D02*
X24848800Y-6269800D01*
X32598800Y-10619800D02*
X32573800Y-10644800D01*
X19848800Y-5846000D02*
X20098800Y-6019800D01*
X32573800Y-10644800D02*
X31348800Y-10644800D01*
%TO.N,Net-(USB1-USBDP)*%
X13198800Y-5119800D02*
X13073800Y-5019800D01*
X14348800Y-6346000D02*
X13198800Y-5119800D01*
X14948800Y-6346000D02*
X14348800Y-6346000D01*
%TO.N,Net-(USB1-USBDM)*%
X14948800Y-6846000D02*
X13423400Y-6846000D01*
X13423400Y-6846000D02*
X13073800Y-7019800D01*
%TO.N,/SW1EN*%
X19573400Y-5346000D02*
X20348800Y-4519800D01*
X18748800Y-5346000D02*
X19573400Y-5346000D01*
X20348800Y-4519800D02*
X20348800Y-4019800D01*
X25978200Y-1869800D02*
X25852800Y-1820600D01*
X26998800Y-1869800D02*
X25978200Y-1869800D01*
%TO.N,/SW2EN*%
X26998800Y-8869800D02*
X26998800Y-9369800D01*
X26998800Y-9369800D02*
X26848800Y-9519800D01*
X19399600Y-6346000D02*
X20098800Y-7019800D01*
X18748800Y-6346000D02*
X19399600Y-6346000D01*
X25598800Y-9519800D02*
X25098800Y-10019800D01*
X26848800Y-9519800D02*
X25598800Y-9519800D01*
%TO.N,Net-(AMP1-Pad1)*%
X22323800Y-521800D02*
X18973800Y-521800D01*
X29489400Y-9093200D02*
X29489400Y-10160000D01*
X29337000Y-7061200D02*
X29348800Y-7044800D01*
X23469600Y-1371600D02*
X23348800Y-1419800D01*
X29667200Y-9093200D02*
X29489400Y-9093200D01*
X18370200Y-541200D02*
X18973800Y-521800D01*
X29337000Y-7518400D02*
X29387800Y-7569200D01*
X29337000Y-7061200D02*
X29337000Y-7518400D01*
X17698800Y-896800D02*
X18370200Y-541200D01*
X29387800Y-8229600D02*
X29489400Y-8331200D01*
X29489400Y-8331200D02*
X29489400Y-9093200D01*
X29387800Y-7569200D02*
X29387800Y-8229600D01*
X23348800Y-1419800D02*
X22323800Y-521800D01*
X29489400Y-10160000D02*
X28702000Y-10160000D01*
X28702000Y-10160000D02*
X28698800Y-10169800D01*
X23469600Y-1371600D02*
X24409400Y-1193800D01*
%TO.N,Net-(AMP1B--)*%
X33448800Y-8919800D02*
X33598800Y-8769800D01*
X32598800Y-8919800D02*
X33448800Y-8919800D01*
X33598800Y-8769800D02*
X33598800Y-3269800D01*
X31623800Y-3119800D02*
X30348800Y-4394800D01*
X33448800Y-3119800D02*
X33598800Y-3269800D01*
X32598800Y-3119800D02*
X31623800Y-3119800D01*
X32598800Y-3119800D02*
X33448800Y-3119800D01*
X30348800Y-4994800D02*
X30348800Y-4394800D01*
%TO.N,Net-(AMP1A--)*%
X23348800Y-3119800D02*
X22448800Y-4019800D01*
X23623800Y-10769800D02*
X24473800Y-10769800D01*
X22448800Y-4019800D02*
X22348800Y-4144800D01*
X30569400Y-8969000D02*
X30569400Y-9410200D01*
X29848800Y-8019800D02*
X30569400Y-8969000D01*
X30569400Y-9410200D02*
X29819400Y-10769800D01*
X29848800Y-7044800D02*
X29848800Y-8019800D01*
X29819400Y-10769800D02*
X27848800Y-10769800D01*
X24473800Y-10769800D02*
X24471800Y-10767800D01*
X23348800Y-10619800D02*
X23623800Y-10769800D01*
%TO.N,Net-(AMP1-Pad7)*%
X29848800Y-4144800D02*
X29848800Y-4019800D01*
X29848800Y-3769800D02*
X29848800Y-3519800D01*
X30098800Y-3769800D02*
X29848800Y-3769800D01*
X32598800Y-1419800D02*
X32598800Y-1394800D01*
X30348800Y-3644800D02*
X30223800Y-3769800D01*
X29973800Y-3644800D02*
X30348800Y-3644800D01*
X29848800Y-4019800D02*
X29848800Y-3769800D01*
X29498800Y-3169800D02*
X29848800Y-3519800D01*
X30098800Y-3769800D02*
X29848800Y-4019800D01*
X30223800Y-3769800D02*
X30098800Y-3769800D01*
X29848800Y-4994800D02*
X29848800Y-4144800D01*
X29848800Y-3519800D02*
X29973800Y-3644800D01*
X29973800Y-3644800D02*
X30098800Y-3769800D01*
X28698800Y-3169800D02*
X29498800Y-3169800D01*
X32598800Y-1394800D02*
X30348800Y-3644800D01*
X30223800Y-3769800D02*
X29848800Y-4144800D01*
%TD*%
%TA.AperFunction,Conductor*%
%TO.N,GND*%
G36*
X18818804Y-93806D02*
G01*
X18837110Y-138000D01*
X18818804Y-182194D01*
X18776618Y-200468D01*
X18373044Y-213439D01*
X18373043Y-213438D01*
X18373043Y-213439D01*
X18370901Y-213507D01*
X18339071Y-212345D01*
X18327975Y-214886D01*
X18321925Y-215081D01*
X18321924Y-215080D01*
X18316592Y-215252D01*
X18316587Y-215253D01*
X18288118Y-223870D01*
X18286070Y-224489D01*
X18255017Y-231607D01*
X18244956Y-236935D01*
X18239169Y-238687D01*
X18239164Y-238689D01*
X18235728Y-239729D01*
X18234051Y-240237D01*
X18234047Y-240240D01*
X18208799Y-255917D01*
X18205083Y-258051D01*
X18153855Y-285184D01*
X18106233Y-289693D01*
X18096228Y-285641D01*
X17999108Y-236155D01*
X17999098Y-236152D01*
X17905332Y-221301D01*
X17905320Y-221300D01*
X17905319Y-221300D01*
X17905316Y-221300D01*
X17442285Y-221300D01*
X17442280Y-221301D01*
X17348495Y-236154D01*
X17348494Y-236154D01*
X17235457Y-293750D01*
X17145750Y-383457D01*
X17088154Y-496494D01*
X17088152Y-496501D01*
X17073301Y-590267D01*
X17073300Y-590283D01*
X17073300Y-1203314D01*
X17073301Y-1203319D01*
X17088154Y-1297104D01*
X17088154Y-1297105D01*
X17123157Y-1365801D01*
X17145750Y-1410142D01*
X17235458Y-1499850D01*
X17348496Y-1557446D01*
X17348499Y-1557446D01*
X17348501Y-1557447D01*
X17442267Y-1572298D01*
X17442269Y-1572298D01*
X17442281Y-1572300D01*
X17905318Y-1572299D01*
X17999104Y-1557446D01*
X18112142Y-1499850D01*
X18201850Y-1410142D01*
X18259446Y-1297104D01*
X18262598Y-1277201D01*
X18274298Y-1203332D01*
X18274298Y-1203331D01*
X18274300Y-1203319D01*
X18274299Y-1000211D01*
X18292605Y-956018D01*
X18307536Y-944987D01*
X18443708Y-872864D01*
X18470946Y-865630D01*
X18978069Y-849331D01*
X18980077Y-849300D01*
X20752020Y-849300D01*
X20796214Y-867606D01*
X20814520Y-911800D01*
X20796214Y-955994D01*
X20745750Y-1006457D01*
X20688154Y-1119494D01*
X20688152Y-1119501D01*
X20673301Y-1213267D01*
X20673300Y-1213283D01*
X20673300Y-1606256D01*
X20654994Y-1650450D01*
X20571021Y-1734422D01*
X20526827Y-1752728D01*
X20510651Y-1750598D01*
X20420346Y-1726401D01*
X20420341Y-1726400D01*
X20420340Y-1726400D01*
X20277260Y-1726400D01*
X20277259Y-1726400D01*
X20277253Y-1726401D01*
X20139058Y-1763430D01*
X20139049Y-1763434D01*
X20015148Y-1834969D01*
X19980882Y-1869235D01*
X19936687Y-1887540D01*
X19892493Y-1869234D01*
X19882562Y-1856290D01*
X19860867Y-1818714D01*
X19860865Y-1818710D01*
X19799890Y-1757735D01*
X19660506Y-1618351D01*
X19642200Y-1574157D01*
X19642200Y-1448261D01*
X19642198Y-1448253D01*
X19605169Y-1310058D01*
X19605165Y-1310049D01*
X19533630Y-1186148D01*
X19533623Y-1186139D01*
X19432460Y-1084976D01*
X19432451Y-1084969D01*
X19308550Y-1013434D01*
X19308541Y-1013430D01*
X19170346Y-976401D01*
X19170341Y-976400D01*
X19170340Y-976400D01*
X19027260Y-976400D01*
X19027259Y-976400D01*
X19027253Y-976401D01*
X18889058Y-1013430D01*
X18889049Y-1013434D01*
X18765148Y-1084969D01*
X18765139Y-1084976D01*
X18663976Y-1186139D01*
X18663969Y-1186148D01*
X18592434Y-1310049D01*
X18592430Y-1310058D01*
X18555401Y-1448253D01*
X18555400Y-1448261D01*
X18555400Y-1515944D01*
X18537094Y-1560138D01*
X18532823Y-1564031D01*
X18013522Y-1995170D01*
X17967826Y-2009316D01*
X17963822Y-2008813D01*
X17882301Y-1995901D01*
X17882289Y-1995900D01*
X17882288Y-1995900D01*
X17882286Y-1995900D01*
X17531899Y-1995900D01*
X17487705Y-1977594D01*
X17486766Y-1976635D01*
X16641666Y-1094450D01*
X16624299Y-1051215D01*
X16624299Y-590285D01*
X16624299Y-590283D01*
X16624299Y-590282D01*
X16609446Y-496496D01*
X16551850Y-383458D01*
X16462142Y-293750D01*
X16446227Y-285641D01*
X16349105Y-236154D01*
X16349098Y-236152D01*
X16255332Y-221301D01*
X16255320Y-221300D01*
X16255319Y-221300D01*
X16255316Y-221300D01*
X15792285Y-221300D01*
X15792280Y-221301D01*
X15698495Y-236154D01*
X15698494Y-236154D01*
X15585457Y-293750D01*
X15495750Y-383457D01*
X15438154Y-496494D01*
X15438152Y-496501D01*
X15423301Y-590267D01*
X15423300Y-590283D01*
X15423300Y-1203314D01*
X15423301Y-1203319D01*
X15438154Y-1297104D01*
X15438154Y-1297105D01*
X15473157Y-1365801D01*
X15495750Y-1410142D01*
X15585458Y-1499850D01*
X15698496Y-1557446D01*
X15698499Y-1557446D01*
X15698501Y-1557447D01*
X15792267Y-1572298D01*
X15792269Y-1572298D01*
X15792281Y-1572300D01*
X16165700Y-1572299D01*
X16209894Y-1590605D01*
X16210833Y-1591564D01*
X16398856Y-1787838D01*
X16416209Y-1832415D01*
X16396958Y-1876206D01*
X16352381Y-1893559D01*
X16346274Y-1893128D01*
X16340213Y-1892400D01*
X16225800Y-1892400D01*
X16225800Y-2519400D01*
X16827800Y-2519400D01*
X16827800Y-2391195D01*
X16828076Y-2390527D01*
X16827814Y-2389853D01*
X16837195Y-2368512D01*
X16846106Y-2347001D01*
X16846773Y-2346724D01*
X16847065Y-2346062D01*
X16868789Y-2337604D01*
X16890300Y-2328695D01*
X16890967Y-2328971D01*
X16891642Y-2328709D01*
X16912982Y-2338090D01*
X16934494Y-2347001D01*
X16935396Y-2347923D01*
X16955933Y-2369360D01*
X16973300Y-2412595D01*
X16973300Y-2954885D01*
X16973301Y-2954901D01*
X16989079Y-3054520D01*
X16989082Y-3054530D01*
X17050271Y-3174619D01*
X17050272Y-3174620D01*
X17145580Y-3269928D01*
X17265674Y-3331119D01*
X17365312Y-3346900D01*
X17365314Y-3346900D01*
X17819342Y-3346900D01*
X17841093Y-3355909D01*
X17862981Y-3364657D01*
X17863147Y-3365045D01*
X17863536Y-3365206D01*
X17872541Y-3386947D01*
X17881837Y-3408619D01*
X17881680Y-3409010D01*
X17881842Y-3409400D01*
X17864085Y-3453039D01*
X17860606Y-3456606D01*
X17859741Y-3457475D01*
X17831777Y-3485042D01*
X17829811Y-3487565D01*
X17827823Y-3490225D01*
X17808659Y-3524407D01*
X17808040Y-3525486D01*
X17807383Y-3526605D01*
X17769221Y-3555447D01*
X17741293Y-3556259D01*
X17687201Y-3545500D01*
X17510402Y-3545500D01*
X17510394Y-3545501D01*
X17464933Y-3554543D01*
X17418017Y-3545210D01*
X17408548Y-3537438D01*
X17377210Y-3506100D01*
X17377207Y-3506098D01*
X17282216Y-3459660D01*
X17223800Y-3446316D01*
X17223800Y-4870960D01*
X17267319Y-4864621D01*
X17267320Y-4864620D01*
X17377208Y-4810900D01*
X17408547Y-4779561D01*
X17452741Y-4761255D01*
X17464928Y-4762455D01*
X17510399Y-4771500D01*
X17687200Y-4771499D01*
X17763917Y-4756240D01*
X17814077Y-4722723D01*
X17860993Y-4713392D01*
X17883523Y-4722724D01*
X17933681Y-4756239D01*
X17933683Y-4756240D01*
X18010399Y-4771500D01*
X18110799Y-4771499D01*
X18154994Y-4789804D01*
X18173300Y-4833998D01*
X18173300Y-4934397D01*
X18173301Y-4934401D01*
X18188559Y-5011115D01*
X18188560Y-5011117D01*
X18221088Y-5059800D01*
X18222075Y-5061276D01*
X18231407Y-5108193D01*
X18222075Y-5130721D01*
X18188561Y-5180878D01*
X18188559Y-5180883D01*
X18173300Y-5257598D01*
X18173300Y-5434397D01*
X18173301Y-5434401D01*
X18188559Y-5511115D01*
X18188560Y-5511117D01*
X18220331Y-5558667D01*
X18222075Y-5561276D01*
X18231407Y-5608193D01*
X18222075Y-5630721D01*
X18188561Y-5680878D01*
X18188559Y-5680883D01*
X18173300Y-5757598D01*
X18173300Y-5934397D01*
X18173301Y-5934401D01*
X18188559Y-6011115D01*
X18188560Y-6011117D01*
X18222075Y-6061276D01*
X18231407Y-6108193D01*
X18222075Y-6130721D01*
X18188561Y-6180878D01*
X18188559Y-6180883D01*
X18173300Y-6257598D01*
X18173300Y-6434397D01*
X18173301Y-6434401D01*
X18188559Y-6511115D01*
X18188560Y-6511116D01*
X18188560Y-6511117D01*
X18205394Y-6536312D01*
X18222075Y-6561276D01*
X18231407Y-6608193D01*
X18222075Y-6630721D01*
X18188561Y-6680878D01*
X18188559Y-6680883D01*
X18173300Y-6757598D01*
X18173300Y-6934397D01*
X18173301Y-6934401D01*
X18188559Y-7011115D01*
X18188560Y-7011116D01*
X18188560Y-7011117D01*
X18222038Y-7061222D01*
X18222075Y-7061276D01*
X18231407Y-7108193D01*
X18222075Y-7130721D01*
X18188561Y-7180878D01*
X18188559Y-7180883D01*
X18173300Y-7257598D01*
X18173300Y-7358000D01*
X18154994Y-7402194D01*
X18110801Y-7420500D01*
X18010402Y-7420500D01*
X18010398Y-7420501D01*
X17933684Y-7435759D01*
X17933679Y-7435761D01*
X17883522Y-7469275D01*
X17836606Y-7478607D01*
X17814077Y-7469275D01*
X17763918Y-7435760D01*
X17763916Y-7435759D01*
X17687201Y-7420500D01*
X17510402Y-7420500D01*
X17510394Y-7420501D01*
X17464933Y-7429543D01*
X17418017Y-7420210D01*
X17408548Y-7412438D01*
X17377208Y-7381098D01*
X17267325Y-7327380D01*
X17267318Y-7327378D01*
X17223800Y-7321037D01*
X17223800Y-8745960D01*
X17267319Y-8739621D01*
X17267320Y-8739620D01*
X17377208Y-8685900D01*
X17408547Y-8654561D01*
X17414462Y-8652110D01*
X17418019Y-8646788D01*
X17435897Y-8643231D01*
X17452741Y-8636255D01*
X17464929Y-8637455D01*
X17505945Y-8645614D01*
X17545718Y-8672189D01*
X17555050Y-8719105D01*
X17537946Y-8751106D01*
X17500270Y-8788782D01*
X17439082Y-8908869D01*
X17439079Y-8908879D01*
X17423301Y-9008498D01*
X17423300Y-9008514D01*
X17423300Y-9029800D01*
X17404994Y-9073994D01*
X17360800Y-9092300D01*
X17002597Y-9092300D01*
X16958403Y-9073994D01*
X16944606Y-9060197D01*
X16926300Y-9016003D01*
X16926300Y-8811307D01*
X16944606Y-8767113D01*
X16953697Y-8763347D01*
X16973800Y-8745961D01*
X16973800Y-7321038D01*
X16973799Y-7321038D01*
X16930277Y-7327379D01*
X16930276Y-7327379D01*
X16820391Y-7381098D01*
X16820388Y-7381101D01*
X16789049Y-7412439D01*
X16744854Y-7430744D01*
X16732663Y-7429543D01*
X16687201Y-7420500D01*
X16510402Y-7420500D01*
X16510398Y-7420501D01*
X16433684Y-7435759D01*
X16433679Y-7435761D01*
X16383522Y-7469275D01*
X16336606Y-7478607D01*
X16314077Y-7469275D01*
X16263918Y-7435760D01*
X16263916Y-7435759D01*
X16187201Y-7420500D01*
X16010402Y-7420500D01*
X16010398Y-7420501D01*
X15933684Y-7435759D01*
X15933679Y-7435761D01*
X15883522Y-7469275D01*
X15836606Y-7478607D01*
X15814077Y-7469275D01*
X15763918Y-7435760D01*
X15763916Y-7435759D01*
X15687201Y-7420500D01*
X15586799Y-7420500D01*
X15542605Y-7402194D01*
X15524299Y-7358000D01*
X15524299Y-7257601D01*
X15524299Y-7257600D01*
X15509040Y-7180883D01*
X15475523Y-7130722D01*
X15466192Y-7083807D01*
X15475524Y-7061277D01*
X15475572Y-7061205D01*
X15509040Y-7011117D01*
X15524300Y-6934401D01*
X15524299Y-6757600D01*
X15509040Y-6680883D01*
X15475523Y-6630722D01*
X15466192Y-6583807D01*
X15475524Y-6561277D01*
X15492205Y-6536312D01*
X15509040Y-6511117D01*
X15524300Y-6434401D01*
X15524299Y-6257600D01*
X15515256Y-6212134D01*
X15524589Y-6165218D01*
X15532361Y-6155747D01*
X15563700Y-6124408D01*
X15617421Y-6014519D01*
X15623761Y-5971000D01*
X14973800Y-5971000D01*
X14929606Y-5952694D01*
X14911300Y-5908500D01*
X14911300Y-5846000D01*
X14848800Y-5846000D01*
X14804606Y-5827694D01*
X14786300Y-5783500D01*
X14786300Y-5721000D01*
X15036300Y-5721000D01*
X15623761Y-5721000D01*
X15617421Y-5677480D01*
X15617420Y-5677477D01*
X15591007Y-5623451D01*
X15588042Y-5575707D01*
X15591007Y-5568549D01*
X15617420Y-5514521D01*
X15623761Y-5471000D01*
X15036300Y-5471000D01*
X15036300Y-5721000D01*
X14786300Y-5721000D01*
X14786300Y-5471000D01*
X14198839Y-5471000D01*
X14205178Y-5514519D01*
X14205179Y-5514520D01*
X14226534Y-5558203D01*
X14229497Y-5605947D01*
X14197834Y-5641803D01*
X14150090Y-5644766D01*
X14124796Y-5628408D01*
X14121500Y-5624894D01*
X13925482Y-5415887D01*
X13800876Y-5283024D01*
X13742705Y-5220999D01*
X14198838Y-5220999D01*
X14198839Y-5221000D01*
X14786300Y-5221000D01*
X15036300Y-5221000D01*
X15623761Y-5221000D01*
X15617421Y-5177480D01*
X15617420Y-5177477D01*
X15591007Y-5123451D01*
X15588042Y-5075707D01*
X15591007Y-5068549D01*
X15617420Y-5014521D01*
X15623761Y-4971000D01*
X15036300Y-4971000D01*
X15036300Y-5221000D01*
X14786300Y-5221000D01*
X14786300Y-4971000D01*
X14198839Y-4971000D01*
X14205178Y-5014519D01*
X14205180Y-5014523D01*
X14231592Y-5068551D01*
X14234555Y-5116294D01*
X14231592Y-5123449D01*
X14205179Y-5177478D01*
X14198838Y-5220999D01*
X13742705Y-5220999D01*
X13666211Y-5139436D01*
X13649299Y-5096681D01*
X13649299Y-4720999D01*
X14198838Y-4720999D01*
X14198839Y-4721000D01*
X14786300Y-4721000D01*
X14786300Y-4417000D01*
X15036300Y-4417000D01*
X15036300Y-4721000D01*
X15361983Y-4721000D01*
X15396706Y-4731533D01*
X15433681Y-4756239D01*
X15433683Y-4756240D01*
X15510399Y-4771500D01*
X15687200Y-4771499D01*
X15763917Y-4756240D01*
X15814077Y-4722723D01*
X15860993Y-4713392D01*
X15883523Y-4722724D01*
X15933681Y-4756239D01*
X15933683Y-4756240D01*
X16010399Y-4771500D01*
X16187200Y-4771499D01*
X16263917Y-4756240D01*
X16314077Y-4722723D01*
X16360993Y-4713392D01*
X16383523Y-4722724D01*
X16433681Y-4756239D01*
X16433683Y-4756240D01*
X16510399Y-4771500D01*
X16687200Y-4771499D01*
X16732664Y-4762456D01*
X16779581Y-4771788D01*
X16789051Y-4779561D01*
X16820391Y-4810901D01*
X16930277Y-4864620D01*
X16973799Y-4870961D01*
X16973800Y-4870961D01*
X16973800Y-3446038D01*
X16973799Y-3446038D01*
X16930277Y-3452379D01*
X16930276Y-3452379D01*
X16820391Y-3506098D01*
X16820388Y-3506101D01*
X16789049Y-3537439D01*
X16744854Y-3555744D01*
X16732663Y-3554543D01*
X16687201Y-3545500D01*
X16510402Y-3545500D01*
X16510396Y-3545501D01*
X16481710Y-3551207D01*
X16434794Y-3541874D01*
X16408219Y-3502100D01*
X16417552Y-3455184D01*
X16446590Y-3431766D01*
X16560499Y-3386846D01*
X16560504Y-3386843D01*
X16676375Y-3298975D01*
X16764243Y-3183104D01*
X16764246Y-3183099D01*
X16817590Y-3047827D01*
X16827798Y-2962822D01*
X16827800Y-2962805D01*
X16827800Y-2823400D01*
X15319800Y-2823400D01*
X15319800Y-2962805D01*
X15319801Y-2962822D01*
X15330009Y-3047827D01*
X15383353Y-3183099D01*
X15383356Y-3183104D01*
X15471224Y-3298975D01*
X15587095Y-3386843D01*
X15587097Y-3386844D01*
X15683492Y-3424858D01*
X15717889Y-3458100D01*
X15718705Y-3505929D01*
X15685463Y-3540326D01*
X15660563Y-3545500D01*
X15510402Y-3545500D01*
X15510398Y-3545501D01*
X15464940Y-3554543D01*
X15433683Y-3560760D01*
X15433682Y-3560760D01*
X15433680Y-3560761D01*
X15346688Y-3618888D01*
X15288560Y-3705881D01*
X15288559Y-3705883D01*
X15273300Y-3782598D01*
X15273300Y-4354500D01*
X15254994Y-4398694D01*
X15210800Y-4417000D01*
X15036300Y-4417000D01*
X14786300Y-4417000D01*
X14526516Y-4417000D01*
X14455280Y-4427378D01*
X14455273Y-4427380D01*
X14345391Y-4481098D01*
X14258898Y-4567591D01*
X14205179Y-4677476D01*
X14205179Y-4677477D01*
X14198838Y-4720999D01*
X13649299Y-4720999D01*
X13649299Y-4713285D01*
X13649299Y-4713283D01*
X13649299Y-4713282D01*
X13634446Y-4619496D01*
X13576850Y-4506458D01*
X13487142Y-4416750D01*
X13487138Y-4416748D01*
X13374105Y-4359154D01*
X13374098Y-4359152D01*
X13280332Y-4344301D01*
X13280320Y-4344300D01*
X13280319Y-4344300D01*
X13280316Y-4344300D01*
X12817285Y-4344300D01*
X12817280Y-4344301D01*
X12723495Y-4359154D01*
X12723494Y-4359154D01*
X12610457Y-4416750D01*
X12520750Y-4506457D01*
X12463154Y-4619494D01*
X12463152Y-4619501D01*
X12448301Y-4713267D01*
X12448300Y-4713283D01*
X12448300Y-5326314D01*
X12448301Y-5326319D01*
X12463154Y-5420104D01*
X12463154Y-5420105D01*
X12520749Y-5533141D01*
X12520750Y-5533142D01*
X12610458Y-5622850D01*
X12723496Y-5680446D01*
X12723499Y-5680446D01*
X12723501Y-5680447D01*
X12817267Y-5695298D01*
X12817269Y-5695298D01*
X12817281Y-5695300D01*
X13262470Y-5695299D01*
X13306664Y-5713605D01*
X13308058Y-5715044D01*
X13962872Y-6413245D01*
X13979752Y-6458003D01*
X13960039Y-6501588D01*
X13917284Y-6518500D01*
X13614780Y-6518500D01*
X13570586Y-6500194D01*
X13487142Y-6416750D01*
X13374105Y-6359154D01*
X13374098Y-6359152D01*
X13280332Y-6344301D01*
X13280320Y-6344300D01*
X13280319Y-6344300D01*
X13280316Y-6344300D01*
X12817285Y-6344300D01*
X12817280Y-6344301D01*
X12723495Y-6359154D01*
X12723494Y-6359154D01*
X12610457Y-6416750D01*
X12520750Y-6506457D01*
X12463154Y-6619494D01*
X12463152Y-6619501D01*
X12448301Y-6713267D01*
X12448300Y-6713283D01*
X12448300Y-7326314D01*
X12448301Y-7326319D01*
X12463154Y-7420104D01*
X12463154Y-7420105D01*
X12500749Y-7493888D01*
X12520750Y-7533142D01*
X12610458Y-7622850D01*
X12723496Y-7680446D01*
X12723499Y-7680446D01*
X12723501Y-7680447D01*
X12817267Y-7695298D01*
X12817269Y-7695298D01*
X12817281Y-7695300D01*
X13280318Y-7695299D01*
X13374104Y-7680446D01*
X13487142Y-7622850D01*
X13576850Y-7533142D01*
X13634446Y-7420104D01*
X13641954Y-7372700D01*
X13649298Y-7326332D01*
X13649300Y-7326316D01*
X13649300Y-7236000D01*
X13667606Y-7191806D01*
X13711800Y-7173500D01*
X14238872Y-7173500D01*
X14283066Y-7191806D01*
X14301372Y-7236000D01*
X14300171Y-7248194D01*
X14298300Y-7257599D01*
X14298300Y-7434397D01*
X14298301Y-7434401D01*
X14301678Y-7451377D01*
X14313560Y-7511117D01*
X14371688Y-7598112D01*
X14390205Y-7610485D01*
X14416781Y-7650257D01*
X14409609Y-7693701D01*
X14342431Y-7810055D01*
X14342430Y-7810058D01*
X14305401Y-7948253D01*
X14305400Y-7948261D01*
X14305400Y-8091338D01*
X14305401Y-8091346D01*
X14342430Y-8229541D01*
X14342434Y-8229550D01*
X14413969Y-8353451D01*
X14413976Y-8353460D01*
X14515139Y-8454623D01*
X14515148Y-8454630D01*
X14639049Y-8526165D01*
X14639052Y-8526166D01*
X14639055Y-8526168D01*
X14639056Y-8526168D01*
X14639058Y-8526169D01*
X14711184Y-8545495D01*
X14777260Y-8563200D01*
X14777261Y-8563200D01*
X14920339Y-8563200D01*
X14920340Y-8563200D01*
X15058545Y-8526168D01*
X15182455Y-8454628D01*
X15183044Y-8454038D01*
X15183433Y-8453877D01*
X15185708Y-8452132D01*
X15186175Y-8452741D01*
X15227235Y-8435727D01*
X15271432Y-8454026D01*
X15285668Y-8480654D01*
X15286206Y-8480432D01*
X15288460Y-8485875D01*
X15288542Y-8486028D01*
X15288559Y-8486113D01*
X15288561Y-8486119D01*
X15293108Y-8492924D01*
X15346688Y-8573112D01*
X15408441Y-8614374D01*
X15433681Y-8631239D01*
X15433683Y-8631240D01*
X15510399Y-8646500D01*
X15687200Y-8646499D01*
X15763917Y-8631240D01*
X15814077Y-8597723D01*
X15860993Y-8588392D01*
X15883523Y-8597724D01*
X15933681Y-8631239D01*
X15933683Y-8631240D01*
X16010399Y-8646500D01*
X16187200Y-8646499D01*
X16196604Y-8644628D01*
X16243520Y-8653957D01*
X16270098Y-8693729D01*
X16271300Y-8705926D01*
X16271300Y-8906800D01*
X16252994Y-8950994D01*
X16208800Y-8969300D01*
X16134554Y-8969300D01*
X16134552Y-8969300D01*
X16134540Y-8969301D01*
X16036385Y-8984847D01*
X16036378Y-8984849D01*
X15918048Y-9045142D01*
X15824142Y-9139048D01*
X15763849Y-9257378D01*
X15763847Y-9257385D01*
X15748301Y-9355540D01*
X15748300Y-9355556D01*
X15748300Y-9859043D01*
X15748301Y-9859059D01*
X15763847Y-9957214D01*
X15763849Y-9957221D01*
X15798352Y-10024936D01*
X15824142Y-10075551D01*
X15918049Y-10169458D01*
X15987074Y-10204628D01*
X16035985Y-10229550D01*
X16036380Y-10229751D01*
X16036383Y-10229751D01*
X16036385Y-10229752D01*
X16134540Y-10245298D01*
X16134546Y-10245298D01*
X16134554Y-10245300D01*
X16134556Y-10245300D01*
X16713044Y-10245300D01*
X16713046Y-10245300D01*
X16741762Y-10240752D01*
X16811214Y-10229752D01*
X16811214Y-10229751D01*
X16811220Y-10229751D01*
X16929551Y-10169458D01*
X17023458Y-10075551D01*
X17083751Y-9957220D01*
X17088203Y-9929109D01*
X17099298Y-9859059D01*
X17099300Y-9859043D01*
X17099300Y-9809800D01*
X17117606Y-9765606D01*
X17161800Y-9747300D01*
X17437556Y-9747300D01*
X17481750Y-9765606D01*
X17493242Y-9781423D01*
X17500272Y-9795220D01*
X17595580Y-9890528D01*
X17619920Y-9902930D01*
X17637174Y-9911721D01*
X17668241Y-9948095D01*
X17671300Y-9967409D01*
X17671300Y-10594389D01*
X17652994Y-10638583D01*
X17637176Y-10650076D01*
X17595580Y-10671271D01*
X17500271Y-10766580D01*
X17439082Y-10886669D01*
X17439079Y-10886679D01*
X17423301Y-10986298D01*
X17423300Y-10986314D01*
X17423300Y-11553285D01*
X17423301Y-11553301D01*
X17439079Y-11652920D01*
X17439082Y-11652930D01*
X17500271Y-11773019D01*
X17595580Y-11868328D01*
X17715669Y-11929517D01*
X17715671Y-11929517D01*
X17715674Y-11929519D01*
X17715677Y-11929519D01*
X17715679Y-11929520D01*
X17815298Y-11945298D01*
X17815304Y-11945298D01*
X17815312Y-11945300D01*
X17815314Y-11945300D01*
X18332286Y-11945300D01*
X18332288Y-11945300D01*
X18413686Y-11932408D01*
X18431920Y-11929520D01*
X18431920Y-11929519D01*
X18431926Y-11929519D01*
X18552020Y-11868328D01*
X18647328Y-11773020D01*
X18708519Y-11652926D01*
X18717217Y-11598006D01*
X18724298Y-11553301D01*
X18724300Y-11553285D01*
X18724300Y-10986314D01*
X18724298Y-10986295D01*
X18724297Y-10986286D01*
X18724297Y-10986285D01*
X18723047Y-10978394D01*
X18869800Y-10978394D01*
X18869800Y-11117800D01*
X19471800Y-11117800D01*
X19775800Y-11117800D01*
X20377800Y-11117800D01*
X20377800Y-10978394D01*
X20377798Y-10978377D01*
X20367590Y-10893372D01*
X20314246Y-10758100D01*
X20314243Y-10758095D01*
X20226375Y-10642224D01*
X20110504Y-10554356D01*
X20110499Y-10554353D01*
X19975227Y-10501009D01*
X19890222Y-10490801D01*
X19890205Y-10490800D01*
X19775800Y-10490800D01*
X19775800Y-11117800D01*
X19471800Y-11117800D01*
X19471800Y-10490800D01*
X19357395Y-10490800D01*
X19357377Y-10490801D01*
X19272372Y-10501009D01*
X19137100Y-10554353D01*
X19137095Y-10554356D01*
X19021224Y-10642224D01*
X18933356Y-10758095D01*
X18933353Y-10758100D01*
X18880009Y-10893372D01*
X18869801Y-10978377D01*
X18869800Y-10978394D01*
X18723047Y-10978394D01*
X18708520Y-10886678D01*
X18708517Y-10886669D01*
X18647328Y-10766580D01*
X18552019Y-10671271D01*
X18431930Y-10610082D01*
X18431920Y-10610079D01*
X18379022Y-10601701D01*
X18338236Y-10576707D01*
X18326300Y-10539971D01*
X18326300Y-10021828D01*
X18344606Y-9977634D01*
X18379020Y-9960098D01*
X18431926Y-9951719D01*
X18439039Y-9948095D01*
X18452190Y-9941394D01*
X18552020Y-9890528D01*
X18647328Y-9795220D01*
X18708519Y-9675126D01*
X18710342Y-9663614D01*
X18723045Y-9583412D01*
X18869800Y-9583412D01*
X18880009Y-9668427D01*
X18933353Y-9803699D01*
X18933356Y-9803704D01*
X19021224Y-9919575D01*
X19137095Y-10007443D01*
X19137100Y-10007446D01*
X19272372Y-10060790D01*
X19357377Y-10070998D01*
X19357395Y-10071000D01*
X19471800Y-10071000D01*
X19775800Y-10071000D01*
X19890205Y-10071000D01*
X19890222Y-10070998D01*
X19975227Y-10060790D01*
X20110499Y-10007446D01*
X20110504Y-10007443D01*
X20226375Y-9919575D01*
X20314243Y-9803704D01*
X20314246Y-9803699D01*
X20367590Y-9668427D01*
X20377800Y-9583412D01*
X20377800Y-9444000D01*
X19775800Y-9444000D01*
X19775800Y-10071000D01*
X19471800Y-10071000D01*
X19471800Y-9444000D01*
X18869800Y-9444000D01*
X18869800Y-9583412D01*
X18723045Y-9583412D01*
X18724298Y-9575501D01*
X18724300Y-9575485D01*
X18724300Y-9008514D01*
X18724298Y-9008495D01*
X18724297Y-9008486D01*
X18724297Y-9008485D01*
X18723047Y-9000594D01*
X18869800Y-9000594D01*
X18869800Y-9140000D01*
X19471800Y-9140000D01*
X19471800Y-8513000D01*
X19357395Y-8513000D01*
X19357377Y-8513001D01*
X19272372Y-8523209D01*
X19137100Y-8576553D01*
X19137095Y-8576556D01*
X19021224Y-8664424D01*
X18933356Y-8780295D01*
X18933353Y-8780300D01*
X18880009Y-8915572D01*
X18869801Y-9000577D01*
X18869800Y-9000594D01*
X18723047Y-9000594D01*
X18708520Y-8908878D01*
X18708517Y-8908869D01*
X18647328Y-8788780D01*
X18552019Y-8693471D01*
X18431930Y-8632282D01*
X18431926Y-8632281D01*
X18419343Y-8630288D01*
X18378559Y-8605295D01*
X18367391Y-8558781D01*
X18377155Y-8533836D01*
X18409040Y-8486117D01*
X18424300Y-8409401D01*
X18424299Y-7733998D01*
X18442605Y-7689805D01*
X18486799Y-7671499D01*
X19162199Y-7671499D01*
X19162200Y-7671499D01*
X19238917Y-7656240D01*
X19325912Y-7598112D01*
X19384040Y-7511117D01*
X19399300Y-7434401D01*
X19399299Y-7257600D01*
X19384040Y-7180883D01*
X19350523Y-7130722D01*
X19341192Y-7083807D01*
X19350524Y-7061277D01*
X19350572Y-7061205D01*
X19384040Y-7011117D01*
X19399300Y-6934401D01*
X19399300Y-6934397D01*
X19399332Y-6934238D01*
X19409160Y-6919528D01*
X19415627Y-6903062D01*
X19422028Y-6900270D01*
X19425908Y-6894464D01*
X19443260Y-6891012D01*
X19459475Y-6883942D01*
X19465974Y-6886494D01*
X19472824Y-6885132D01*
X19503999Y-6901426D01*
X19522783Y-6919528D01*
X19536269Y-6932524D01*
X19555389Y-6976372D01*
X19555400Y-6977528D01*
X19555400Y-7091338D01*
X19555401Y-7091346D01*
X19592430Y-7229541D01*
X19592434Y-7229550D01*
X19663969Y-7353451D01*
X19663976Y-7353460D01*
X19765139Y-7454623D01*
X19765148Y-7454630D01*
X19784276Y-7465674D01*
X19813397Y-7503624D01*
X19807152Y-7551050D01*
X19784276Y-7573926D01*
X19765148Y-7584969D01*
X19765139Y-7584976D01*
X19663976Y-7686139D01*
X19663969Y-7686148D01*
X19592434Y-7810049D01*
X19592430Y-7810058D01*
X19555401Y-7948253D01*
X19555400Y-7948261D01*
X19555400Y-8091338D01*
X19555401Y-8091346D01*
X19592430Y-8229541D01*
X19592434Y-8229550D01*
X19663969Y-8353451D01*
X19663976Y-8353460D01*
X19757494Y-8446978D01*
X19775800Y-8491172D01*
X19775800Y-9140000D01*
X20377800Y-9140000D01*
X20377800Y-9000594D01*
X20377798Y-9000577D01*
X20367590Y-8915572D01*
X20314246Y-8780300D01*
X20314243Y-8780295D01*
X20226377Y-8664425D01*
X20214825Y-8655665D01*
X20190673Y-8614374D01*
X20202791Y-8568099D01*
X20236414Y-8545495D01*
X20308545Y-8526168D01*
X20383326Y-8482991D01*
X20430750Y-8476747D01*
X20458769Y-8492924D01*
X20654994Y-8689149D01*
X20673300Y-8733343D01*
X20673300Y-9176314D01*
X20673301Y-9176319D01*
X20688154Y-9270104D01*
X20688154Y-9270105D01*
X20731686Y-9355540D01*
X20745750Y-9383142D01*
X20835458Y-9472850D01*
X20915108Y-9513434D01*
X20947577Y-9529978D01*
X20948496Y-9530446D01*
X20948499Y-9530446D01*
X20948501Y-9530447D01*
X21042267Y-9545298D01*
X21042269Y-9545298D01*
X21042281Y-9545300D01*
X21655318Y-9545299D01*
X21749104Y-9530446D01*
X21749114Y-9530440D01*
X21750541Y-9529978D01*
X21751552Y-9530057D01*
X21753962Y-9529676D01*
X21754053Y-9530254D01*
X21798229Y-9533728D01*
X21829299Y-9570100D01*
X21830229Y-9605594D01*
X21805401Y-9698253D01*
X21805400Y-9698261D01*
X21805400Y-9841338D01*
X21805401Y-9841346D01*
X21830229Y-9934005D01*
X21823986Y-9981431D01*
X21786035Y-10010551D01*
X21753995Y-10009713D01*
X21753962Y-10009923D01*
X21752368Y-10009670D01*
X21750550Y-10009623D01*
X21749105Y-10009153D01*
X21655332Y-9994301D01*
X21655320Y-9994300D01*
X21655319Y-9994300D01*
X21655316Y-9994300D01*
X21042285Y-9994300D01*
X21042280Y-9994301D01*
X20948495Y-10009154D01*
X20948494Y-10009154D01*
X20835457Y-10066750D01*
X20745750Y-10156457D01*
X20688154Y-10269494D01*
X20688152Y-10269501D01*
X20673301Y-10363267D01*
X20673300Y-10363283D01*
X20673300Y-10826314D01*
X20673301Y-10826319D01*
X20688154Y-10920104D01*
X20688154Y-10920105D01*
X20721889Y-10986312D01*
X20745750Y-11033142D01*
X20835458Y-11122850D01*
X20948496Y-11180446D01*
X20948499Y-11180446D01*
X20948501Y-11180447D01*
X21042267Y-11195298D01*
X21042269Y-11195298D01*
X21042281Y-11195300D01*
X21526664Y-11195299D01*
X21565441Y-11208783D01*
X21648286Y-11274322D01*
X21697428Y-11313200D01*
X21781677Y-11379850D01*
X21804979Y-11421626D01*
X21805400Y-11428866D01*
X21805400Y-11466338D01*
X21805401Y-11466346D01*
X21842430Y-11604541D01*
X21842434Y-11604550D01*
X21913969Y-11728451D01*
X21913976Y-11728460D01*
X22015139Y-11829623D01*
X22015148Y-11829630D01*
X22139049Y-11901165D01*
X22139052Y-11901166D01*
X22139055Y-11901168D01*
X22139056Y-11901168D01*
X22139058Y-11901169D01*
X22173957Y-11910520D01*
X22277260Y-11938200D01*
X22277261Y-11938200D01*
X22420338Y-11938200D01*
X22420340Y-11938200D01*
X22420341Y-11938199D01*
X22424400Y-11937665D01*
X22424726Y-11940144D01*
X22464336Y-11945331D01*
X22472390Y-11949981D01*
X22555678Y-11972299D01*
X22555684Y-11972300D01*
X25016916Y-11972300D01*
X25016921Y-11972299D01*
X25041665Y-11965668D01*
X25100210Y-11949981D01*
X25174890Y-11906865D01*
X26511492Y-10570261D01*
X26555685Y-10551956D01*
X26580925Y-10557280D01*
X26603809Y-10567385D01*
X26628935Y-10570300D01*
X27168664Y-10570299D01*
X27193791Y-10567385D01*
X27240753Y-10546648D01*
X27288576Y-10545543D01*
X27323173Y-10578577D01*
X27326369Y-10619999D01*
X27305401Y-10698253D01*
X27305400Y-10698261D01*
X27305400Y-10841338D01*
X27305401Y-10841346D01*
X27342430Y-10979541D01*
X27342434Y-10979550D01*
X27413969Y-11103451D01*
X27413976Y-11103460D01*
X27515139Y-11204623D01*
X27515148Y-11204630D01*
X27639049Y-11276165D01*
X27639052Y-11276166D01*
X27639055Y-11276168D01*
X27639056Y-11276168D01*
X27639058Y-11276169D01*
X27701287Y-11292843D01*
X27777260Y-11313200D01*
X27777261Y-11313200D01*
X27920339Y-11313200D01*
X27920340Y-11313200D01*
X28058545Y-11276168D01*
X28182455Y-11204628D01*
X28271477Y-11115606D01*
X28315671Y-11097300D01*
X29779531Y-11097300D01*
X29782679Y-11098078D01*
X29822581Y-11097300D01*
X29862516Y-11097300D01*
X29862516Y-11097299D01*
X29865694Y-11096880D01*
X29868884Y-11096397D01*
X29868895Y-11096397D01*
X29906736Y-11085461D01*
X29907757Y-11085176D01*
X29945810Y-11074981D01*
X29945816Y-11074977D01*
X29948799Y-11073741D01*
X29951731Y-11072460D01*
X29951731Y-11072459D01*
X29951737Y-11072458D01*
X29985517Y-11052065D01*
X29986300Y-11051603D01*
X30020490Y-11031865D01*
X30020495Y-11031859D01*
X30023014Y-11029926D01*
X30025551Y-11027899D01*
X30025562Y-11027893D01*
X30053223Y-10999131D01*
X30081465Y-10970890D01*
X30083087Y-10968080D01*
X30085337Y-10965741D01*
X30104382Y-10931213D01*
X30104862Y-10930362D01*
X30124581Y-10896210D01*
X30124582Y-10896205D01*
X30125922Y-10892971D01*
X30128936Y-10886702D01*
X30301840Y-10573261D01*
X30805400Y-10573261D01*
X30805400Y-10716338D01*
X30805401Y-10716346D01*
X30842430Y-10854541D01*
X30842434Y-10854550D01*
X30913969Y-10978451D01*
X30913976Y-10978460D01*
X31015139Y-11079623D01*
X31015148Y-11079630D01*
X31139049Y-11151165D01*
X31139052Y-11151166D01*
X31139055Y-11151168D01*
X31139056Y-11151168D01*
X31139058Y-11151169D01*
X31223634Y-11173831D01*
X31277260Y-11188200D01*
X31277261Y-11188200D01*
X31420339Y-11188200D01*
X31420340Y-11188200D01*
X31558545Y-11151168D01*
X31682455Y-11079628D01*
X31771477Y-10990606D01*
X31815671Y-10972300D01*
X31926449Y-10972300D01*
X31970643Y-10990606D01*
X31982136Y-11006424D01*
X31995750Y-11033142D01*
X32085458Y-11122850D01*
X32198496Y-11180446D01*
X32198499Y-11180446D01*
X32198501Y-11180447D01*
X32292267Y-11195298D01*
X32292269Y-11195298D01*
X32292281Y-11195300D01*
X32905318Y-11195299D01*
X32999104Y-11180446D01*
X33112142Y-11122850D01*
X33201850Y-11033142D01*
X33259446Y-10920104D01*
X33262299Y-10902089D01*
X33274298Y-10826332D01*
X33274298Y-10826331D01*
X33274300Y-10826319D01*
X33274299Y-10363282D01*
X33259446Y-10269496D01*
X33201850Y-10156458D01*
X33112142Y-10066750D01*
X33100445Y-10060790D01*
X32999105Y-10009154D01*
X32999098Y-10009152D01*
X32905332Y-9994301D01*
X32905320Y-9994300D01*
X32905319Y-9994300D01*
X32905316Y-9994300D01*
X32292285Y-9994300D01*
X32292280Y-9994301D01*
X32198495Y-10009154D01*
X32198494Y-10009154D01*
X32085457Y-10066750D01*
X31995750Y-10156457D01*
X31938154Y-10269495D01*
X31936655Y-10274111D01*
X31927060Y-10285346D01*
X31921407Y-10298994D01*
X31912119Y-10302840D01*
X31905590Y-10310487D01*
X31877213Y-10317300D01*
X31815671Y-10317300D01*
X31771477Y-10298994D01*
X31682460Y-10209976D01*
X31682451Y-10209969D01*
X31558550Y-10138434D01*
X31558541Y-10138430D01*
X31420346Y-10101401D01*
X31420341Y-10101400D01*
X31420340Y-10101400D01*
X31277260Y-10101400D01*
X31277259Y-10101400D01*
X31277253Y-10101401D01*
X31139058Y-10138430D01*
X31139049Y-10138434D01*
X31015148Y-10209969D01*
X31015139Y-10209976D01*
X30913976Y-10311139D01*
X30913969Y-10311148D01*
X30842434Y-10435049D01*
X30842430Y-10435058D01*
X30805401Y-10573253D01*
X30805400Y-10573261D01*
X30301840Y-10573261D01*
X30854618Y-9571186D01*
X30874581Y-9536610D01*
X30875420Y-9533476D01*
X30876988Y-9530635D01*
X30886564Y-9491887D01*
X30896900Y-9453316D01*
X30896900Y-9450069D01*
X30897678Y-9446922D01*
X30897546Y-9440177D01*
X30896912Y-9407635D01*
X30896900Y-9406416D01*
X30896900Y-8991310D01*
X30899721Y-8970704D01*
X30896900Y-8948388D01*
X30896900Y-8925884D01*
X30891514Y-8905784D01*
X30888906Y-8885152D01*
X30880405Y-8864325D01*
X30877022Y-8851701D01*
X30874582Y-8842593D01*
X30874579Y-8842586D01*
X30866307Y-8828258D01*
X30864178Y-8824570D01*
X30856318Y-8805314D01*
X30842714Y-8787395D01*
X30831465Y-8767910D01*
X30819764Y-8756209D01*
X30814178Y-8749806D01*
X30811258Y-8745960D01*
X30592937Y-8458379D01*
X30580796Y-8412113D01*
X30604927Y-8370810D01*
X30651195Y-8358668D01*
X30686912Y-8376396D01*
X30765139Y-8454623D01*
X30765148Y-8454630D01*
X30889049Y-8526165D01*
X30889052Y-8526166D01*
X30889055Y-8526168D01*
X30889056Y-8526168D01*
X30889058Y-8526169D01*
X30961184Y-8545495D01*
X31027260Y-8563200D01*
X31027261Y-8563200D01*
X31170339Y-8563200D01*
X31170340Y-8563200D01*
X31308545Y-8526168D01*
X31432455Y-8454628D01*
X31533628Y-8353455D01*
X31605168Y-8229545D01*
X31642200Y-8091340D01*
X31642200Y-7948260D01*
X31605168Y-7810055D01*
X31574963Y-7757739D01*
X31533630Y-7686148D01*
X31533623Y-7686139D01*
X31432460Y-7584976D01*
X31432451Y-7584969D01*
X31308550Y-7513434D01*
X31308542Y-7513431D01*
X31236874Y-7494227D01*
X31198924Y-7465106D01*
X31192681Y-7417680D01*
X31208857Y-7389662D01*
X31253943Y-7344576D01*
X31299851Y-7240605D01*
X31302800Y-7215188D01*
X31302800Y-7069800D01*
X30911300Y-7069800D01*
X30890550Y-7061205D01*
X31819800Y-7061205D01*
X31819801Y-7061222D01*
X31830009Y-7146227D01*
X31883353Y-7281499D01*
X31883356Y-7281504D01*
X31971224Y-7397375D01*
X32087095Y-7485243D01*
X32087100Y-7485246D01*
X32222372Y-7538590D01*
X32307377Y-7548798D01*
X32307395Y-7548800D01*
X32446800Y-7548800D01*
X32446800Y-6946800D01*
X31819800Y-6946800D01*
X31819800Y-7061205D01*
X30890550Y-7061205D01*
X30867106Y-7051494D01*
X30848800Y-7007300D01*
X30848800Y-6832300D01*
X30867106Y-6788106D01*
X30911300Y-6769800D01*
X31302799Y-6769800D01*
X31302799Y-6624411D01*
X31299850Y-6598992D01*
X31299849Y-6598988D01*
X31283125Y-6561113D01*
X31277799Y-6535867D01*
X31277799Y-6528394D01*
X31819800Y-6528394D01*
X31819800Y-6642800D01*
X32446800Y-6642800D01*
X32446800Y-6040800D01*
X32307395Y-6040800D01*
X32307377Y-6040801D01*
X32222372Y-6051009D01*
X32087100Y-6104353D01*
X32087095Y-6104356D01*
X31971224Y-6192224D01*
X31883356Y-6308095D01*
X31883353Y-6308100D01*
X31830009Y-6443372D01*
X31819801Y-6528377D01*
X31819800Y-6528394D01*
X31277799Y-6528394D01*
X31277799Y-6171800D01*
X28919801Y-6171800D01*
X28919801Y-6590188D01*
X28922749Y-6615607D01*
X28922749Y-6615608D01*
X28968657Y-6719578D01*
X28979994Y-6730915D01*
X28998300Y-6775109D01*
X28998300Y-7189548D01*
X29008299Y-7239816D01*
X29009500Y-7252009D01*
X29009500Y-7561521D01*
X29028961Y-7634145D01*
X29031819Y-7644810D01*
X29047227Y-7671498D01*
X29051927Y-7679638D01*
X29060300Y-7710888D01*
X29060300Y-8272721D01*
X29064160Y-8287123D01*
X29057917Y-8334549D01*
X29019967Y-8363670D01*
X29003790Y-8365800D01*
X28950800Y-8365800D01*
X28950800Y-8807300D01*
X28932494Y-8851494D01*
X28888300Y-8869800D01*
X28709300Y-8869800D01*
X28665106Y-8851494D01*
X28646800Y-8807300D01*
X28646800Y-8365800D01*
X28542010Y-8365800D01*
X28542005Y-8365801D01*
X28447399Y-8380784D01*
X28333375Y-8438882D01*
X28282994Y-8489264D01*
X28238800Y-8507570D01*
X28194606Y-8489264D01*
X28176300Y-8445070D01*
X28176300Y-4986672D01*
X28194606Y-4942478D01*
X28283623Y-4853460D01*
X28283628Y-4853455D01*
X28355168Y-4729545D01*
X28392200Y-4591340D01*
X28392200Y-4448260D01*
X28367356Y-4355542D01*
X28355169Y-4310058D01*
X28355165Y-4310049D01*
X28286460Y-4191050D01*
X28280216Y-4143624D01*
X28309336Y-4105674D01*
X28340586Y-4097300D01*
X28937257Y-4097300D01*
X28981451Y-4115606D01*
X29002994Y-4137149D01*
X29021300Y-4181343D01*
X29021300Y-4755597D01*
X29012133Y-4785816D01*
X29012289Y-4785881D01*
X29011634Y-4787460D01*
X29010768Y-4790318D01*
X29009934Y-4791565D01*
X29009932Y-4791569D01*
X28998300Y-4850051D01*
X28998300Y-5264491D01*
X28979994Y-5308685D01*
X28968657Y-5320021D01*
X28922748Y-5423994D01*
X28919800Y-5449411D01*
X28919800Y-5867800D01*
X31277799Y-5867800D01*
X31277799Y-5449411D01*
X31274850Y-5423992D01*
X31274849Y-5423988D01*
X31268693Y-5410046D01*
X31267587Y-5362223D01*
X31300621Y-5327626D01*
X31325867Y-5322300D01*
X31680684Y-5322300D01*
X31766916Y-5322300D01*
X31860800Y-5322300D01*
X31904994Y-5340606D01*
X31923300Y-5384800D01*
X31923300Y-5503285D01*
X31923301Y-5503301D01*
X31939079Y-5602920D01*
X31939082Y-5602930D01*
X32000271Y-5723019D01*
X32095580Y-5818328D01*
X32215669Y-5879517D01*
X32215671Y-5879517D01*
X32215674Y-5879519D01*
X32215677Y-5879519D01*
X32215679Y-5879520D01*
X32315298Y-5895298D01*
X32315304Y-5895298D01*
X32315312Y-5895300D01*
X32315314Y-5895300D01*
X32882286Y-5895300D01*
X32882288Y-5895300D01*
X32981926Y-5879519D01*
X33102020Y-5818328D01*
X33164606Y-5755742D01*
X33208800Y-5737436D01*
X33252994Y-5755742D01*
X33271300Y-5799936D01*
X33271300Y-6100457D01*
X33252994Y-6144651D01*
X33208800Y-6162957D01*
X33171036Y-6150258D01*
X33110503Y-6104355D01*
X33110499Y-6104353D01*
X32975227Y-6051009D01*
X32890222Y-6040801D01*
X32890205Y-6040800D01*
X32750800Y-6040800D01*
X32750800Y-7548800D01*
X32890205Y-7548800D01*
X32890222Y-7548798D01*
X32975227Y-7538590D01*
X33110499Y-7485246D01*
X33110504Y-7485243D01*
X33171035Y-7439342D01*
X33217311Y-7427224D01*
X33258600Y-7451377D01*
X33271300Y-7489142D01*
X33271300Y-8425020D01*
X33252994Y-8469214D01*
X33208800Y-8487520D01*
X33164606Y-8469214D01*
X33112142Y-8416750D01*
X32999105Y-8359154D01*
X32999098Y-8359152D01*
X32905332Y-8344301D01*
X32905320Y-8344300D01*
X32905319Y-8344300D01*
X32905316Y-8344300D01*
X32292285Y-8344300D01*
X32292280Y-8344301D01*
X32198495Y-8359154D01*
X32198494Y-8359154D01*
X32085457Y-8416750D01*
X31995750Y-8506457D01*
X31938154Y-8619494D01*
X31938152Y-8619501D01*
X31923301Y-8713267D01*
X31923300Y-8713283D01*
X31923300Y-9176314D01*
X31923301Y-9176319D01*
X31938154Y-9270104D01*
X31938154Y-9270105D01*
X31981686Y-9355540D01*
X31995750Y-9383142D01*
X32085458Y-9472850D01*
X32165108Y-9513434D01*
X32197577Y-9529978D01*
X32198496Y-9530446D01*
X32198499Y-9530446D01*
X32198501Y-9530447D01*
X32292267Y-9545298D01*
X32292269Y-9545298D01*
X32292281Y-9545300D01*
X32905318Y-9545299D01*
X32999104Y-9530446D01*
X33112142Y-9472850D01*
X33201850Y-9383142D01*
X33253677Y-9281425D01*
X33290051Y-9250359D01*
X33309365Y-9247300D01*
X33491916Y-9247300D01*
X33491921Y-9247299D01*
X33516665Y-9240668D01*
X33575210Y-9224981D01*
X33649890Y-9181865D01*
X33860865Y-8970890D01*
X33903981Y-8896210D01*
X33922605Y-8826707D01*
X33926299Y-8812921D01*
X33926300Y-8812915D01*
X33926300Y-3226684D01*
X33926299Y-3226678D01*
X33905806Y-3150201D01*
X33903981Y-3143390D01*
X33860865Y-3068710D01*
X33799890Y-3007735D01*
X33649890Y-2857735D01*
X33575210Y-2814619D01*
X33575209Y-2814618D01*
X33575208Y-2814618D01*
X33491921Y-2792300D01*
X33491916Y-2792300D01*
X33309365Y-2792300D01*
X33265171Y-2773994D01*
X33253677Y-2758174D01*
X33232897Y-2717392D01*
X33201850Y-2656458D01*
X33112142Y-2566750D01*
X33049345Y-2534753D01*
X32999105Y-2509154D01*
X32999098Y-2509152D01*
X32905332Y-2494301D01*
X32905320Y-2494300D01*
X32905319Y-2494300D01*
X32905316Y-2494300D01*
X32292285Y-2494300D01*
X32292280Y-2494301D01*
X32198495Y-2509154D01*
X32198494Y-2509154D01*
X32085457Y-2566750D01*
X31995749Y-2656458D01*
X31943923Y-2758174D01*
X31907549Y-2789241D01*
X31888235Y-2792300D01*
X31815343Y-2792300D01*
X31771149Y-2773994D01*
X31752843Y-2729800D01*
X31771149Y-2685606D01*
X32393149Y-2063605D01*
X32437343Y-2045299D01*
X32905315Y-2045299D01*
X32905318Y-2045299D01*
X32999104Y-2030446D01*
X33112142Y-1972850D01*
X33201850Y-1883142D01*
X33259446Y-1770104D01*
X33274300Y-1676319D01*
X33274299Y-1213282D01*
X33259446Y-1119496D01*
X33201850Y-1006458D01*
X33112142Y-916750D01*
X33074276Y-897456D01*
X32999105Y-859154D01*
X32999098Y-859152D01*
X32905332Y-844301D01*
X32905320Y-844300D01*
X32905319Y-844300D01*
X32905316Y-844300D01*
X32292285Y-844300D01*
X32292280Y-844301D01*
X32198495Y-859154D01*
X32198494Y-859154D01*
X32085457Y-916750D01*
X31995750Y-1006457D01*
X31938154Y-1119494D01*
X31938152Y-1119501D01*
X31923301Y-1213267D01*
X31923300Y-1213283D01*
X31923300Y-1581256D01*
X31904994Y-1625450D01*
X30231451Y-3298994D01*
X30187257Y-3317300D01*
X30135343Y-3317300D01*
X30091149Y-3298994D01*
X29918092Y-3125937D01*
X29899786Y-3081743D01*
X29918092Y-3037549D01*
X29931036Y-3027617D01*
X30003640Y-2985698D01*
X30057455Y-2954628D01*
X30158628Y-2853455D01*
X30230168Y-2729545D01*
X30267200Y-2591340D01*
X30267200Y-2448260D01*
X30250933Y-2387549D01*
X30230169Y-2310058D01*
X30230165Y-2310049D01*
X30158630Y-2186148D01*
X30158623Y-2186139D01*
X30057460Y-2084976D01*
X30057451Y-2084969D01*
X29933550Y-2013434D01*
X29933541Y-2013430D01*
X29795346Y-1976401D01*
X29795341Y-1976400D01*
X29795340Y-1976400D01*
X29652260Y-1976400D01*
X29652259Y-1976400D01*
X29652253Y-1976401D01*
X29514058Y-2013430D01*
X29514053Y-2013432D01*
X29494370Y-2024796D01*
X29446943Y-2031038D01*
X29432303Y-2021800D01*
X28173001Y-2021800D01*
X28184784Y-2096199D01*
X28184785Y-2096203D01*
X28242882Y-2210224D01*
X28278485Y-2245827D01*
X28296791Y-2290021D01*
X28291466Y-2315264D01*
X28276215Y-2349804D01*
X28276215Y-2349805D01*
X28273300Y-2374936D01*
X28273300Y-2664664D01*
X28276215Y-2689792D01*
X28288402Y-2717392D01*
X28321594Y-2792565D01*
X28321595Y-2792566D01*
X28329635Y-2800606D01*
X28347941Y-2844800D01*
X28329635Y-2888994D01*
X28321595Y-2897033D01*
X28321594Y-2897034D01*
X28321594Y-2897035D01*
X28276215Y-2999809D01*
X28275296Y-3007735D01*
X28273300Y-3024936D01*
X28273300Y-3314668D01*
X28273301Y-3314669D01*
X28274456Y-3324632D01*
X28261362Y-3370640D01*
X28219569Y-3393913D01*
X28173561Y-3380819D01*
X28168178Y-3376023D01*
X27699894Y-2907739D01*
X27699890Y-2907735D01*
X27625210Y-2864619D01*
X27625209Y-2864618D01*
X27625208Y-2864618D01*
X27541921Y-2842300D01*
X27541916Y-2842300D01*
X27388800Y-2842300D01*
X27344606Y-2823994D01*
X27326300Y-2779800D01*
X27326300Y-2751684D01*
X27326299Y-2751678D01*
X27308594Y-2685606D01*
X27303981Y-2668390D01*
X27260865Y-2593710D01*
X27199890Y-2532735D01*
X27044148Y-2376993D01*
X27025842Y-2332799D01*
X27044148Y-2288605D01*
X27088342Y-2270299D01*
X27168663Y-2270299D01*
X27168664Y-2270299D01*
X27193791Y-2267385D01*
X27296565Y-2222006D01*
X27376006Y-2142565D01*
X27421385Y-2039791D01*
X27424300Y-2014665D01*
X27424299Y-1724936D01*
X27423471Y-1717799D01*
X28172999Y-1717799D01*
X28173000Y-1717800D01*
X28646800Y-1717800D01*
X28950800Y-1717800D01*
X29424598Y-1717800D01*
X29412815Y-1643400D01*
X29412814Y-1643396D01*
X29354717Y-1529375D01*
X29264224Y-1438882D01*
X29150200Y-1380784D01*
X29150195Y-1380782D01*
X29055608Y-1365801D01*
X29055593Y-1365800D01*
X28950800Y-1365800D01*
X28950800Y-1717800D01*
X28646800Y-1717800D01*
X28646800Y-1365800D01*
X28542010Y-1365800D01*
X28542005Y-1365801D01*
X28447399Y-1380784D01*
X28333375Y-1438882D01*
X28242882Y-1529375D01*
X28184784Y-1643399D01*
X28184782Y-1643404D01*
X28172999Y-1717799D01*
X27423471Y-1717799D01*
X27421385Y-1699809D01*
X27376006Y-1597035D01*
X27296565Y-1517594D01*
X27193791Y-1472215D01*
X27168665Y-1469300D01*
X27168663Y-1469300D01*
X26628936Y-1469300D01*
X26603807Y-1472215D01*
X26501033Y-1517595D01*
X26494635Y-1523994D01*
X26450441Y-1542300D01*
X26355672Y-1542300D01*
X26311478Y-1523994D01*
X26301546Y-1511051D01*
X26287628Y-1486945D01*
X26287623Y-1486939D01*
X26186460Y-1385776D01*
X26186451Y-1385769D01*
X26062550Y-1314234D01*
X26062541Y-1314230D01*
X25924346Y-1277201D01*
X25924341Y-1277200D01*
X25924340Y-1277200D01*
X25781260Y-1277200D01*
X25781259Y-1277200D01*
X25781253Y-1277201D01*
X25643058Y-1314230D01*
X25643049Y-1314234D01*
X25519148Y-1385769D01*
X25519139Y-1385776D01*
X25417976Y-1486939D01*
X25417969Y-1486948D01*
X25346434Y-1610849D01*
X25346431Y-1610857D01*
X25316844Y-1721275D01*
X25287724Y-1759225D01*
X25240297Y-1765468D01*
X25202349Y-1736349D01*
X25188028Y-1711545D01*
X25188023Y-1711539D01*
X25086860Y-1610376D01*
X25086851Y-1610369D01*
X24962950Y-1538834D01*
X24962945Y-1538832D01*
X24933120Y-1530840D01*
X24895170Y-1501719D01*
X24888927Y-1454293D01*
X24895171Y-1439219D01*
X24915767Y-1403546D01*
X24915768Y-1403545D01*
X24952800Y-1265340D01*
X24952800Y-1122260D01*
X24920097Y-1000212D01*
X24915769Y-984058D01*
X24915765Y-984049D01*
X24844230Y-860148D01*
X24844223Y-860139D01*
X24743060Y-758976D01*
X24743051Y-758969D01*
X24619150Y-687434D01*
X24619141Y-687430D01*
X24480946Y-650401D01*
X24480941Y-650400D01*
X24480940Y-650400D01*
X24337860Y-650400D01*
X24337859Y-650400D01*
X24337853Y-650401D01*
X24199658Y-687430D01*
X24199649Y-687434D01*
X24075748Y-758969D01*
X24075739Y-758976D01*
X23974576Y-860139D01*
X23974571Y-860145D01*
X23953030Y-897456D01*
X23915080Y-926576D01*
X23867653Y-920331D01*
X23862166Y-916767D01*
X23862145Y-916751D01*
X23749105Y-859154D01*
X23749098Y-859152D01*
X23655332Y-844301D01*
X23655320Y-844300D01*
X23655319Y-844300D01*
X23655317Y-844300D01*
X23212401Y-844300D01*
X23171215Y-828810D01*
X23009840Y-687430D01*
X22547739Y-282584D01*
X22524890Y-259735D01*
X22515413Y-254263D01*
X22507183Y-247053D01*
X22478192Y-232774D01*
X22450210Y-216619D01*
X22439640Y-213786D01*
X22434132Y-211073D01*
X22429826Y-208953D01*
X22429821Y-208951D01*
X22400159Y-203066D01*
X22396149Y-202132D01*
X22382111Y-198371D01*
X22344159Y-169252D01*
X22337914Y-121826D01*
X22367033Y-83874D01*
X22398285Y-75500D01*
X33853965Y-75500D01*
X33898159Y-93806D01*
X33916465Y-138000D01*
X33898159Y-182194D01*
X33870141Y-198370D01*
X33855019Y-202421D01*
X33855016Y-202422D01*
X33765226Y-254263D01*
X33718084Y-281480D01*
X33718083Y-281481D01*
X33718079Y-281484D01*
X33606284Y-393279D01*
X33606281Y-393283D01*
X33527222Y-530216D01*
X33527221Y-530219D01*
X33486301Y-682936D01*
X33486300Y-682944D01*
X33486300Y-841055D01*
X33486301Y-841063D01*
X33527221Y-993780D01*
X33527222Y-993783D01*
X33538568Y-1013434D01*
X33606280Y-1130716D01*
X33718084Y-1242520D01*
X33855014Y-1321576D01*
X33855016Y-1321577D01*
X33855019Y-1321578D01*
X33913467Y-1337239D01*
X34007743Y-1362500D01*
X34007744Y-1362500D01*
X34165856Y-1362500D01*
X34165857Y-1362500D01*
X34318584Y-1321577D01*
X34455516Y-1242520D01*
X34567320Y-1130716D01*
X34646377Y-993784D01*
X34648984Y-984055D01*
X34650430Y-978659D01*
X34679550Y-940708D01*
X34726976Y-934465D01*
X34764927Y-963585D01*
X34773300Y-994835D01*
X34773300Y-12054000D01*
X34754994Y-12098194D01*
X34710800Y-12116500D01*
X20106518Y-12116500D01*
X20062324Y-12098194D01*
X20044018Y-12054000D01*
X20062324Y-12009806D01*
X20083590Y-11995858D01*
X20110499Y-11985246D01*
X20110504Y-11985243D01*
X20226375Y-11897375D01*
X20314243Y-11781504D01*
X20314246Y-11781499D01*
X20367590Y-11646227D01*
X20377798Y-11561222D01*
X20377800Y-11561205D01*
X20377800Y-11421800D01*
X18869800Y-11421800D01*
X18869800Y-11561205D01*
X18869801Y-11561222D01*
X18880009Y-11646227D01*
X18933353Y-11781499D01*
X18933356Y-11781504D01*
X19021224Y-11897375D01*
X19137095Y-11985243D01*
X19137100Y-11985246D01*
X19164010Y-11995858D01*
X19198408Y-12029100D01*
X19199224Y-12076928D01*
X19165982Y-12111326D01*
X19141082Y-12116500D01*
X9884834Y-12116500D01*
X9840640Y-12098194D01*
X9822334Y-12054000D01*
X9840640Y-12009806D01*
X9868656Y-11993630D01*
X9883784Y-11989577D01*
X10020716Y-11910520D01*
X10132520Y-11798716D01*
X10211577Y-11661784D01*
X10252500Y-11509057D01*
X10252500Y-11482307D01*
X10270806Y-11438113D01*
X10315000Y-11419807D01*
X10359194Y-11438113D01*
X10403388Y-11482307D01*
X10420121Y-11499040D01*
X10420125Y-11499043D01*
X10497759Y-11543866D01*
X10497760Y-11543866D01*
X10512173Y-11552187D01*
X10512175Y-11552187D01*
X10512177Y-11552189D01*
X10512178Y-11552189D01*
X10512180Y-11552190D01*
X10545889Y-11561222D01*
X10614851Y-11579700D01*
X10614852Y-11579700D01*
X13977161Y-11579700D01*
X14021355Y-11598006D01*
X14032849Y-11613826D01*
X14050271Y-11648019D01*
X14145580Y-11743328D01*
X14265669Y-11804517D01*
X14265671Y-11804517D01*
X14265674Y-11804519D01*
X14265677Y-11804519D01*
X14265679Y-11804520D01*
X14365298Y-11820298D01*
X14365304Y-11820298D01*
X14365312Y-11820300D01*
X14365314Y-11820300D01*
X14932286Y-11820300D01*
X14932288Y-11820300D01*
X15030462Y-11804751D01*
X15031920Y-11804520D01*
X15031920Y-11804519D01*
X15031926Y-11804519D01*
X15152020Y-11743328D01*
X15247328Y-11648020D01*
X15268521Y-11606425D01*
X15304895Y-11575359D01*
X15324209Y-11572300D01*
X15745971Y-11572300D01*
X15790165Y-11590606D01*
X15801659Y-11606426D01*
X15822851Y-11648019D01*
X15824142Y-11650551D01*
X15918049Y-11744458D01*
X16036380Y-11804751D01*
X16036383Y-11804751D01*
X16036385Y-11804752D01*
X16134540Y-11820298D01*
X16134546Y-11820298D01*
X16134554Y-11820300D01*
X16134556Y-11820300D01*
X16713044Y-11820300D01*
X16713046Y-11820300D01*
X16811220Y-11804751D01*
X16929551Y-11744458D01*
X17023458Y-11650551D01*
X17083751Y-11532220D01*
X17099300Y-11434046D01*
X17099300Y-10930554D01*
X17096252Y-10911312D01*
X17083752Y-10832385D01*
X17083750Y-10832378D01*
X17073198Y-10811669D01*
X17023458Y-10714049D01*
X16929551Y-10620142D01*
X16909805Y-10610081D01*
X16811221Y-10559849D01*
X16811214Y-10559847D01*
X16713059Y-10544301D01*
X16713047Y-10544300D01*
X16713046Y-10544300D01*
X16134554Y-10544300D01*
X16134552Y-10544300D01*
X16134540Y-10544301D01*
X16036385Y-10559847D01*
X16036378Y-10559849D01*
X15918048Y-10620142D01*
X15824142Y-10714048D01*
X15763849Y-10832378D01*
X15763849Y-10832379D01*
X15763849Y-10832380D01*
X15758749Y-10864578D01*
X15733755Y-10905364D01*
X15697019Y-10917300D01*
X15378629Y-10917300D01*
X15334435Y-10898994D01*
X15316899Y-10864578D01*
X15308520Y-10811679D01*
X15308519Y-10811677D01*
X15308519Y-10811674D01*
X15308517Y-10811671D01*
X15308517Y-10811669D01*
X15247328Y-10691580D01*
X15152019Y-10596271D01*
X15031930Y-10535082D01*
X15031920Y-10535079D01*
X14932301Y-10519301D01*
X14932289Y-10519300D01*
X14932288Y-10519300D01*
X14365312Y-10519300D01*
X14365310Y-10519300D01*
X14365298Y-10519301D01*
X14265679Y-10535079D01*
X14265669Y-10535082D01*
X14145580Y-10596271D01*
X14050271Y-10691580D01*
X14026531Y-10738174D01*
X13990157Y-10769241D01*
X13970843Y-10772300D01*
X10861106Y-10772300D01*
X10816912Y-10753994D01*
X9797306Y-9734388D01*
X9779000Y-9690194D01*
X9779000Y-7435200D01*
X9797306Y-7391006D01*
X9841500Y-7372700D01*
X10752343Y-7372700D01*
X10796537Y-7391006D01*
X10811784Y-7415887D01*
X10813153Y-7420103D01*
X10870749Y-7533141D01*
X10960458Y-7622850D01*
X11012174Y-7649200D01*
X11043241Y-7685574D01*
X11046300Y-7704888D01*
X11046300Y-8844389D01*
X11027994Y-8888583D01*
X11012176Y-8900076D01*
X10970580Y-8921271D01*
X10875271Y-9016580D01*
X10814082Y-9136669D01*
X10814079Y-9136679D01*
X10798301Y-9236298D01*
X10798300Y-9236314D01*
X10798300Y-9803285D01*
X10798301Y-9803301D01*
X10814079Y-9902920D01*
X10814082Y-9902930D01*
X10875271Y-10023019D01*
X10970580Y-10118328D01*
X11090669Y-10179517D01*
X11090671Y-10179517D01*
X11090674Y-10179519D01*
X11090677Y-10179519D01*
X11090679Y-10179520D01*
X11190298Y-10195298D01*
X11190304Y-10195298D01*
X11190312Y-10195300D01*
X11190314Y-10195300D01*
X11707286Y-10195300D01*
X11707288Y-10195300D01*
X11708242Y-10195149D01*
X11806920Y-10179520D01*
X11806920Y-10179519D01*
X11806926Y-10179519D01*
X11927020Y-10118328D01*
X12022328Y-10023020D01*
X12083519Y-9902926D01*
X12098046Y-9811205D01*
X12244800Y-9811205D01*
X12244801Y-9811222D01*
X12255009Y-9896227D01*
X12308353Y-10031499D01*
X12308356Y-10031504D01*
X12396224Y-10147375D01*
X12512095Y-10235243D01*
X12512100Y-10235246D01*
X12647372Y-10288590D01*
X12732377Y-10298798D01*
X12732395Y-10298800D01*
X12846800Y-10298800D01*
X13150800Y-10298800D01*
X13265205Y-10298800D01*
X13265222Y-10298798D01*
X13350227Y-10288590D01*
X13485499Y-10235246D01*
X13485504Y-10235243D01*
X13601375Y-10147375D01*
X13689243Y-10031504D01*
X13689246Y-10031499D01*
X13742590Y-9896227D01*
X13745246Y-9874116D01*
X13768690Y-9832420D01*
X13814752Y-9819514D01*
X13856448Y-9842958D01*
X13869800Y-9881568D01*
X13869800Y-9886205D01*
X13869801Y-9886222D01*
X13880009Y-9971227D01*
X13933353Y-10106499D01*
X13933356Y-10106504D01*
X14021224Y-10222375D01*
X14137095Y-10310243D01*
X14137100Y-10310246D01*
X14272372Y-10363590D01*
X14357377Y-10373798D01*
X14357395Y-10373800D01*
X14496800Y-10373800D01*
X14800800Y-10373800D01*
X14940205Y-10373800D01*
X14940222Y-10373798D01*
X15025227Y-10363590D01*
X15160499Y-10310246D01*
X15160504Y-10310243D01*
X15276375Y-10222375D01*
X15364243Y-10106504D01*
X15364246Y-10106499D01*
X15417590Y-9971227D01*
X15427798Y-9886222D01*
X15427800Y-9886205D01*
X15427800Y-9771800D01*
X14800800Y-9771800D01*
X14800800Y-10373800D01*
X14496800Y-10373800D01*
X14496800Y-9771800D01*
X13869800Y-9771800D01*
X13859494Y-9782106D01*
X13815300Y-9800412D01*
X13771106Y-9782106D01*
X13752800Y-9737912D01*
X13752800Y-9671800D01*
X13150800Y-9671800D01*
X13150800Y-10298800D01*
X12846800Y-10298800D01*
X12846800Y-9671800D01*
X12244800Y-9671800D01*
X12244800Y-9811205D01*
X12098046Y-9811205D01*
X12099300Y-9803288D01*
X12099300Y-9403785D01*
X13869800Y-9403785D01*
X13869800Y-9467800D01*
X14496800Y-9467800D01*
X14800800Y-9467800D01*
X15427800Y-9467800D01*
X15427800Y-9353394D01*
X15427798Y-9353377D01*
X15417590Y-9268372D01*
X15364246Y-9133100D01*
X15364243Y-9133095D01*
X15276375Y-9017224D01*
X15160504Y-8929356D01*
X15160499Y-8929353D01*
X15025227Y-8876009D01*
X14940222Y-8865801D01*
X14940205Y-8865800D01*
X14800800Y-8865800D01*
X14800800Y-9467800D01*
X14496800Y-9467800D01*
X14496800Y-8865800D01*
X14357395Y-8865800D01*
X14357377Y-8865801D01*
X14272372Y-8876009D01*
X14137100Y-8929353D01*
X14137095Y-8929356D01*
X14021224Y-9017224D01*
X13933356Y-9133095D01*
X13933353Y-9133100D01*
X13880009Y-9268372D01*
X13877547Y-9288868D01*
X13869800Y-9403785D01*
X12099300Y-9403785D01*
X12099300Y-9236312D01*
X12099298Y-9236298D01*
X12099298Y-9236295D01*
X12099297Y-9236286D01*
X12099297Y-9236285D01*
X12098047Y-9228394D01*
X12244800Y-9228394D01*
X12244800Y-9367800D01*
X12846800Y-9367800D01*
X13150800Y-9367800D01*
X13746943Y-9367800D01*
X13752800Y-9280933D01*
X13752800Y-9228394D01*
X13752798Y-9228377D01*
X13742590Y-9143372D01*
X13689246Y-9008100D01*
X13689243Y-9008095D01*
X13601375Y-8892224D01*
X13485504Y-8804356D01*
X13485499Y-8804353D01*
X13350227Y-8751009D01*
X13265222Y-8740801D01*
X13265205Y-8740800D01*
X13150800Y-8740800D01*
X13150800Y-9367800D01*
X12846800Y-9367800D01*
X12846800Y-8740800D01*
X12732395Y-8740800D01*
X12732377Y-8740801D01*
X12647372Y-8751009D01*
X12512100Y-8804353D01*
X12512095Y-8804356D01*
X12396224Y-8892224D01*
X12308356Y-9008095D01*
X12308353Y-9008100D01*
X12255009Y-9143372D01*
X12244801Y-9228377D01*
X12244800Y-9228394D01*
X12098047Y-9228394D01*
X12083520Y-9136678D01*
X12083517Y-9136669D01*
X12022328Y-9016580D01*
X11927019Y-8921271D01*
X11806930Y-8860082D01*
X11806920Y-8860079D01*
X11754022Y-8851701D01*
X11713236Y-8826707D01*
X11701300Y-8789971D01*
X11701300Y-7730364D01*
X11719606Y-7686170D01*
X11735420Y-7674679D01*
X11837142Y-7622850D01*
X11926850Y-7533142D01*
X11984446Y-7420104D01*
X11991954Y-7372700D01*
X11999298Y-7326332D01*
X11999298Y-7326331D01*
X11999300Y-7326319D01*
X11999299Y-6713282D01*
X11984446Y-6619496D01*
X11926850Y-6506458D01*
X11837142Y-6416750D01*
X11830263Y-6413245D01*
X11724105Y-6359154D01*
X11724098Y-6359152D01*
X11630332Y-6344301D01*
X11630320Y-6344300D01*
X11630319Y-6344300D01*
X11630316Y-6344300D01*
X11167285Y-6344300D01*
X11167280Y-6344301D01*
X11073495Y-6359154D01*
X11073494Y-6359154D01*
X10960457Y-6416750D01*
X10870750Y-6506457D01*
X10813154Y-6619495D01*
X10811785Y-6623711D01*
X10780720Y-6660087D01*
X10752343Y-6666900D01*
X9841500Y-6666900D01*
X9797306Y-6648594D01*
X9779000Y-6604400D01*
X9779000Y-5435200D01*
X9797306Y-5391006D01*
X9841500Y-5372700D01*
X10752343Y-5372700D01*
X10796537Y-5391006D01*
X10811784Y-5415887D01*
X10813153Y-5420103D01*
X10865190Y-5522229D01*
X10870750Y-5533142D01*
X10960458Y-5622850D01*
X11073496Y-5680446D01*
X11073499Y-5680446D01*
X11073501Y-5680447D01*
X11167267Y-5695298D01*
X11167269Y-5695298D01*
X11167281Y-5695300D01*
X11630318Y-5695299D01*
X11724104Y-5680446D01*
X11837142Y-5622850D01*
X11926850Y-5533142D01*
X11984446Y-5420104D01*
X11999300Y-5326319D01*
X11999299Y-5258003D01*
X12007456Y-5227131D01*
X12009020Y-5224378D01*
X12015239Y-5213430D01*
X12053825Y-5065260D01*
X12052746Y-4912152D01*
X12012078Y-4764540D01*
X12012077Y-4764536D01*
X12012076Y-4764535D01*
X12007893Y-4757405D01*
X11999299Y-4725777D01*
X11999299Y-4713285D01*
X11999299Y-4713283D01*
X11999299Y-4713282D01*
X11984446Y-4619496D01*
X11926850Y-4506458D01*
X11837142Y-4416750D01*
X11837138Y-4416748D01*
X11735425Y-4364922D01*
X11704359Y-4328547D01*
X11701300Y-4309234D01*
X11701300Y-3249628D01*
X11719606Y-3205434D01*
X11754020Y-3187898D01*
X11806926Y-3179519D01*
X11814039Y-3175895D01*
X11816543Y-3174619D01*
X11927020Y-3118328D01*
X12022328Y-3023020D01*
X12083519Y-2902926D01*
X12089586Y-2864618D01*
X12098046Y-2811205D01*
X12244800Y-2811205D01*
X12244801Y-2811222D01*
X12255009Y-2896227D01*
X12308353Y-3031499D01*
X12308356Y-3031504D01*
X12396224Y-3147375D01*
X12512095Y-3235243D01*
X12512100Y-3235246D01*
X12647372Y-3288590D01*
X12732377Y-3298798D01*
X12732395Y-3298800D01*
X12846800Y-3298800D01*
X13150800Y-3298800D01*
X13265205Y-3298800D01*
X13265222Y-3298798D01*
X13350227Y-3288590D01*
X13485499Y-3235246D01*
X13485504Y-3235243D01*
X13601375Y-3147375D01*
X13689243Y-3031504D01*
X13689246Y-3031499D01*
X13742590Y-2896227D01*
X13752798Y-2811222D01*
X13752800Y-2811205D01*
X13752800Y-2671800D01*
X13150800Y-2671800D01*
X13150800Y-3298800D01*
X12846800Y-3298800D01*
X12846800Y-2671800D01*
X12244800Y-2671800D01*
X12244800Y-2811205D01*
X12098046Y-2811205D01*
X12099298Y-2803301D01*
X12099300Y-2803285D01*
X12099300Y-2379994D01*
X15319800Y-2379994D01*
X15319800Y-2519400D01*
X15921800Y-2519400D01*
X15921800Y-1892400D01*
X15807395Y-1892400D01*
X15807377Y-1892401D01*
X15722372Y-1902609D01*
X15587100Y-1955953D01*
X15587095Y-1955956D01*
X15471224Y-2043824D01*
X15383356Y-2159695D01*
X15383353Y-2159700D01*
X15330009Y-2294972D01*
X15319801Y-2379977D01*
X15319800Y-2379994D01*
X12099300Y-2379994D01*
X12099300Y-2236314D01*
X12099298Y-2236295D01*
X12099297Y-2236286D01*
X12099297Y-2236285D01*
X12098047Y-2228394D01*
X12244800Y-2228394D01*
X12244800Y-2367800D01*
X12846800Y-2367800D01*
X13150800Y-2367800D01*
X13752800Y-2367800D01*
X13752800Y-2228394D01*
X13752798Y-2228377D01*
X13742590Y-2143372D01*
X13689246Y-2008100D01*
X13689243Y-2008095D01*
X13601375Y-1892224D01*
X13485504Y-1804356D01*
X13485499Y-1804353D01*
X13350227Y-1751009D01*
X13265222Y-1740801D01*
X13265205Y-1740800D01*
X13150800Y-1740800D01*
X13150800Y-2367800D01*
X12846800Y-2367800D01*
X12846800Y-1740800D01*
X12732395Y-1740800D01*
X12732377Y-1740801D01*
X12647372Y-1751009D01*
X12512100Y-1804353D01*
X12512095Y-1804356D01*
X12396224Y-1892224D01*
X12308356Y-2008095D01*
X12308353Y-2008100D01*
X12255009Y-2143372D01*
X12244801Y-2228377D01*
X12244800Y-2228394D01*
X12098047Y-2228394D01*
X12083520Y-2136678D01*
X12083517Y-2136669D01*
X12022328Y-2016580D01*
X11927019Y-1921271D01*
X11806930Y-1860082D01*
X11806920Y-1860079D01*
X11707301Y-1844301D01*
X11707289Y-1844300D01*
X11707288Y-1844300D01*
X11190312Y-1844300D01*
X11190310Y-1844300D01*
X11190298Y-1844301D01*
X11090679Y-1860079D01*
X11090669Y-1860082D01*
X10970580Y-1921271D01*
X10875271Y-2016580D01*
X10814082Y-2136669D01*
X10814079Y-2136679D01*
X10798301Y-2236298D01*
X10798300Y-2236314D01*
X10798300Y-2803285D01*
X10798301Y-2803301D01*
X10814079Y-2902920D01*
X10814082Y-2902930D01*
X10875271Y-3023019D01*
X10970580Y-3118328D01*
X11012174Y-3139521D01*
X11043241Y-3175895D01*
X11046300Y-3195209D01*
X11046300Y-4334710D01*
X11027994Y-4378904D01*
X11012175Y-4390397D01*
X10960459Y-4416748D01*
X10870750Y-4506457D01*
X10813154Y-4619495D01*
X10811785Y-4623711D01*
X10780720Y-4660087D01*
X10752343Y-4666900D01*
X9841500Y-4666900D01*
X9797306Y-4648594D01*
X9779000Y-4604400D01*
X9779000Y-1397610D01*
X9797306Y-1353416D01*
X9825318Y-1337242D01*
X9883784Y-1321577D01*
X10020716Y-1242520D01*
X10132520Y-1130716D01*
X10211577Y-993784D01*
X10252500Y-841057D01*
X10252500Y-682943D01*
X10211577Y-530216D01*
X10132520Y-393284D01*
X10020716Y-281480D01*
X9916480Y-221300D01*
X9883783Y-202422D01*
X9883780Y-202421D01*
X9868659Y-198370D01*
X9830708Y-169250D01*
X9824465Y-121824D01*
X9853585Y-83873D01*
X9884835Y-75500D01*
X18774610Y-75500D01*
X18818804Y-93806D01*
G37*
%TD.AperFunction*%
%TA.AperFunction,Conductor*%
G36*
X22218309Y-864788D02*
G01*
X22651986Y-1244731D01*
X22673164Y-1287622D01*
X22673300Y-1291741D01*
X22673300Y-1676314D01*
X22673301Y-1676319D01*
X22688154Y-1770104D01*
X22688154Y-1770105D01*
X22725959Y-1844300D01*
X22745750Y-1883142D01*
X22835458Y-1972850D01*
X22948496Y-2030446D01*
X22948499Y-2030446D01*
X22948501Y-2030447D01*
X23042267Y-2045298D01*
X23042269Y-2045298D01*
X23042281Y-2045300D01*
X23655318Y-2045299D01*
X23749104Y-2030446D01*
X23862142Y-1972850D01*
X23951850Y-1883142D01*
X24009446Y-1770104D01*
X24021305Y-1695226D01*
X24046298Y-1654443D01*
X24092812Y-1643275D01*
X24114283Y-1650878D01*
X24199655Y-1700168D01*
X24229479Y-1708159D01*
X24267428Y-1737279D01*
X24273673Y-1784705D01*
X24267429Y-1799778D01*
X24246833Y-1835451D01*
X24246830Y-1835458D01*
X24209801Y-1973653D01*
X24209800Y-1973661D01*
X24209800Y-2116738D01*
X24209801Y-2116746D01*
X24246830Y-2254941D01*
X24246834Y-2254950D01*
X24318369Y-2378851D01*
X24318376Y-2378860D01*
X24422441Y-2482925D01*
X24420872Y-2484493D01*
X24441224Y-2519726D01*
X24441724Y-2525789D01*
X24475230Y-3519098D01*
X24475463Y-3526015D01*
X24474189Y-3532762D01*
X24476913Y-3569000D01*
X24476957Y-3570299D01*
X24476957Y-3570306D01*
X24478139Y-3605326D01*
X24478186Y-3605607D01*
X24480607Y-3618523D01*
X24480655Y-3618753D01*
X24492242Y-3651841D01*
X24492668Y-3653057D01*
X24503254Y-3687827D01*
X24506884Y-3693653D01*
X24509154Y-3700134D01*
X24509155Y-3700136D01*
X24509156Y-3700137D01*
X24528924Y-3729116D01*
X24530311Y-3731244D01*
X24548863Y-3761011D01*
X24553882Y-3765702D01*
X24557751Y-3771374D01*
X24585289Y-3795060D01*
X24586234Y-3795943D01*
X24586235Y-3795944D01*
X24611858Y-3819895D01*
X24612066Y-3820044D01*
X24623165Y-3827639D01*
X24946412Y-4105674D01*
X24951556Y-4110098D01*
X24973124Y-4152795D01*
X24973300Y-4157481D01*
X24973300Y-4750300D01*
X24954994Y-4794494D01*
X24910800Y-4812800D01*
X24879550Y-4804427D01*
X24808544Y-4763431D01*
X24808541Y-4763430D01*
X24670346Y-4726401D01*
X24670341Y-4726400D01*
X24670340Y-4726400D01*
X24527260Y-4726400D01*
X24527259Y-4726400D01*
X24527253Y-4726401D01*
X24389058Y-4763430D01*
X24389049Y-4763434D01*
X24265148Y-4834969D01*
X24265139Y-4834976D01*
X24176123Y-4923994D01*
X24131929Y-4942300D01*
X24070709Y-4942300D01*
X24026515Y-4923994D01*
X24008978Y-4889575D01*
X24008519Y-4886674D01*
X24008517Y-4886670D01*
X24008517Y-4886669D01*
X23947328Y-4766580D01*
X23852019Y-4671271D01*
X23731930Y-4610082D01*
X23731920Y-4610079D01*
X23632301Y-4594301D01*
X23632289Y-4594300D01*
X23632288Y-4594300D01*
X23065312Y-4594300D01*
X23065310Y-4594300D01*
X23065298Y-4594301D01*
X22965679Y-4610079D01*
X22965669Y-4610082D01*
X22845580Y-4671271D01*
X22750271Y-4766580D01*
X22689082Y-4886669D01*
X22689079Y-4886679D01*
X22673301Y-4986298D01*
X22673300Y-4986314D01*
X22673300Y-5503285D01*
X22673301Y-5503301D01*
X22689079Y-5602920D01*
X22689082Y-5602930D01*
X22750271Y-5723019D01*
X22845580Y-5818328D01*
X22965669Y-5879517D01*
X22965671Y-5879517D01*
X22965674Y-5879519D01*
X22965677Y-5879519D01*
X22965679Y-5879520D01*
X23065298Y-5895298D01*
X23065304Y-5895298D01*
X23065312Y-5895300D01*
X23065314Y-5895300D01*
X23632286Y-5895300D01*
X23632288Y-5895300D01*
X23731926Y-5879519D01*
X23852020Y-5818328D01*
X23947328Y-5723020D01*
X23993998Y-5631424D01*
X24001644Y-5624894D01*
X24005492Y-5615606D01*
X24019139Y-5609952D01*
X24030373Y-5600359D01*
X24049686Y-5597300D01*
X24131929Y-5597300D01*
X24176123Y-5615606D01*
X24265139Y-5704623D01*
X24265148Y-5704630D01*
X24284276Y-5715674D01*
X24313397Y-5753624D01*
X24307152Y-5801050D01*
X24284276Y-5823926D01*
X24265148Y-5834969D01*
X24265139Y-5834976D01*
X24163976Y-5936139D01*
X24163969Y-5936148D01*
X24092434Y-6060049D01*
X24092431Y-6060057D01*
X24067459Y-6153253D01*
X24038339Y-6191203D01*
X23990912Y-6197446D01*
X23969324Y-6186877D01*
X23860499Y-6104353D01*
X23725227Y-6051009D01*
X23640222Y-6040801D01*
X23640205Y-6040800D01*
X23500800Y-6040800D01*
X23500800Y-6642800D01*
X24136902Y-6642800D01*
X24165558Y-6630930D01*
X24209752Y-6649236D01*
X24265139Y-6704623D01*
X24265148Y-6704630D01*
X24389049Y-6776165D01*
X24389052Y-6776166D01*
X24389055Y-6776168D01*
X24389056Y-6776168D01*
X24389058Y-6776169D01*
X24433608Y-6788106D01*
X24527260Y-6813200D01*
X24527261Y-6813200D01*
X24670339Y-6813200D01*
X24670340Y-6813200D01*
X24808545Y-6776168D01*
X24890846Y-6728650D01*
X24938272Y-6722406D01*
X24976222Y-6751527D01*
X24982467Y-6798953D01*
X24979272Y-6808018D01*
X24976094Y-6815216D01*
X24976093Y-6815219D01*
X24973300Y-6839296D01*
X24973300Y-8000303D01*
X24976093Y-8024382D01*
X25015974Y-8114700D01*
X25021300Y-8139946D01*
X25021300Y-8358257D01*
X25002994Y-8402451D01*
X24831451Y-8573994D01*
X24787257Y-8592300D01*
X24033889Y-8592300D01*
X23989695Y-8573994D01*
X23978201Y-8558175D01*
X23971740Y-8545495D01*
X23951850Y-8506458D01*
X23862142Y-8416750D01*
X23834079Y-8402451D01*
X23749105Y-8359154D01*
X23749098Y-8359152D01*
X23655332Y-8344301D01*
X23655320Y-8344300D01*
X23655319Y-8344300D01*
X23655316Y-8344300D01*
X23042285Y-8344300D01*
X23042280Y-8344301D01*
X22948495Y-8359154D01*
X22948494Y-8359154D01*
X22835457Y-8416750D01*
X22745750Y-8506457D01*
X22688154Y-8619494D01*
X22688152Y-8619501D01*
X22673301Y-8713267D01*
X22673300Y-8713283D01*
X22673300Y-8956256D01*
X22654994Y-9000450D01*
X22447350Y-9208094D01*
X22403156Y-9226400D01*
X22277260Y-9226400D01*
X22277259Y-9226400D01*
X22277253Y-9226401D01*
X22139058Y-9263430D01*
X22139055Y-9263431D01*
X22111043Y-9279605D01*
X22063617Y-9285848D01*
X22025666Y-9256728D01*
X22018063Y-9215700D01*
X22022612Y-9186975D01*
X22024300Y-9176319D01*
X22024299Y-8713282D01*
X22009446Y-8619496D01*
X21951850Y-8506458D01*
X21862142Y-8416750D01*
X21834079Y-8402451D01*
X21749105Y-8359154D01*
X21749099Y-8359153D01*
X21729020Y-8355972D01*
X21688235Y-8330977D01*
X21676300Y-8294242D01*
X21676300Y-7491709D01*
X21694606Y-7447515D01*
X21729023Y-7429978D01*
X21731926Y-7429519D01*
X21852020Y-7368328D01*
X21947328Y-7273020D01*
X22008519Y-7152926D01*
X22021685Y-7069800D01*
X22023046Y-7061205D01*
X22569800Y-7061205D01*
X22569801Y-7061222D01*
X22580009Y-7146227D01*
X22633353Y-7281499D01*
X22633356Y-7281504D01*
X22721224Y-7397375D01*
X22837095Y-7485243D01*
X22837100Y-7485246D01*
X22972372Y-7538590D01*
X23057377Y-7548798D01*
X23057395Y-7548800D01*
X23196800Y-7548800D01*
X23500800Y-7548800D01*
X23640205Y-7548800D01*
X23640222Y-7548798D01*
X23725227Y-7538590D01*
X23860499Y-7485246D01*
X23860504Y-7485243D01*
X23976375Y-7397375D01*
X24064243Y-7281504D01*
X24064246Y-7281499D01*
X24117590Y-7146227D01*
X24127798Y-7061222D01*
X24127800Y-7061205D01*
X24127800Y-6946800D01*
X23500800Y-6946800D01*
X23500800Y-7548800D01*
X23196800Y-7548800D01*
X23196800Y-6946800D01*
X22569800Y-6946800D01*
X22569800Y-7061205D01*
X22023046Y-7061205D01*
X22024298Y-7053301D01*
X22024300Y-7053285D01*
X22024300Y-6536314D01*
X22024298Y-6536295D01*
X22024297Y-6536286D01*
X22024297Y-6536285D01*
X22023047Y-6528394D01*
X22569800Y-6528394D01*
X22569800Y-6642800D01*
X23196800Y-6642800D01*
X23196800Y-6040800D01*
X23057395Y-6040800D01*
X23057377Y-6040801D01*
X22972372Y-6051009D01*
X22837100Y-6104353D01*
X22837095Y-6104356D01*
X22721224Y-6192224D01*
X22633356Y-6308095D01*
X22633353Y-6308100D01*
X22580009Y-6443372D01*
X22569801Y-6528377D01*
X22569800Y-6528394D01*
X22023047Y-6528394D01*
X22008520Y-6436678D01*
X22008517Y-6436669D01*
X21947328Y-6316580D01*
X21852019Y-6221271D01*
X21731930Y-6160082D01*
X21731920Y-6160079D01*
X21632301Y-6144301D01*
X21632289Y-6144300D01*
X21632288Y-6144300D01*
X21065312Y-6144300D01*
X21065310Y-6144300D01*
X21065298Y-6144301D01*
X20965679Y-6160079D01*
X20965669Y-6160082D01*
X20845580Y-6221271D01*
X20750271Y-6316580D01*
X20689082Y-6436669D01*
X20689079Y-6436679D01*
X20673301Y-6536298D01*
X20673300Y-6536314D01*
X20673300Y-6694810D01*
X20654994Y-6739004D01*
X20610800Y-6757310D01*
X20566606Y-6739004D01*
X20556674Y-6726061D01*
X20533628Y-6686145D01*
X20533623Y-6686139D01*
X20432460Y-6584976D01*
X20432454Y-6584971D01*
X20416906Y-6575995D01*
X20413323Y-6573926D01*
X20384203Y-6535977D01*
X20390446Y-6488551D01*
X20413323Y-6465673D01*
X20432455Y-6454628D01*
X20533628Y-6353455D01*
X20605168Y-6229545D01*
X20642200Y-6091340D01*
X20642200Y-5948260D01*
X20638486Y-5934401D01*
X20635335Y-5922639D01*
X20641578Y-5875213D01*
X20679528Y-5846092D01*
X20726954Y-5852335D01*
X20733470Y-5856662D01*
X20837095Y-5935243D01*
X20837100Y-5935246D01*
X20972372Y-5988590D01*
X21057377Y-5998798D01*
X21057395Y-5998800D01*
X21196800Y-5998800D01*
X21500800Y-5998800D01*
X21640205Y-5998800D01*
X21640222Y-5998798D01*
X21725227Y-5988590D01*
X21860499Y-5935246D01*
X21860504Y-5935243D01*
X21976375Y-5847375D01*
X22064243Y-5731504D01*
X22064246Y-5731499D01*
X22117590Y-5596227D01*
X22127798Y-5511222D01*
X22127800Y-5511205D01*
X22127800Y-5396800D01*
X21500800Y-5396800D01*
X21500800Y-5998800D01*
X21196800Y-5998800D01*
X21196800Y-5396800D01*
X20569800Y-5396800D01*
X20569800Y-5511205D01*
X20569801Y-5511225D01*
X20577061Y-5571684D01*
X20564155Y-5617745D01*
X20522458Y-5641189D01*
X20476397Y-5628283D01*
X20470813Y-5623329D01*
X20432460Y-5584976D01*
X20432451Y-5584969D01*
X20308550Y-5513434D01*
X20308541Y-5513430D01*
X20170346Y-5476401D01*
X20170341Y-5476400D01*
X20170340Y-5476400D01*
X20044530Y-5476400D01*
X20000336Y-5458094D01*
X19982030Y-5413900D01*
X19998957Y-5371129D01*
X20041014Y-5326317D01*
X20469141Y-4870141D01*
X20512732Y-4850444D01*
X20557484Y-4867340D01*
X20577182Y-4910932D01*
X20576767Y-4920364D01*
X20569801Y-4978374D01*
X20569800Y-4978394D01*
X20569800Y-5092800D01*
X21196800Y-5092800D01*
X21196800Y-4490800D01*
X21057395Y-4490800D01*
X21057377Y-4490801D01*
X20972372Y-4501009D01*
X20837100Y-4554353D01*
X20837096Y-4554355D01*
X20777704Y-4599394D01*
X20759277Y-4604218D01*
X20741919Y-4612062D01*
X20736761Y-4610114D01*
X20731429Y-4611511D01*
X20714987Y-4601892D01*
X20697167Y-4595164D01*
X20694897Y-4590140D01*
X20690139Y-4587357D01*
X20677472Y-4551575D01*
X20676331Y-4515580D01*
X20676300Y-4513601D01*
X20676300Y-4486672D01*
X20694606Y-4442478D01*
X20783623Y-4353460D01*
X20783628Y-4353455D01*
X20855168Y-4229545D01*
X20892200Y-4091340D01*
X20892200Y-3948260D01*
X20875550Y-3886120D01*
X20869016Y-3861734D01*
X20875259Y-3814308D01*
X20913210Y-3785188D01*
X20951230Y-3787000D01*
X20965562Y-3792346D01*
X21025588Y-3798799D01*
X21196799Y-3798799D01*
X21196800Y-3798798D01*
X21196800Y-3246800D01*
X21500800Y-3246800D01*
X21500800Y-3798799D01*
X21672003Y-3798799D01*
X21672019Y-3798798D01*
X21732034Y-3792346D01*
X21732038Y-3792345D01*
X21814835Y-3761463D01*
X21862640Y-3763170D01*
X21895236Y-3798180D01*
X21893529Y-3845985D01*
X21890804Y-3851272D01*
X21842431Y-3935055D01*
X21842430Y-3935058D01*
X21805401Y-4073253D01*
X21805400Y-4073261D01*
X21805400Y-4216338D01*
X21805401Y-4216346D01*
X21842430Y-4354541D01*
X21842434Y-4354550D01*
X21896932Y-4448942D01*
X21903176Y-4496368D01*
X21874056Y-4534318D01*
X21826630Y-4540562D01*
X21819878Y-4538335D01*
X21725223Y-4501008D01*
X21640222Y-4490801D01*
X21640205Y-4490800D01*
X21500800Y-4490800D01*
X21500800Y-5092800D01*
X22127800Y-5092800D01*
X22127800Y-4978394D01*
X22127798Y-4978377D01*
X22117590Y-4893372D01*
X22064246Y-4758100D01*
X22064244Y-4758096D01*
X22048819Y-4737755D01*
X22036702Y-4691480D01*
X22060856Y-4650190D01*
X22107131Y-4638073D01*
X22129872Y-4645866D01*
X22139051Y-4651166D01*
X22139053Y-4651166D01*
X22139055Y-4651168D01*
X22139056Y-4651168D01*
X22139058Y-4651169D01*
X22172341Y-4660087D01*
X22277260Y-4688200D01*
X22277261Y-4688200D01*
X22420339Y-4688200D01*
X22420340Y-4688200D01*
X22558545Y-4651168D01*
X22682455Y-4579628D01*
X22783628Y-4478455D01*
X22855168Y-4354545D01*
X22892200Y-4216340D01*
X22892200Y-4073260D01*
X22892200Y-4069163D01*
X22893607Y-4069163D01*
X22904682Y-4027826D01*
X22910065Y-4021688D01*
X23218149Y-3713605D01*
X23262343Y-3695299D01*
X23655315Y-3695299D01*
X23655318Y-3695299D01*
X23749104Y-3680446D01*
X23862142Y-3622850D01*
X23951850Y-3533142D01*
X24009446Y-3420104D01*
X24024300Y-3326319D01*
X24024299Y-2863282D01*
X24009446Y-2769496D01*
X23951850Y-2656458D01*
X23862142Y-2566750D01*
X23799345Y-2534753D01*
X23749105Y-2509154D01*
X23749098Y-2509152D01*
X23655332Y-2494301D01*
X23655320Y-2494300D01*
X23655319Y-2494300D01*
X23655316Y-2494300D01*
X23042285Y-2494300D01*
X23042280Y-2494301D01*
X22948495Y-2509154D01*
X22948494Y-2509154D01*
X22835457Y-2566750D01*
X22745750Y-2656457D01*
X22688154Y-2769494D01*
X22688152Y-2769501D01*
X22673301Y-2863267D01*
X22673300Y-2863283D01*
X22673300Y-3306255D01*
X22654994Y-3350449D01*
X22422351Y-3583094D01*
X22378157Y-3601400D01*
X22277260Y-3601400D01*
X22277259Y-3601400D01*
X22277253Y-3601401D01*
X22135098Y-3639492D01*
X22134445Y-3637058D01*
X22094532Y-3637049D01*
X22060715Y-3603216D01*
X22060726Y-3555381D01*
X22068429Y-3541857D01*
X22070697Y-3538826D01*
X22070700Y-3538821D01*
X22121346Y-3403036D01*
X22127799Y-3343018D01*
X22127800Y-3343005D01*
X22127800Y-3246800D01*
X21500800Y-3246800D01*
X21196800Y-3246800D01*
X20569801Y-3246800D01*
X20569801Y-3343019D01*
X20576253Y-3403034D01*
X20576253Y-3403035D01*
X20581600Y-3417370D01*
X20579893Y-3465175D01*
X20544884Y-3497772D01*
X20506865Y-3499583D01*
X20420346Y-3476401D01*
X20420341Y-3476400D01*
X20420340Y-3476400D01*
X20277260Y-3476400D01*
X20277259Y-3476400D01*
X20277253Y-3476401D01*
X20139058Y-3513430D01*
X20139055Y-3513431D01*
X20020050Y-3582140D01*
X19972624Y-3588383D01*
X19934673Y-3559263D01*
X19926300Y-3528013D01*
X19926300Y-2761586D01*
X19944606Y-2717392D01*
X19988800Y-2699086D01*
X20020050Y-2707460D01*
X20139049Y-2776165D01*
X20139052Y-2776166D01*
X20139055Y-2776168D01*
X20139056Y-2776168D01*
X20139058Y-2776169D01*
X20177842Y-2786561D01*
X20277260Y-2813200D01*
X20277261Y-2813200D01*
X20420339Y-2813200D01*
X20420340Y-2813200D01*
X20449577Y-2805365D01*
X20491124Y-2794234D01*
X20538550Y-2800477D01*
X20567670Y-2838428D01*
X20569800Y-2854604D01*
X20569800Y-2942800D01*
X21196800Y-2942800D01*
X21500800Y-2942800D01*
X22127799Y-2942800D01*
X22127799Y-2846596D01*
X22127798Y-2846580D01*
X22121346Y-2786565D01*
X22121345Y-2786561D01*
X22070700Y-2650778D01*
X22070697Y-2650773D01*
X21983846Y-2534753D01*
X21867826Y-2447902D01*
X21867821Y-2447899D01*
X21732036Y-2397253D01*
X21672018Y-2390800D01*
X21500800Y-2390800D01*
X21500800Y-2942800D01*
X21196800Y-2942800D01*
X21196800Y-2390800D01*
X21025597Y-2390800D01*
X21025580Y-2390801D01*
X20994860Y-2394104D01*
X20948962Y-2380626D01*
X20926038Y-2338642D01*
X20939516Y-2292744D01*
X20943978Y-2287776D01*
X21168149Y-2063604D01*
X21212343Y-2045299D01*
X21655315Y-2045299D01*
X21655318Y-2045299D01*
X21749104Y-2030446D01*
X21862142Y-1972850D01*
X21951850Y-1883142D01*
X22009446Y-1770104D01*
X22024300Y-1676319D01*
X22024299Y-1213282D01*
X22009446Y-1119496D01*
X21951850Y-1006458D01*
X21901386Y-955994D01*
X21883080Y-911800D01*
X21901386Y-867606D01*
X21945580Y-849300D01*
X22177124Y-849300D01*
X22218309Y-864788D01*
G37*
%TD.AperFunction*%
%TA.AperFunction,Conductor*%
G36*
X27502994Y-5015606D02*
G01*
X27521300Y-5059800D01*
X27521300Y-8629812D01*
X27502994Y-8674006D01*
X27458800Y-8692312D01*
X27414606Y-8674006D01*
X27401626Y-8655057D01*
X27376006Y-8597036D01*
X27376006Y-8597035D01*
X27296566Y-8517595D01*
X27296565Y-8517594D01*
X27193791Y-8472215D01*
X27168665Y-8469300D01*
X27168664Y-8469300D01*
X27000437Y-8469300D01*
X26956243Y-8450994D01*
X26937937Y-8406800D01*
X26956243Y-8362606D01*
X26990661Y-8345069D01*
X27058787Y-8334279D01*
X27058789Y-8334279D01*
X27169286Y-8277977D01*
X27256977Y-8190286D01*
X27313279Y-8079789D01*
X27313281Y-8079782D01*
X27327798Y-7988124D01*
X27327800Y-7988108D01*
X27327800Y-7571800D01*
X26911300Y-7571800D01*
X26867106Y-7553494D01*
X26848800Y-7509300D01*
X26848800Y-7419800D01*
X26786799Y-7419800D01*
X26742605Y-7401494D01*
X26724299Y-7357300D01*
X26724299Y-7267800D01*
X27000800Y-7267800D01*
X27327799Y-7267800D01*
X27327799Y-6851493D01*
X27327798Y-6851489D01*
X27313279Y-6759811D01*
X27313279Y-6759810D01*
X27256977Y-6649313D01*
X27169286Y-6561622D01*
X27058785Y-6505319D01*
X27000800Y-6496134D01*
X27000800Y-7267800D01*
X26724299Y-7267800D01*
X26724299Y-6839296D01*
X26724299Y-6839295D01*
X26721507Y-6815220D01*
X26702125Y-6771324D01*
X26696800Y-6746079D01*
X26696800Y-6496136D01*
X26638811Y-6505320D01*
X26638810Y-6505320D01*
X26528311Y-6561623D01*
X26513939Y-6575995D01*
X26469746Y-6594300D01*
X26238800Y-6594300D01*
X26194606Y-6575994D01*
X26176300Y-6531800D01*
X26176300Y-6431343D01*
X26194606Y-6387149D01*
X26400877Y-6180878D01*
X26610865Y-5970890D01*
X26653981Y-5896210D01*
X26676300Y-5812916D01*
X26676300Y-5726684D01*
X26676300Y-5507799D01*
X26694606Y-5463605D01*
X26738797Y-5445299D01*
X26979304Y-5445299D01*
X27003380Y-5442507D01*
X27101879Y-5399015D01*
X27178015Y-5322879D01*
X27221507Y-5224380D01*
X27224300Y-5200305D01*
X27224300Y-5059800D01*
X27242606Y-5015606D01*
X27286800Y-4997300D01*
X27458800Y-4997300D01*
X27502994Y-5015606D01*
G37*
%TD.AperFunction*%
%TD*%
M02*
