%TF.GenerationSoftware,KiCad,Pcbnew,9.0.5*%
%TF.CreationDate,2025-10-20T11:02:32-07:00*%
%TF.ProjectId,infnoise_goldfingers,696e666e-6f69-4736-955f-676f6c646669,rev?*%
%TF.SameCoordinates,Original*%
%TF.FileFunction,Legend,Bot*%
%TF.FilePolarity,Positive*%
%FSLAX46Y46*%
G04 Gerber Fmt 4.6, Leading zero omitted, Abs format (unit mm)*
G04 Created by KiCad (PCBNEW 9.0.5) date 2025-10-20 11:02:32*
%MOMM*%
%LPD*%
G01*
G04 APERTURE LIST*
%ADD10C,0.174752*%
G04 APERTURE END LIST*
D10*
X33022048Y-7037213D02*
X33022048Y-5027565D01*
X32065073Y-5697448D02*
X32065073Y-7037213D01*
X32065073Y-5888843D02*
X31969375Y-5793145D01*
X31969375Y-5793145D02*
X31777980Y-5697448D01*
X31777980Y-5697448D02*
X31490888Y-5697448D01*
X31490888Y-5697448D02*
X31299493Y-5793145D01*
X31299493Y-5793145D02*
X31203795Y-5984540D01*
X31203795Y-5984540D02*
X31203795Y-7037213D01*
X30533912Y-5697448D02*
X29768332Y-5697448D01*
X30246820Y-7037213D02*
X30246820Y-5314658D01*
X30246820Y-5314658D02*
X30151122Y-5123263D01*
X30151122Y-5123263D02*
X29959727Y-5027565D01*
X29959727Y-5027565D02*
X29768332Y-5027565D01*
X29098450Y-7037213D02*
X29098450Y-5697448D01*
X29098450Y-5027565D02*
X29194147Y-5123263D01*
X29194147Y-5123263D02*
X29098450Y-5218960D01*
X29098450Y-5218960D02*
X29002752Y-5123263D01*
X29002752Y-5123263D02*
X29098450Y-5027565D01*
X29098450Y-5027565D02*
X29098450Y-5218960D01*
X28141475Y-5697448D02*
X28141475Y-7037213D01*
X28141475Y-5888843D02*
X28045777Y-5793145D01*
X28045777Y-5793145D02*
X27854382Y-5697448D01*
X27854382Y-5697448D02*
X27567290Y-5697448D01*
X27567290Y-5697448D02*
X27375895Y-5793145D01*
X27375895Y-5793145D02*
X27280197Y-5984540D01*
X27280197Y-5984540D02*
X27280197Y-7037213D01*
X26323222Y-7037213D02*
X26323222Y-5697448D01*
X26323222Y-5027565D02*
X26418919Y-5123263D01*
X26418919Y-5123263D02*
X26323222Y-5218960D01*
X26323222Y-5218960D02*
X26227524Y-5123263D01*
X26227524Y-5123263D02*
X26323222Y-5027565D01*
X26323222Y-5027565D02*
X26323222Y-5218960D01*
X25653339Y-5697448D02*
X24887759Y-5697448D01*
X25366247Y-5027565D02*
X25366247Y-6750120D01*
X25366247Y-6750120D02*
X25270549Y-6941516D01*
X25270549Y-6941516D02*
X25079154Y-7037213D01*
X25079154Y-7037213D02*
X24887759Y-7037213D01*
X23452297Y-6941516D02*
X23643692Y-7037213D01*
X23643692Y-7037213D02*
X24026482Y-7037213D01*
X24026482Y-7037213D02*
X24217877Y-6941516D01*
X24217877Y-6941516D02*
X24313574Y-6750120D01*
X24313574Y-6750120D02*
X24313574Y-5984540D01*
X24313574Y-5984540D02*
X24217877Y-5793145D01*
X24217877Y-5793145D02*
X24026482Y-5697448D01*
X24026482Y-5697448D02*
X23643692Y-5697448D01*
X23643692Y-5697448D02*
X23452297Y-5793145D01*
X23452297Y-5793145D02*
X23356599Y-5984540D01*
X23356599Y-5984540D02*
X23356599Y-6175935D01*
X23356599Y-6175935D02*
X24313574Y-6367330D01*
X20964162Y-7037213D02*
X20964162Y-5027565D01*
X20964162Y-5027565D02*
X19815792Y-7037213D01*
X19815792Y-7037213D02*
X19815792Y-5027565D01*
X18571723Y-7037213D02*
X18763118Y-6941516D01*
X18763118Y-6941516D02*
X18858816Y-6845818D01*
X18858816Y-6845818D02*
X18954513Y-6654423D01*
X18954513Y-6654423D02*
X18954513Y-6080238D01*
X18954513Y-6080238D02*
X18858816Y-5888843D01*
X18858816Y-5888843D02*
X18763118Y-5793145D01*
X18763118Y-5793145D02*
X18571723Y-5697448D01*
X18571723Y-5697448D02*
X18284631Y-5697448D01*
X18284631Y-5697448D02*
X18093236Y-5793145D01*
X18093236Y-5793145D02*
X17997538Y-5888843D01*
X17997538Y-5888843D02*
X17901841Y-6080238D01*
X17901841Y-6080238D02*
X17901841Y-6654423D01*
X17901841Y-6654423D02*
X17997538Y-6845818D01*
X17997538Y-6845818D02*
X18093236Y-6941516D01*
X18093236Y-6941516D02*
X18284631Y-7037213D01*
X18284631Y-7037213D02*
X18571723Y-7037213D01*
X17040563Y-7037213D02*
X17040563Y-5697448D01*
X17040563Y-5027565D02*
X17136260Y-5123263D01*
X17136260Y-5123263D02*
X17040563Y-5218960D01*
X17040563Y-5218960D02*
X16944865Y-5123263D01*
X16944865Y-5123263D02*
X17040563Y-5027565D01*
X17040563Y-5027565D02*
X17040563Y-5218960D01*
X16179285Y-6941516D02*
X15987890Y-7037213D01*
X15987890Y-7037213D02*
X15605100Y-7037213D01*
X15605100Y-7037213D02*
X15413705Y-6941516D01*
X15413705Y-6941516D02*
X15318008Y-6750120D01*
X15318008Y-6750120D02*
X15318008Y-6654423D01*
X15318008Y-6654423D02*
X15413705Y-6463028D01*
X15413705Y-6463028D02*
X15605100Y-6367330D01*
X15605100Y-6367330D02*
X15892193Y-6367330D01*
X15892193Y-6367330D02*
X16083588Y-6271633D01*
X16083588Y-6271633D02*
X16179285Y-6080238D01*
X16179285Y-6080238D02*
X16179285Y-5984540D01*
X16179285Y-5984540D02*
X16083588Y-5793145D01*
X16083588Y-5793145D02*
X15892193Y-5697448D01*
X15892193Y-5697448D02*
X15605100Y-5697448D01*
X15605100Y-5697448D02*
X15413705Y-5793145D01*
X13691150Y-6941516D02*
X13882545Y-7037213D01*
X13882545Y-7037213D02*
X14265335Y-7037213D01*
X14265335Y-7037213D02*
X14456730Y-6941516D01*
X14456730Y-6941516D02*
X14552427Y-6750120D01*
X14552427Y-6750120D02*
X14552427Y-5984540D01*
X14552427Y-5984540D02*
X14456730Y-5793145D01*
X14456730Y-5793145D02*
X14265335Y-5697448D01*
X14265335Y-5697448D02*
X13882545Y-5697448D01*
X13882545Y-5697448D02*
X13691150Y-5793145D01*
X13691150Y-5793145D02*
X13595452Y-5984540D01*
X13595452Y-5984540D02*
X13595452Y-6175935D01*
X13595452Y-6175935D02*
X14552427Y-6367330D01*
%LPC*%
G36*
X10103039Y-19685D02*
G01*
X10148794Y-72489D01*
X10160000Y-124000D01*
X10160000Y-12068000D01*
X10140315Y-12135039D01*
X10087511Y-12180794D01*
X10036000Y-12192000D01*
X124000Y-12192000D01*
X56961Y-12172315D01*
X11206Y-12119511D01*
X0Y-12068000D01*
X0Y-124000D01*
X19685Y-56961D01*
X72489Y-11206D01*
X124000Y0D01*
X10036000Y0D01*
X10103039Y-19685D01*
G37*
%LPD*%
M02*
