%TF.GenerationSoftware,KiCad,Pcbnew,9.0.5*%
%TF.CreationDate,2025-10-20T11:02:32-07:00*%
%TF.ProjectId,infnoise_goldfingers,696e666e-6f69-4736-955f-676f6c646669,rev?*%
%TF.SameCoordinates,Original*%
%TF.FileFunction,Copper,L2,Bot*%
%TF.FilePolarity,Positive*%
%FSLAX46Y46*%
G04 Gerber Fmt 4.6, Leading zero omitted, Abs format (unit mm)*
G04 Created by KiCad (PCBNEW 9.0.5) date 2025-10-20 11:02:32*
%MOMM*%
%LPD*%
G01*
G04 APERTURE LIST*
%TA.AperFunction,ViaPad*%
%ADD10C,0.685800*%
%TD*%
%TA.AperFunction,Conductor*%
%ADD11C,0.254000*%
%TD*%
G04 APERTURE END LIST*
D10*
%TO.N,/B*%
X31723800Y-4144800D03*
X27848800Y-4519800D03*
%TO.N,GND*%
X28598800Y-6054600D03*
X12223800Y-8269800D03*
X10568000Y-3769800D03*
X26249200Y-11467000D03*
X33832800Y-1752600D03*
X18846800Y-10287000D03*
X30723800Y-2019800D03*
X14905600Y-4159400D03*
X27098800Y-6019800D03*
X24473800Y-7894800D03*
X10550600Y-8269800D03*
%TO.N,+3.3V*%
X24753200Y-2045200D03*
X22348800Y-11394800D03*
X14848800Y-8019800D03*
X19098800Y-1519800D03*
%TO.N,/A*%
X29723800Y-2519800D03*
X31098800Y-8019800D03*
X26149300Y-8407400D03*
X24598800Y-5269800D03*
%TO.N,/VREF*%
X20348800Y-2269800D03*
X25598800Y-3269800D03*
X20098800Y-8019800D03*
%TO.N,/COMP1*%
X18874200Y-3693600D03*
X22348800Y-9769800D03*
%TO.N,/COMP2*%
X24598800Y-6269800D03*
X20098800Y-6019800D03*
X31348800Y-10644800D03*
%TO.N,/SW1EN*%
X25852800Y-1820600D03*
X20348800Y-4019800D03*
%TO.N,/SW2EN*%
X20098800Y-7019800D03*
X25098800Y-10019800D03*
%TO.N,Net-(AMP1-Pad1)*%
X29667200Y-9093200D03*
X24409400Y-1193800D03*
%TO.N,Net-(AMP1A--)*%
X27848800Y-10769800D03*
X22348800Y-4144800D03*
X24473800Y-10769800D03*
%TD*%
D11*
%TO.N,/B*%
X27848800Y-4519800D02*
X31348800Y-4519800D01*
X31348800Y-4519800D02*
X31723800Y-4144800D01*
%TO.N,+3.3V*%
X14122400Y-3657600D02*
X13970000Y-4064000D01*
X18313400Y-11049000D02*
X18415000Y-11074400D01*
X16281400Y-9321800D02*
X15585400Y-8695000D01*
X24753200Y-2045200D02*
X24604800Y-2142800D01*
X22123400Y-11379200D02*
X21894800Y-11150600D01*
X21921000Y-2117400D02*
X20848800Y-1019800D01*
X21793200Y-11074400D02*
X21894800Y-11150600D01*
X14478000Y-3352800D02*
X14122400Y-3657600D01*
X17449800Y-10337800D02*
X17348200Y-10261600D01*
X21793200Y-11074400D02*
X18415000Y-11074400D01*
X15585400Y-8695000D02*
X14848800Y-8019800D01*
X24604800Y-2142800D02*
X21921000Y-2117400D01*
X22326600Y-11379200D02*
X22348800Y-11394800D01*
X22326600Y-11379200D02*
X22123400Y-11379200D01*
X13970000Y-4064000D02*
X14046200Y-4470400D01*
X19598800Y-1019800D02*
X19098800Y-1519800D01*
X20848800Y-1019800D02*
X19598800Y-1019800D01*
X17348200Y-10261600D02*
X16281400Y-9321800D01*
X17449800Y-10337800D02*
X18313400Y-11049000D01*
X14046200Y-4470400D02*
X14848800Y-8019800D01*
X19098800Y-1519800D02*
X14478000Y-3352800D01*
%TO.N,/A*%
X28700400Y-7990400D02*
X26098800Y-8269800D01*
X26098800Y-5519800D02*
X26098800Y-8269800D01*
X26098800Y-5269800D02*
X26098800Y-5519800D01*
X27200400Y-3443600D02*
X26098800Y-4519800D01*
X26098800Y-5019800D02*
X26098800Y-5269800D01*
X25848800Y-5269800D02*
X26098800Y-5519800D01*
X25848800Y-5269800D02*
X26098800Y-5019800D01*
X26098800Y-4519800D02*
X26098800Y-5019800D01*
X24598800Y-5269800D02*
X25848800Y-5269800D01*
X31098800Y-8019800D02*
X29382200Y-7842000D01*
X28927000Y-2884800D02*
X27200400Y-3443600D01*
X29382200Y-7842000D02*
X28700400Y-7990400D01*
X29723800Y-2519800D02*
X28927000Y-2884800D01*
X25848800Y-5269800D02*
X26098800Y-5269800D01*
%TO.N,/VREF*%
X23098800Y-4769800D02*
X23098800Y-3519800D01*
X25598800Y-3269800D02*
X23348800Y-3269800D01*
X23098800Y-3519800D02*
X23098800Y-3269800D01*
X19348800Y-5769800D02*
X19848800Y-5269800D01*
X21348800Y-3269800D02*
X20348800Y-2269800D01*
X22598800Y-5269800D02*
X23098800Y-4769800D01*
X23348800Y-3269800D02*
X23098800Y-3269800D01*
X19848800Y-5269800D02*
X22598800Y-5269800D01*
X23098800Y-3269800D02*
X22848800Y-3269800D01*
X23098800Y-3519800D02*
X22848800Y-3269800D01*
X22848800Y-3269800D02*
X21348800Y-3269800D01*
X20098800Y-8019800D02*
X19348800Y-7269800D01*
X19348800Y-7269800D02*
X19348800Y-5769800D01*
X23098800Y-3519800D02*
X23348800Y-3269800D01*
%TO.N,/COMP1*%
X22348800Y-9769800D02*
X19598800Y-9769800D01*
X18276600Y-8295200D02*
X18276600Y-4545200D01*
X19598800Y-9769800D02*
X18276600Y-8295200D01*
X18276600Y-4545200D02*
X18874200Y-3693600D01*
%TO.N,/COMP2*%
X25348800Y-7019800D02*
X25348800Y-8519800D01*
X24598800Y-6269800D02*
X25348800Y-7019800D01*
X20348800Y-6269800D02*
X24598800Y-6269800D01*
X31343600Y-10642600D02*
X31348800Y-10644800D01*
X20098800Y-6019800D02*
X20348800Y-6269800D01*
X25348800Y-8519800D02*
X25848800Y-9019800D01*
X29921200Y-10642600D02*
X31343600Y-10642600D01*
X28422600Y-9702800D02*
X28167000Y-9553200D01*
X25848800Y-9019800D02*
X28167000Y-9553200D01*
X28422600Y-9702800D02*
X29921200Y-10642600D01*
%TO.N,/SW1EN*%
X24971800Y-2769800D02*
X25497200Y-2422200D01*
X25497200Y-2422200D02*
X25852800Y-1820600D01*
X20598800Y-1519800D02*
X20098800Y-1519800D01*
X20098800Y-1519800D02*
X19598800Y-2019800D01*
X21848800Y-2769800D02*
X20598800Y-1519800D01*
X24971800Y-2769800D02*
X21848800Y-2769800D01*
X20348800Y-3269800D02*
X20348800Y-4019800D01*
X19598800Y-2519800D02*
X20348800Y-3269800D01*
X19598800Y-2019800D02*
X19598800Y-2519800D01*
%TO.N,/SW2EN*%
X23348800Y-8519800D02*
X21598800Y-8519800D01*
X25098800Y-10019800D02*
X24848800Y-10019800D01*
X21598800Y-8519800D02*
X20098800Y-7019800D01*
X24848800Y-10019800D02*
X23348800Y-8519800D01*
%TO.N,Net-(AMP1-Pad1)*%
X32867600Y-7543800D02*
X32232600Y-9245600D01*
X24409400Y-1092200D02*
X24409400Y-1193800D01*
X30988000Y-9296400D02*
X29667200Y-9093200D01*
X31648400Y-1092200D02*
X32867600Y-2311400D01*
X32232600Y-9245600D02*
X30988000Y-9296400D01*
X31648400Y-1092200D02*
X24409400Y-1092200D01*
X32867600Y-2311400D02*
X32867600Y-7543800D01*
%TO.N,Net-(AMP1A--)*%
X18848800Y-8019800D02*
X19848800Y-9019800D01*
X20848800Y-4769800D02*
X19598800Y-4769800D01*
X21473800Y-4144800D02*
X22348800Y-4144800D01*
X19848800Y-9019800D02*
X23098800Y-9019800D01*
X21473800Y-4144800D02*
X20848800Y-4769800D01*
X18848800Y-5519800D02*
X18848800Y-8019800D01*
X19598800Y-4769800D02*
X18848800Y-5519800D01*
X23098800Y-9019800D02*
X24473800Y-10394800D01*
X24473800Y-10394800D02*
X24473800Y-10769800D01*
X27848800Y-10769800D02*
X24473800Y-10769800D01*
%TD*%
%TA.AperFunction,Conductor*%
%TO.N,GND*%
G36*
X34754994Y-93806D02*
G01*
X34773300Y-138000D01*
X34773300Y-12054000D01*
X34754994Y-12098194D01*
X34710800Y-12116500D01*
X9833500Y-12116500D01*
X9789306Y-12098194D01*
X9771000Y-12054000D01*
X9771000Y-4075213D01*
X13639864Y-4075213D01*
X13639977Y-4078558D01*
X13640163Y-4081977D01*
X13647375Y-4120441D01*
X13647496Y-4121088D01*
X13654013Y-4160269D01*
X13655425Y-4163377D01*
X13656807Y-4170747D01*
X13716197Y-4487495D01*
X13716856Y-4496498D01*
X13716880Y-4496496D01*
X13717254Y-4500576D01*
X13721164Y-4517866D01*
X13725427Y-4536720D01*
X13732255Y-4573132D01*
X13734915Y-4578680D01*
X13736471Y-4585558D01*
X14425745Y-7633794D01*
X14417637Y-7680938D01*
X14414382Y-7685610D01*
X14413973Y-7686143D01*
X14342434Y-7810049D01*
X14342430Y-7810058D01*
X14305401Y-7948253D01*
X14305400Y-7948261D01*
X14305400Y-8091338D01*
X14305401Y-8091346D01*
X14342430Y-8229541D01*
X14342434Y-8229550D01*
X14413969Y-8353451D01*
X14413976Y-8353460D01*
X14515139Y-8454623D01*
X14515148Y-8454630D01*
X14639049Y-8526165D01*
X14639052Y-8526166D01*
X14639055Y-8526168D01*
X14639056Y-8526168D01*
X14639058Y-8526169D01*
X14723634Y-8548831D01*
X14777260Y-8563200D01*
X14777261Y-8563200D01*
X14920334Y-8563200D01*
X14920340Y-8563200D01*
X14920345Y-8563198D01*
X14923438Y-8562791D01*
X14969645Y-8575168D01*
X14973834Y-8578683D01*
X15047501Y-8646209D01*
X15333399Y-8908276D01*
X15334198Y-8909506D01*
X15365178Y-8937406D01*
X15365331Y-8937546D01*
X15396416Y-8966040D01*
X15401187Y-8969834D01*
X15771069Y-9302941D01*
X16027288Y-9533686D01*
X16031550Y-9537524D01*
X16032560Y-9539042D01*
X16063587Y-9566376D01*
X16094276Y-9594013D01*
X16094279Y-9594014D01*
X16094297Y-9594027D01*
X16100207Y-9598636D01*
X17049660Y-10435058D01*
X17109149Y-10487465D01*
X17117207Y-10497730D01*
X17141389Y-10515866D01*
X17143228Y-10517486D01*
X17143229Y-10517487D01*
X17164065Y-10535843D01*
X17170610Y-10539089D01*
X17180341Y-10545081D01*
X17246201Y-10594476D01*
X17248428Y-10596226D01*
X18095136Y-11293514D01*
X18116747Y-11314410D01*
X18128290Y-11320818D01*
X18132690Y-11324442D01*
X18132694Y-11324445D01*
X18138488Y-11329216D01*
X18163582Y-11340637D01*
X18168014Y-11342871D01*
X18192141Y-11356265D01*
X18192143Y-11356266D01*
X18198121Y-11357759D01*
X18204958Y-11359469D01*
X18216974Y-11364938D01*
X18246618Y-11369884D01*
X18332509Y-11391356D01*
X18333307Y-11391563D01*
X18371884Y-11401900D01*
X18371886Y-11401900D01*
X18374239Y-11402210D01*
X18374941Y-11402302D01*
X18375025Y-11402307D01*
X18377398Y-11402579D01*
X18417210Y-11401908D01*
X18418262Y-11401900D01*
X21657057Y-11401900D01*
X21701251Y-11420206D01*
X21814793Y-11533748D01*
X21830969Y-11561766D01*
X21842431Y-11604544D01*
X21842434Y-11604550D01*
X21913969Y-11728451D01*
X21913976Y-11728460D01*
X22015139Y-11829623D01*
X22015148Y-11829630D01*
X22139049Y-11901165D01*
X22139052Y-11901166D01*
X22139055Y-11901168D01*
X22139056Y-11901168D01*
X22139058Y-11901169D01*
X22223634Y-11923831D01*
X22277260Y-11938200D01*
X22277261Y-11938200D01*
X22420339Y-11938200D01*
X22420340Y-11938200D01*
X22558545Y-11901168D01*
X22682455Y-11829628D01*
X22783628Y-11728455D01*
X22855168Y-11604545D01*
X22892200Y-11466340D01*
X22892200Y-11323260D01*
X22855168Y-11185055D01*
X22835603Y-11151168D01*
X22783630Y-11061148D01*
X22783623Y-11061139D01*
X22682460Y-10959976D01*
X22682451Y-10959969D01*
X22558550Y-10888434D01*
X22558541Y-10888430D01*
X22420346Y-10851401D01*
X22420341Y-10851400D01*
X22420340Y-10851400D01*
X22277260Y-10851400D01*
X22277259Y-10851400D01*
X22277253Y-10851401D01*
X22135098Y-10889492D01*
X22135054Y-10889330D01*
X22134547Y-10889720D01*
X22114561Y-10887087D01*
X22094405Y-10887069D01*
X22087121Y-10883472D01*
X22078819Y-10878678D01*
X22072573Y-10874554D01*
X22011871Y-10829028D01*
X22005182Y-10823227D01*
X21994290Y-10812335D01*
X21994289Y-10812334D01*
X21994288Y-10812333D01*
X21977224Y-10802481D01*
X21970978Y-10798357D01*
X21955209Y-10786531D01*
X21955204Y-10786528D01*
X21940906Y-10780789D01*
X21940906Y-10780788D01*
X21936780Y-10779132D01*
X21919610Y-10769219D01*
X21896965Y-10763151D01*
X21893479Y-10761752D01*
X21893474Y-10761751D01*
X21875182Y-10754409D01*
X21859890Y-10752566D01*
X21851194Y-10750886D01*
X21836318Y-10746900D01*
X21836316Y-10746900D01*
X21812857Y-10746900D01*
X21789567Y-10744094D01*
X21769925Y-10746900D01*
X18484163Y-10746900D01*
X18444431Y-10732646D01*
X17978028Y-10348550D01*
X17690687Y-10111916D01*
X17681256Y-10102260D01*
X17680793Y-10101670D01*
X17680790Y-10101668D01*
X17680789Y-10101666D01*
X17653390Y-10081117D01*
X17651193Y-10079391D01*
X17624712Y-10057584D01*
X17624710Y-10057583D01*
X17624709Y-10057582D01*
X17624014Y-10057266D01*
X17612413Y-10050384D01*
X17556978Y-10008808D01*
X17553164Y-10005705D01*
X16906636Y-9436145D01*
X16499461Y-9077442D01*
X16499059Y-9077085D01*
X15805777Y-8452733D01*
X15805424Y-8452412D01*
X15412468Y-8092211D01*
X15392259Y-8048854D01*
X15392200Y-8046138D01*
X15392200Y-7948261D01*
X15392198Y-7948253D01*
X15355169Y-7810058D01*
X15355165Y-7810049D01*
X15283630Y-7686148D01*
X15283623Y-7686139D01*
X15182460Y-7584976D01*
X15182451Y-7584969D01*
X15095477Y-7534754D01*
X15066357Y-7496804D01*
X15065766Y-7494413D01*
X15061016Y-7473408D01*
X14367224Y-4405199D01*
X14366757Y-4402938D01*
X14357684Y-4354550D01*
X14311941Y-4110582D01*
X14314850Y-4077120D01*
X14316297Y-4073261D01*
X14393835Y-3866491D01*
X14411677Y-3840989D01*
X14641679Y-3643844D01*
X14659303Y-3633205D01*
X18788218Y-1995328D01*
X18836048Y-1996048D01*
X18842515Y-1999298D01*
X18889052Y-2026167D01*
X18889055Y-2026168D01*
X19027260Y-2063200D01*
X19027261Y-2063200D01*
X19170340Y-2063200D01*
X19192622Y-2057229D01*
X19240048Y-2063471D01*
X19269170Y-2101421D01*
X19271300Y-2117599D01*
X19271300Y-2562921D01*
X19293618Y-2646207D01*
X19293618Y-2646209D01*
X19306427Y-2668395D01*
X19336735Y-2720890D01*
X19336739Y-2720894D01*
X20002994Y-3387149D01*
X20021300Y-3431343D01*
X20021300Y-3552928D01*
X20002994Y-3597122D01*
X19913976Y-3686139D01*
X19913969Y-3686148D01*
X19842434Y-3810049D01*
X19842430Y-3810058D01*
X19805401Y-3948253D01*
X19805400Y-3948261D01*
X19805400Y-4091338D01*
X19805401Y-4091346D01*
X19842430Y-4229541D01*
X19842434Y-4229550D01*
X19911140Y-4348550D01*
X19917384Y-4395976D01*
X19888264Y-4433926D01*
X19857014Y-4442300D01*
X19555678Y-4442300D01*
X19472392Y-4464618D01*
X19472390Y-4464618D01*
X19427072Y-4490783D01*
X19397710Y-4507735D01*
X19397709Y-4507736D01*
X19397705Y-4507739D01*
X18710794Y-5194651D01*
X18666600Y-5212957D01*
X18622406Y-5194651D01*
X18604100Y-5150457D01*
X18604100Y-4668386D01*
X18615440Y-4632485D01*
X18644313Y-4591340D01*
X18874301Y-4263598D01*
X18914671Y-4237938D01*
X18925461Y-4237000D01*
X18945739Y-4237000D01*
X18945740Y-4237000D01*
X19083945Y-4199968D01*
X19207855Y-4128428D01*
X19309028Y-4027255D01*
X19380568Y-3903345D01*
X19417600Y-3765140D01*
X19417600Y-3622060D01*
X19393431Y-3531860D01*
X19380569Y-3483858D01*
X19380565Y-3483849D01*
X19309030Y-3359948D01*
X19309023Y-3359939D01*
X19207860Y-3258776D01*
X19207851Y-3258769D01*
X19083950Y-3187234D01*
X19083941Y-3187230D01*
X18945746Y-3150201D01*
X18945741Y-3150200D01*
X18945740Y-3150200D01*
X18802660Y-3150200D01*
X18802659Y-3150200D01*
X18802653Y-3150201D01*
X18664458Y-3187230D01*
X18664449Y-3187234D01*
X18540548Y-3258769D01*
X18540539Y-3258776D01*
X18439376Y-3359939D01*
X18439369Y-3359948D01*
X18367834Y-3483849D01*
X18367830Y-3483858D01*
X18330801Y-3622053D01*
X18330800Y-3622061D01*
X18330800Y-3765138D01*
X18330801Y-3765146D01*
X18348973Y-3832967D01*
X18342729Y-3880393D01*
X18339763Y-3885044D01*
X18028003Y-4329313D01*
X18024878Y-4333765D01*
X18014535Y-4344110D01*
X18000213Y-4368913D01*
X17998619Y-4371186D01*
X17983757Y-4392365D01*
X17983754Y-4392371D01*
X17980596Y-4401019D01*
X17976019Y-4410820D01*
X17971418Y-4418790D01*
X17964716Y-4443795D01*
X17964717Y-4443796D01*
X17964001Y-4446467D01*
X17954178Y-4473373D01*
X17952887Y-4487948D01*
X17951481Y-4493197D01*
X17951480Y-4493198D01*
X17949100Y-4502083D01*
X17949100Y-4527969D01*
X17948857Y-4533480D01*
X17946574Y-4559271D01*
X17948161Y-4568323D01*
X17949100Y-4579116D01*
X17949100Y-8286281D01*
X17947239Y-8320433D01*
X17949100Y-8329278D01*
X17949100Y-8338314D01*
X17949101Y-8338322D01*
X17957508Y-8369698D01*
X17958299Y-8373005D01*
X17964993Y-8404818D01*
X17969079Y-8412880D01*
X17971419Y-8421610D01*
X17988506Y-8451207D01*
X17989280Y-8452733D01*
X17989281Y-8452734D01*
X18003981Y-8481732D01*
X18003983Y-8481734D01*
X18005671Y-8483617D01*
X18010016Y-8488462D01*
X18014535Y-8496290D01*
X18038719Y-8520474D01*
X18039856Y-8521742D01*
X18049500Y-8532498D01*
X19318937Y-9948253D01*
X19327871Y-9958216D01*
X19335464Y-9968688D01*
X19336735Y-9970890D01*
X19360922Y-9995077D01*
X19383749Y-10020535D01*
X19391317Y-10025472D01*
X19395914Y-10030069D01*
X19395914Y-10030070D01*
X19397704Y-10031860D01*
X19397713Y-10031867D01*
X19425858Y-10048117D01*
X19425859Y-10048117D01*
X19427330Y-10048966D01*
X19455972Y-10067651D01*
X19464562Y-10070461D01*
X19470194Y-10073713D01*
X19470195Y-10073714D01*
X19470198Y-10073715D01*
X19472390Y-10074981D01*
X19503809Y-10083399D01*
X19507000Y-10084348D01*
X19537929Y-10094469D01*
X19540458Y-10094606D01*
X19540461Y-10094607D01*
X19546957Y-10094961D01*
X19555684Y-10097300D01*
X19589881Y-10097300D01*
X19591588Y-10097393D01*
X19624032Y-10099161D01*
X19624032Y-10099160D01*
X19624033Y-10099161D01*
X19625981Y-10098750D01*
X19626515Y-10098639D01*
X19639381Y-10097300D01*
X21881929Y-10097300D01*
X21926123Y-10115606D01*
X22015139Y-10204623D01*
X22015148Y-10204630D01*
X22139049Y-10276165D01*
X22139052Y-10276166D01*
X22139055Y-10276168D01*
X22139056Y-10276168D01*
X22139058Y-10276169D01*
X22216032Y-10296794D01*
X22277260Y-10313200D01*
X22277261Y-10313200D01*
X22420339Y-10313200D01*
X22420340Y-10313200D01*
X22558545Y-10276168D01*
X22682455Y-10204628D01*
X22783628Y-10103455D01*
X22855168Y-9979545D01*
X22892200Y-9841340D01*
X22892200Y-9698260D01*
X22870799Y-9618390D01*
X22855169Y-9560058D01*
X22855165Y-9560049D01*
X22786460Y-9441050D01*
X22784330Y-9424875D01*
X22778086Y-9409800D01*
X22781318Y-9401996D01*
X22780216Y-9393624D01*
X22790147Y-9380680D01*
X22796392Y-9365606D01*
X22804195Y-9362373D01*
X22809336Y-9355674D01*
X22840586Y-9347300D01*
X22937257Y-9347300D01*
X22981451Y-9365606D01*
X24009825Y-10393980D01*
X24028131Y-10438174D01*
X24019758Y-10469424D01*
X23967431Y-10560055D01*
X23967430Y-10560058D01*
X23930401Y-10698253D01*
X23930400Y-10698261D01*
X23930400Y-10841338D01*
X23930401Y-10841346D01*
X23967430Y-10979541D01*
X23967434Y-10979550D01*
X24038969Y-11103451D01*
X24038976Y-11103460D01*
X24140139Y-11204623D01*
X24140148Y-11204630D01*
X24264049Y-11276165D01*
X24264052Y-11276166D01*
X24264055Y-11276168D01*
X24264056Y-11276168D01*
X24264058Y-11276169D01*
X24322894Y-11291934D01*
X24402260Y-11313200D01*
X24402261Y-11313200D01*
X24545339Y-11313200D01*
X24545340Y-11313200D01*
X24683545Y-11276168D01*
X24807455Y-11204628D01*
X24896477Y-11115606D01*
X24940671Y-11097300D01*
X27381929Y-11097300D01*
X27426123Y-11115606D01*
X27515139Y-11204623D01*
X27515148Y-11204630D01*
X27639049Y-11276165D01*
X27639052Y-11276166D01*
X27639055Y-11276168D01*
X27639056Y-11276168D01*
X27639058Y-11276169D01*
X27697894Y-11291934D01*
X27777260Y-11313200D01*
X27777261Y-11313200D01*
X27920339Y-11313200D01*
X27920340Y-11313200D01*
X28058545Y-11276168D01*
X28182455Y-11204628D01*
X28283628Y-11103455D01*
X28355168Y-10979545D01*
X28392200Y-10841340D01*
X28392200Y-10698260D01*
X28358706Y-10573260D01*
X28355169Y-10560058D01*
X28355165Y-10560049D01*
X28283630Y-10436148D01*
X28283623Y-10436139D01*
X28182460Y-10334976D01*
X28182451Y-10334969D01*
X28058550Y-10263434D01*
X28058541Y-10263430D01*
X27920346Y-10226401D01*
X27920341Y-10226400D01*
X27920340Y-10226400D01*
X27777260Y-10226400D01*
X27777259Y-10226400D01*
X27777253Y-10226401D01*
X27639058Y-10263430D01*
X27639049Y-10263434D01*
X27515148Y-10334969D01*
X27515139Y-10334976D01*
X27426123Y-10423994D01*
X27381929Y-10442300D01*
X25590586Y-10442300D01*
X25546392Y-10423994D01*
X25528086Y-10379800D01*
X25536460Y-10348550D01*
X25605165Y-10229550D01*
X25605164Y-10229550D01*
X25605168Y-10229545D01*
X25642200Y-10091340D01*
X25642200Y-9948260D01*
X25627831Y-9894634D01*
X25605169Y-9810058D01*
X25605165Y-9810049D01*
X25533630Y-9686148D01*
X25533623Y-9686139D01*
X25432460Y-9584976D01*
X25432451Y-9584969D01*
X25308550Y-9513434D01*
X25308541Y-9513430D01*
X25170346Y-9476401D01*
X25170341Y-9476400D01*
X25170340Y-9476400D01*
X25027260Y-9476400D01*
X25027259Y-9476400D01*
X25027253Y-9476401D01*
X24889058Y-9513430D01*
X24889051Y-9513433D01*
X24877666Y-9520006D01*
X24830239Y-9526246D01*
X24802226Y-9510071D01*
X23549894Y-8257739D01*
X23549890Y-8257735D01*
X23475210Y-8214619D01*
X23475209Y-8214618D01*
X23475208Y-8214618D01*
X23391921Y-8192300D01*
X23391916Y-8192300D01*
X21760343Y-8192300D01*
X21716149Y-8173994D01*
X20660506Y-7118351D01*
X20642200Y-7074157D01*
X20642200Y-6948261D01*
X20642198Y-6948253D01*
X20605169Y-6810058D01*
X20605165Y-6810049D01*
X20536460Y-6691050D01*
X20530216Y-6643624D01*
X20559336Y-6605674D01*
X20590586Y-6597300D01*
X24131929Y-6597300D01*
X24176123Y-6615606D01*
X24265139Y-6704623D01*
X24265148Y-6704630D01*
X24389049Y-6776165D01*
X24389052Y-6776166D01*
X24389055Y-6776168D01*
X24389056Y-6776168D01*
X24389058Y-6776169D01*
X24473634Y-6798831D01*
X24527260Y-6813200D01*
X24527261Y-6813200D01*
X24653157Y-6813200D01*
X24697351Y-6831506D01*
X25002994Y-7137149D01*
X25021300Y-7181343D01*
X25021300Y-8562921D01*
X25043618Y-8646207D01*
X25043618Y-8646209D01*
X25050643Y-8658376D01*
X25086735Y-8720890D01*
X25590923Y-9225078D01*
X25594067Y-9230101D01*
X25621346Y-9255501D01*
X25622136Y-9256291D01*
X25647705Y-9281861D01*
X25647711Y-9281866D01*
X25651643Y-9284136D01*
X25652842Y-9284828D01*
X25657177Y-9288864D01*
X25690097Y-9306336D01*
X25722390Y-9324981D01*
X25728113Y-9326514D01*
X25733346Y-9329292D01*
X25769669Y-9337649D01*
X25805684Y-9347300D01*
X25805691Y-9347300D01*
X25809749Y-9347835D01*
X25809741Y-9347893D01*
X25818528Y-9348891D01*
X28035465Y-9858991D01*
X28053018Y-9865958D01*
X28252039Y-9982443D01*
X28253629Y-9983407D01*
X29194207Y-10573261D01*
X29694603Y-10887069D01*
X29715818Y-10900373D01*
X29720110Y-10904665D01*
X29752260Y-10923226D01*
X29783730Y-10942962D01*
X29783732Y-10942962D01*
X29783733Y-10942963D01*
X29789535Y-10944747D01*
X29794790Y-10947781D01*
X29830654Y-10957390D01*
X29866154Y-10968307D01*
X29866156Y-10968307D01*
X29870190Y-10968989D01*
X29870183Y-10969027D01*
X29874015Y-10969603D01*
X29874021Y-10969565D01*
X29878084Y-10970100D01*
X29915221Y-10970100D01*
X29952329Y-10971456D01*
X29958246Y-10970100D01*
X30879728Y-10970100D01*
X30923922Y-10988406D01*
X31015139Y-11079623D01*
X31015148Y-11079630D01*
X31139049Y-11151165D01*
X31139052Y-11151166D01*
X31139055Y-11151168D01*
X31139056Y-11151168D01*
X31139058Y-11151169D01*
X31223634Y-11173831D01*
X31277260Y-11188200D01*
X31277261Y-11188200D01*
X31420339Y-11188200D01*
X31420340Y-11188200D01*
X31558545Y-11151168D01*
X31682455Y-11079628D01*
X31783628Y-10978455D01*
X31855168Y-10854545D01*
X31892200Y-10716340D01*
X31892200Y-10573260D01*
X31855460Y-10436145D01*
X31855169Y-10435058D01*
X31855165Y-10435049D01*
X31783630Y-10311148D01*
X31783623Y-10311139D01*
X31682460Y-10209976D01*
X31682451Y-10209969D01*
X31558550Y-10138434D01*
X31558541Y-10138430D01*
X31420346Y-10101401D01*
X31420341Y-10101400D01*
X31420340Y-10101400D01*
X31277260Y-10101400D01*
X31277259Y-10101400D01*
X31277253Y-10101401D01*
X31139058Y-10138430D01*
X31139049Y-10138434D01*
X31015148Y-10209969D01*
X31015139Y-10209976D01*
X30928322Y-10296794D01*
X30884128Y-10315100D01*
X30033371Y-10315100D01*
X30000165Y-10305549D01*
X29878977Y-10229550D01*
X29830232Y-10198980D01*
X28634965Y-9449406D01*
X28628816Y-9445550D01*
X28625241Y-9441932D01*
X28592359Y-9422686D01*
X28591541Y-9422173D01*
X28591539Y-9422171D01*
X28560070Y-9402437D01*
X28556346Y-9400733D01*
X28556423Y-9400563D01*
X28548944Y-9397276D01*
X28387782Y-9302950D01*
X28369636Y-9292329D01*
X28363674Y-9288839D01*
X28358623Y-9284136D01*
X28326588Y-9267132D01*
X28325462Y-9266473D01*
X28295222Y-9248775D01*
X28295214Y-9248772D01*
X28295206Y-9248770D01*
X28295206Y-9248769D01*
X28288551Y-9246943D01*
X28282454Y-9243708D01*
X28247084Y-9235569D01*
X28245825Y-9235224D01*
X28212065Y-9225963D01*
X28212060Y-9225962D01*
X28212059Y-9225962D01*
X28212051Y-9225961D01*
X28198418Y-9224371D01*
X26603151Y-8857312D01*
X26564187Y-8829563D01*
X26556258Y-8782389D01*
X26572973Y-8752208D01*
X26584128Y-8741055D01*
X26655668Y-8617145D01*
X26666031Y-8578464D01*
X26695151Y-8540515D01*
X26719726Y-8532498D01*
X28710176Y-8318733D01*
X28727923Y-8319577D01*
X28752856Y-8314150D01*
X28778240Y-8311424D01*
X28790317Y-8306755D01*
X28799543Y-8303987D01*
X29390840Y-8175286D01*
X29410571Y-8174190D01*
X30601878Y-8297582D01*
X30643949Y-8320342D01*
X30649560Y-8328493D01*
X30655235Y-8338322D01*
X30663971Y-8353454D01*
X30663976Y-8353460D01*
X30765139Y-8454623D01*
X30765148Y-8454630D01*
X30889049Y-8526165D01*
X30889052Y-8526166D01*
X30889055Y-8526168D01*
X30889056Y-8526168D01*
X30889058Y-8526169D01*
X30973634Y-8548831D01*
X31027260Y-8563200D01*
X31027261Y-8563200D01*
X31170339Y-8563200D01*
X31170340Y-8563200D01*
X31308545Y-8526168D01*
X31432455Y-8454628D01*
X31533628Y-8353455D01*
X31605168Y-8229545D01*
X31642200Y-8091340D01*
X31642200Y-7948260D01*
X31605168Y-7810055D01*
X31533628Y-7686145D01*
X31533626Y-7686143D01*
X31533623Y-7686139D01*
X31432460Y-7584976D01*
X31432451Y-7584969D01*
X31308550Y-7513434D01*
X31308541Y-7513430D01*
X31170346Y-7476401D01*
X31170341Y-7476400D01*
X31170340Y-7476400D01*
X31027260Y-7476400D01*
X31027259Y-7476400D01*
X31027253Y-7476401D01*
X30889058Y-7513430D01*
X30889049Y-7513434D01*
X30765148Y-7584969D01*
X30721829Y-7628286D01*
X30677634Y-7646590D01*
X30671197Y-7646257D01*
X29456051Y-7520396D01*
X29449620Y-7519729D01*
X29440812Y-7516916D01*
X29406896Y-7515303D01*
X29405172Y-7515125D01*
X29405148Y-7515124D01*
X29387162Y-7513262D01*
X29373054Y-7511801D01*
X29373052Y-7511801D01*
X29373050Y-7511801D01*
X29370293Y-7512242D01*
X29363914Y-7513261D01*
X29354677Y-7512823D01*
X29321482Y-7520047D01*
X29319738Y-7520326D01*
X29319734Y-7520327D01*
X29304006Y-7522843D01*
X29287902Y-7525419D01*
X29285345Y-7526562D01*
X29273140Y-7530569D01*
X28651215Y-7665936D01*
X28644597Y-7667009D01*
X26495474Y-7897815D01*
X26449578Y-7884333D01*
X26426657Y-7842346D01*
X26426300Y-7835672D01*
X26426300Y-4684014D01*
X26444606Y-4639820D01*
X26445124Y-4639307D01*
X26640679Y-4448261D01*
X27305400Y-4448261D01*
X27305400Y-4591338D01*
X27305401Y-4591346D01*
X27342430Y-4729541D01*
X27342434Y-4729550D01*
X27413969Y-4853451D01*
X27413976Y-4853460D01*
X27515139Y-4954623D01*
X27515148Y-4954630D01*
X27639049Y-5026165D01*
X27639052Y-5026166D01*
X27639055Y-5026168D01*
X27639056Y-5026168D01*
X27639058Y-5026169D01*
X27723634Y-5048831D01*
X27777260Y-5063200D01*
X27777261Y-5063200D01*
X27920339Y-5063200D01*
X27920340Y-5063200D01*
X28058545Y-5026168D01*
X28182455Y-4954628D01*
X28271477Y-4865606D01*
X28315671Y-4847300D01*
X31391916Y-4847300D01*
X31391921Y-4847299D01*
X31416665Y-4840668D01*
X31475210Y-4824981D01*
X31549890Y-4781865D01*
X31625249Y-4706505D01*
X31669441Y-4688200D01*
X31795339Y-4688200D01*
X31795340Y-4688200D01*
X31933545Y-4651168D01*
X32057455Y-4579628D01*
X32158628Y-4478455D01*
X32230168Y-4354545D01*
X32267200Y-4216340D01*
X32267200Y-4073260D01*
X32251169Y-4013430D01*
X32230169Y-3935058D01*
X32230165Y-3935049D01*
X32158630Y-3811148D01*
X32158623Y-3811139D01*
X32057460Y-3709976D01*
X32057451Y-3709969D01*
X31933550Y-3638434D01*
X31933541Y-3638430D01*
X31795346Y-3601401D01*
X31795341Y-3601400D01*
X31795340Y-3601400D01*
X31652260Y-3601400D01*
X31652259Y-3601400D01*
X31652253Y-3601401D01*
X31514058Y-3638430D01*
X31514049Y-3638434D01*
X31390148Y-3709969D01*
X31390139Y-3709976D01*
X31288976Y-3811139D01*
X31288969Y-3811148D01*
X31217434Y-3935049D01*
X31217430Y-3935058D01*
X31180401Y-4073253D01*
X31180400Y-4073261D01*
X31180400Y-4129800D01*
X31162094Y-4173994D01*
X31117900Y-4192300D01*
X28315671Y-4192300D01*
X28271477Y-4173994D01*
X28182460Y-4084976D01*
X28182451Y-4084969D01*
X28058550Y-4013434D01*
X28058541Y-4013430D01*
X27920346Y-3976401D01*
X27920341Y-3976400D01*
X27920340Y-3976400D01*
X27777260Y-3976400D01*
X27777259Y-3976400D01*
X27777253Y-3976401D01*
X27639058Y-4013430D01*
X27639049Y-4013434D01*
X27515148Y-4084969D01*
X27515139Y-4084976D01*
X27413976Y-4186139D01*
X27413969Y-4186148D01*
X27342434Y-4310049D01*
X27342430Y-4310058D01*
X27305401Y-4448253D01*
X27305400Y-4448261D01*
X26640679Y-4448261D01*
X26690635Y-4399457D01*
X27123676Y-3976400D01*
X27363834Y-3741778D01*
X27388264Y-3727023D01*
X29005179Y-3203723D01*
X29024194Y-3200503D01*
X29046017Y-3190506D01*
X29068864Y-3183112D01*
X29081240Y-3175094D01*
X29089181Y-3170732D01*
X29436373Y-3011690D01*
X29484174Y-3009928D01*
X29493652Y-3014388D01*
X29514051Y-3026166D01*
X29514055Y-3026168D01*
X29652260Y-3063200D01*
X29652261Y-3063200D01*
X29795339Y-3063200D01*
X29795340Y-3063200D01*
X29933545Y-3026168D01*
X30057455Y-2954628D01*
X30158628Y-2853455D01*
X30230168Y-2729545D01*
X30267200Y-2591340D01*
X30267200Y-2448260D01*
X30230168Y-2310055D01*
X30210711Y-2276355D01*
X30158630Y-2186148D01*
X30158623Y-2186139D01*
X30057460Y-2084976D01*
X30057451Y-2084969D01*
X29933550Y-2013434D01*
X29933541Y-2013430D01*
X29795346Y-1976401D01*
X29795341Y-1976400D01*
X29795340Y-1976400D01*
X29652260Y-1976400D01*
X29652259Y-1976400D01*
X29652253Y-1976401D01*
X29514058Y-2013430D01*
X29514049Y-2013434D01*
X29390148Y-2084969D01*
X29390139Y-2084976D01*
X29288976Y-2186139D01*
X29288969Y-2186148D01*
X29217434Y-2310049D01*
X29217432Y-2310054D01*
X29200154Y-2374532D01*
X29171033Y-2412482D01*
X29165813Y-2415177D01*
X28811289Y-2577578D01*
X28804505Y-2580219D01*
X27111222Y-3128236D01*
X27111220Y-3128236D01*
X27109341Y-3128845D01*
X27077558Y-3136966D01*
X27068469Y-3142071D01*
X27062532Y-3143993D01*
X27058539Y-3145285D01*
X27058532Y-3145288D01*
X27032637Y-3162062D01*
X27030970Y-3163141D01*
X27002380Y-3179207D01*
X26994919Y-3186495D01*
X26989689Y-3189883D01*
X26989686Y-3189886D01*
X26986165Y-3192167D01*
X26986161Y-3192170D01*
X26965498Y-3215064D01*
X26962778Y-3217894D01*
X25903578Y-4252672D01*
X25903577Y-4252671D01*
X25899383Y-4256767D01*
X25897710Y-4257735D01*
X25868634Y-4286809D01*
X25868330Y-4287107D01*
X25839091Y-4315674D01*
X25838881Y-4315942D01*
X25838697Y-4316149D01*
X25838093Y-4316938D01*
X25836932Y-4318451D01*
X25836930Y-4318451D01*
X25836743Y-4318696D01*
X25816306Y-4354092D01*
X25815940Y-4354717D01*
X25795114Y-4389839D01*
X25795113Y-4389840D01*
X25795111Y-4389845D01*
X25794983Y-4390144D01*
X25794981Y-4390149D01*
X25794275Y-4391795D01*
X25794227Y-4391912D01*
X25793834Y-4392829D01*
X25793747Y-4393080D01*
X25793618Y-4393389D01*
X25783059Y-4432796D01*
X25782867Y-4433497D01*
X25771825Y-4472867D01*
X25771779Y-4473189D01*
X25771501Y-4475121D01*
X25771363Y-4476081D01*
X25771343Y-4476355D01*
X25771300Y-4476682D01*
X25771300Y-4517479D01*
X25771296Y-4518208D01*
X25770818Y-4559093D01*
X25770855Y-4559395D01*
X25771300Y-4566838D01*
X25771300Y-4858257D01*
X25752994Y-4902451D01*
X25731451Y-4923994D01*
X25687257Y-4942300D01*
X25065671Y-4942300D01*
X25021477Y-4923994D01*
X24932460Y-4834976D01*
X24932451Y-4834969D01*
X24808550Y-4763434D01*
X24808541Y-4763430D01*
X24670346Y-4726401D01*
X24670341Y-4726400D01*
X24670340Y-4726400D01*
X24527260Y-4726400D01*
X24527259Y-4726400D01*
X24527253Y-4726401D01*
X24389058Y-4763430D01*
X24389049Y-4763434D01*
X24265148Y-4834969D01*
X24265139Y-4834976D01*
X24163976Y-4936139D01*
X24163969Y-4936148D01*
X24092434Y-5060049D01*
X24092430Y-5060058D01*
X24055401Y-5198253D01*
X24055400Y-5198261D01*
X24055400Y-5341338D01*
X24055401Y-5341346D01*
X24092430Y-5479541D01*
X24092434Y-5479550D01*
X24163969Y-5603451D01*
X24163976Y-5603460D01*
X24265139Y-5704623D01*
X24265148Y-5704630D01*
X24284276Y-5715674D01*
X24313397Y-5753624D01*
X24307152Y-5801050D01*
X24284276Y-5823926D01*
X24265148Y-5834969D01*
X24265139Y-5834976D01*
X24176123Y-5923994D01*
X24131929Y-5942300D01*
X20688561Y-5942300D01*
X20644367Y-5923994D01*
X20628191Y-5895976D01*
X20605169Y-5810058D01*
X20605165Y-5810049D01*
X20536460Y-5691050D01*
X20530216Y-5643624D01*
X20559336Y-5605674D01*
X20590586Y-5597300D01*
X22641916Y-5597300D01*
X22641921Y-5597299D01*
X22666665Y-5590668D01*
X22725210Y-5574981D01*
X22799890Y-5531865D01*
X23360865Y-4970890D01*
X23403981Y-4896210D01*
X23426300Y-4812916D01*
X23426300Y-4726684D01*
X23426300Y-3681343D01*
X23444606Y-3637149D01*
X23466149Y-3615606D01*
X23510343Y-3597300D01*
X25131929Y-3597300D01*
X25176123Y-3615606D01*
X25265139Y-3704623D01*
X25265148Y-3704630D01*
X25389049Y-3776165D01*
X25389052Y-3776166D01*
X25389055Y-3776168D01*
X25389056Y-3776168D01*
X25389058Y-3776169D01*
X25473582Y-3798817D01*
X25527260Y-3813200D01*
X25527261Y-3813200D01*
X25670339Y-3813200D01*
X25670340Y-3813200D01*
X25808545Y-3776168D01*
X25932455Y-3704628D01*
X26033628Y-3603455D01*
X26105168Y-3479545D01*
X26142200Y-3341340D01*
X26142200Y-3198260D01*
X26123437Y-3128236D01*
X26105169Y-3060058D01*
X26105165Y-3060049D01*
X26033630Y-2936148D01*
X26033623Y-2936139D01*
X25932460Y-2834976D01*
X25932451Y-2834969D01*
X25808550Y-2763434D01*
X25808542Y-2763431D01*
X25763851Y-2751456D01*
X25750906Y-2741523D01*
X25735834Y-2735280D01*
X25732602Y-2727478D01*
X25725901Y-2722336D01*
X25723771Y-2706159D01*
X25717528Y-2691086D01*
X25720760Y-2683282D01*
X25719658Y-2674909D01*
X25735834Y-2646892D01*
X25735842Y-2646884D01*
X25736299Y-2646432D01*
X25745229Y-2637682D01*
X25757192Y-2625964D01*
X25763198Y-2615802D01*
X25771014Y-2606972D01*
X25785054Y-2578827D01*
X25896738Y-2389879D01*
X25934365Y-2361314D01*
X26062541Y-2326969D01*
X26062540Y-2326969D01*
X26062545Y-2326968D01*
X26186455Y-2255428D01*
X26287628Y-2154255D01*
X26359168Y-2030345D01*
X26396200Y-1892140D01*
X26396200Y-1749060D01*
X26359168Y-1610855D01*
X26358891Y-1610376D01*
X26302931Y-1513450D01*
X26296687Y-1466024D01*
X26325807Y-1428074D01*
X26357057Y-1419700D01*
X31486857Y-1419700D01*
X31531051Y-1438006D01*
X32521794Y-2428749D01*
X32540100Y-2472943D01*
X32540100Y-7473408D01*
X32536156Y-7495257D01*
X32016348Y-8888340D01*
X31983748Y-8923347D01*
X31960341Y-8928939D01*
X31012453Y-8967628D01*
X31000400Y-8966953D01*
X30175505Y-8840046D01*
X30134609Y-8815233D01*
X30130890Y-8809536D01*
X30102028Y-8759545D01*
X30102026Y-8759543D01*
X30102023Y-8759539D01*
X30000860Y-8658376D01*
X30000851Y-8658369D01*
X29876950Y-8586834D01*
X29876941Y-8586830D01*
X29738746Y-8549801D01*
X29738741Y-8549800D01*
X29738740Y-8549800D01*
X29595660Y-8549800D01*
X29595659Y-8549800D01*
X29595653Y-8549801D01*
X29457458Y-8586830D01*
X29457449Y-8586834D01*
X29333548Y-8658369D01*
X29333539Y-8658376D01*
X29232376Y-8759539D01*
X29232369Y-8759548D01*
X29160834Y-8883449D01*
X29160830Y-8883458D01*
X29123801Y-9021653D01*
X29123800Y-9021661D01*
X29123800Y-9164738D01*
X29123801Y-9164746D01*
X29160830Y-9302941D01*
X29160834Y-9302950D01*
X29232369Y-9426851D01*
X29232376Y-9426860D01*
X29333539Y-9528023D01*
X29333548Y-9528030D01*
X29457449Y-9599565D01*
X29457452Y-9599566D01*
X29457455Y-9599568D01*
X29457456Y-9599568D01*
X29457458Y-9599569D01*
X29542034Y-9622231D01*
X29595660Y-9636600D01*
X29595661Y-9636600D01*
X29738739Y-9636600D01*
X29738740Y-9636600D01*
X29876945Y-9599568D01*
X30000855Y-9528028D01*
X30023649Y-9505232D01*
X30067843Y-9486926D01*
X30077348Y-9487653D01*
X30339799Y-9528030D01*
X30927139Y-9618390D01*
X30958276Y-9625386D01*
X30969606Y-9624923D01*
X30980816Y-9626648D01*
X31010445Y-9623400D01*
X31014653Y-9623084D01*
X32223647Y-9573737D01*
X32244345Y-9575717D01*
X32266545Y-9571986D01*
X32289036Y-9571069D01*
X32304811Y-9566143D01*
X32313076Y-9564168D01*
X32329386Y-9561429D01*
X32349866Y-9552078D01*
X32371351Y-9545372D01*
X32388916Y-9534251D01*
X32407830Y-9525617D01*
X32425189Y-9511287D01*
X32444210Y-9499246D01*
X32458301Y-9483954D01*
X32474333Y-9470722D01*
X32485106Y-9455597D01*
X32490057Y-9449496D01*
X32496689Y-9442300D01*
X32502648Y-9435835D01*
X32510322Y-9421193D01*
X32514765Y-9413959D01*
X32524363Y-9400486D01*
X32532234Y-9379390D01*
X32542682Y-9359459D01*
X32547238Y-9339179D01*
X33163065Y-7688760D01*
X33167483Y-7679383D01*
X33172781Y-7670210D01*
X33179126Y-7646526D01*
X33180933Y-7640876D01*
X33189509Y-7617895D01*
X33191012Y-7602170D01*
X33195100Y-7586916D01*
X33195100Y-7559423D01*
X33197717Y-7532054D01*
X33195964Y-7521620D01*
X33195100Y-7511264D01*
X33195100Y-2268284D01*
X33195099Y-2268278D01*
X33173090Y-2186145D01*
X33172781Y-2184990D01*
X33129665Y-2110310D01*
X33068690Y-2049335D01*
X31849490Y-830135D01*
X31774810Y-787019D01*
X31774809Y-787018D01*
X31774808Y-787018D01*
X31691521Y-764700D01*
X31691516Y-764700D01*
X24769723Y-764700D01*
X24738473Y-756326D01*
X24619150Y-687434D01*
X24619141Y-687430D01*
X24480946Y-650401D01*
X24480941Y-650400D01*
X24480940Y-650400D01*
X24337860Y-650400D01*
X24337859Y-650400D01*
X24337853Y-650401D01*
X24199658Y-687430D01*
X24199649Y-687434D01*
X24075748Y-758969D01*
X24075739Y-758976D01*
X23974576Y-860139D01*
X23974569Y-860148D01*
X23903034Y-984049D01*
X23903030Y-984058D01*
X23866001Y-1122253D01*
X23866000Y-1122261D01*
X23866000Y-1265338D01*
X23866001Y-1265346D01*
X23903030Y-1403541D01*
X23903034Y-1403550D01*
X23974569Y-1527451D01*
X23974576Y-1527460D01*
X24075739Y-1628623D01*
X24075748Y-1628630D01*
X24189719Y-1694432D01*
X24218839Y-1732382D01*
X24212595Y-1779808D01*
X24174645Y-1808928D01*
X24157877Y-1811055D01*
X22086147Y-1791447D01*
X22042129Y-1772724D01*
X22042031Y-1772624D01*
X21115941Y-824596D01*
X21111838Y-820396D01*
X21110865Y-818710D01*
X21081761Y-789606D01*
X21081551Y-789391D01*
X21081521Y-789361D01*
X21052944Y-760107D01*
X21052941Y-760105D01*
X21052940Y-760104D01*
X21052687Y-759905D01*
X21052490Y-759730D01*
X21051718Y-759138D01*
X21051135Y-758685D01*
X21050373Y-758086D01*
X21050153Y-757937D01*
X21049891Y-757736D01*
X21049890Y-757735D01*
X21036882Y-750225D01*
X21014467Y-737283D01*
X21014467Y-737282D01*
X21014090Y-737064D01*
X20978774Y-716120D01*
X20976898Y-715593D01*
X20975210Y-714619D01*
X20975206Y-714618D01*
X20935759Y-704047D01*
X20935759Y-704046D01*
X20935292Y-703921D01*
X20895746Y-692827D01*
X20893802Y-692804D01*
X20891921Y-692300D01*
X20891916Y-692300D01*
X20851100Y-692300D01*
X20850369Y-692296D01*
X20809524Y-691817D01*
X20809207Y-691856D01*
X20801768Y-692300D01*
X19555678Y-692300D01*
X19472392Y-714618D01*
X19472390Y-714619D01*
X19397709Y-757735D01*
X19197350Y-958094D01*
X19153156Y-976400D01*
X19027260Y-976400D01*
X19027259Y-976400D01*
X19027253Y-976401D01*
X18889058Y-1013430D01*
X18889049Y-1013434D01*
X18765148Y-1084969D01*
X18765139Y-1084976D01*
X18663976Y-1186139D01*
X18663969Y-1186148D01*
X18592434Y-1310048D01*
X18592431Y-1310056D01*
X18583085Y-1344936D01*
X18553964Y-1382886D01*
X18545761Y-1386855D01*
X14392252Y-3034485D01*
X14392253Y-3034486D01*
X14386640Y-3036712D01*
X14375369Y-3038823D01*
X14346719Y-3052549D01*
X14344710Y-3053345D01*
X14344709Y-3053345D01*
X14317165Y-3064273D01*
X14317155Y-3064279D01*
X14312793Y-3067521D01*
X14312794Y-3067522D01*
X14307948Y-3071125D01*
X14297602Y-3076084D01*
X14273477Y-3096761D01*
X14271737Y-3098056D01*
X14247967Y-3115734D01*
X14247966Y-3115735D01*
X14244587Y-3120004D01*
X14236260Y-3128662D01*
X13912231Y-3406401D01*
X13911726Y-3406833D01*
X13881036Y-3432083D01*
X13879084Y-3434812D01*
X13876530Y-3437002D01*
X13876526Y-3437006D01*
X13854397Y-3469324D01*
X13854398Y-3469325D01*
X13853999Y-3469907D01*
X13830891Y-3502237D01*
X13829710Y-3505383D01*
X13827812Y-3508156D01*
X13814811Y-3545075D01*
X13814381Y-3546259D01*
X13679922Y-3904817D01*
X13679921Y-3904818D01*
X13677288Y-3911838D01*
X13675365Y-3914650D01*
X13662203Y-3952062D01*
X13661977Y-3952666D01*
X13661952Y-3952736D01*
X13648210Y-3989384D01*
X13647459Y-3992621D01*
X13646748Y-3996001D01*
X13643765Y-4034955D01*
X13643655Y-4036230D01*
X13639864Y-4075213D01*
X9771000Y-4075213D01*
X9771000Y-138000D01*
X9789306Y-93806D01*
X9833500Y-75500D01*
X34710800Y-75500D01*
X34754994Y-93806D01*
G37*
%TD.AperFunction*%
%TD*%
M02*
